<svg width="70" height="71" viewBox="0 0 70 71" fill="none" xmlns="http://www.w3.org/2000/svg">
<g clip-path="url(#clip0_66_2187)">
<path d="M30.5862 46.0196L20.9209 36.3543L25.7825 31.4926L30.5862 36.2963L44.2192 22.6633L49.0809 27.525L30.5862 46.0196ZM23.6889 36.3543L30.5862 43.2516L46.3111 27.5267L44.2192 25.4349L30.5862 39.0679L25.7825 34.2642L23.6907 36.356L23.6889 36.3543Z" fill="white"/>
<path d="M35.9798 0.926514H34.0215V12.3184H35.9798V0.926514Z" fill="white"/>
<path d="M35.9798 58.8169H34.0215V70.2088H35.9798V58.8169Z" fill="white"/>
<path d="M18.5283 5.07819L16.8323 6.05737L22.5282 15.923L24.2242 14.9438L18.5283 5.07819Z" fill="white"/>
<path d="M47.4721 55.2127L45.7761 56.1919L51.4721 66.0575L53.168 65.0784L47.4721 55.2127Z" fill="white"/>
<path d="M5.49017 17.398L4.51099 19.094L14.3766 24.7899L15.3558 23.0939L5.49017 17.398Z" fill="white"/>
<path d="M55.6235 46.3448L54.6443 48.0408L64.5099 53.7367L65.4891 52.0407L55.6235 46.3448Z" fill="white"/>
<path d="M11.7507 34.5891H0.358887V36.5475H11.7507V34.5891Z" fill="white"/>
<path d="M69.6409 34.5891H58.249V36.5475H69.6409V34.5891Z" fill="white"/>
<path d="M14.3761 46.3436L4.5105 52.0396L5.48968 53.7355L15.3553 48.0396L14.3761 46.3436Z" fill="white"/>
<path d="M64.5107 17.3981L54.645 23.094L55.6242 24.79L65.4898 19.0941L64.5107 17.3981Z" fill="white"/>
<path d="M22.5267 55.2118L16.8308 65.0774L18.5268 66.0566L24.2227 56.1909L22.5267 55.2118Z" fill="white"/>
<path d="M51.4735 5.07821L45.7776 14.9438L47.4736 15.923L53.1695 6.05739L51.4735 5.07821Z" fill="white"/>
<path d="M16.8272 16.0095L15.4424 17.3943L20.5741 22.526L21.9589 21.1412L16.8272 16.0095Z" fill="white"/>
<path d="M49.4246 48.6062L48.0398 49.991L53.1715 55.1227L54.5563 53.7379L49.4246 48.6062Z" fill="white"/>
<path d="M9.48391 27.7163L8.97705 29.6079L15.9871 31.4862L16.494 29.5946L9.48391 27.7163Z" fill="white"/>
<path d="M54.0115 39.6474L53.5046 41.5391L60.5147 43.4174L61.0216 41.5258L54.0115 39.6474Z" fill="white"/>
<path d="M15.9871 39.6488L8.97705 41.5271L9.48391 43.4187L16.494 41.5404L15.9871 39.6488Z" fill="white"/>
<path d="M60.5147 27.7174L53.5046 29.5957L54.0115 31.4873L61.0216 29.609L60.5147 27.7174Z" fill="white"/>
<path d="M20.5746 48.6078L15.4429 53.7395L16.8276 55.1243L21.9594 49.9926L20.5746 48.6078Z" fill="white"/>
<path d="M53.171 16.0123L48.0393 21.144L49.4241 22.5288L54.5558 17.3971L53.171 16.0123Z" fill="white"/>
<path d="M29.0268 54.0722L27.1484 61.0823L29.0401 61.5891L30.9184 54.5791L29.0268 54.0722Z" fill="white"/>
<path d="M40.9596 9.54658L39.0813 16.5566L40.9729 17.0635L42.8513 10.0534L40.9596 9.54658Z" fill="white"/>
<path d="M40.9715 54.0735L39.0798 54.5803L40.9582 61.5904L42.8498 61.0835L40.9715 54.0735Z" fill="white"/>
<path d="M29.0403 9.54587L27.1487 10.0527L29.027 17.0628L30.9187 16.5559L29.0403 9.54587Z" fill="white"/>
</g>
<defs>
<clipPath id="clip0_66_2187">
<rect width="69.282" height="69.282" fill="white" transform="translate(0.358887 0.926514)"/>
</clipPath>
</defs>
</svg>
