<svg width="58" height="60" viewBox="0 0 58 60" fill="none" xmlns="http://www.w3.org/2000/svg">
<g clip-path="url(#clip0_66_2226)">
<path d="M12.1976 49.1793C11.7276 49.1793 11.3464 48.7981 11.3464 48.3281V37.9176C11.3464 37.4476 11.7276 37.0664 12.1976 37.0664C12.6676 37.0664 13.0488 37.4476 13.0488 37.9176V48.3281C13.0488 48.7981 12.6676 49.1793 12.1976 49.1793Z" fill="white"/>
<path d="M1.02844 22.6052C0.558434 22.6052 0.177246 22.224 0.177246 21.754C0.177246 20.0646 0.834148 18.4788 2.02767 17.2852C3.2212 16.0917 4.80702 15.4348 6.49646 15.4348C6.96647 15.4348 7.34765 15.816 7.34765 16.286C7.34765 16.756 6.96647 17.1372 6.49646 17.1372C3.95027 17.1372 1.87964 19.2078 1.87964 21.754C1.87964 22.224 1.49845 22.6052 1.02844 22.6052Z" fill="white"/>
<path d="M22.0586 19.0543C21.818 19.0543 21.5793 18.9526 21.4109 18.7564C20.532 17.7294 19.2533 17.1392 17.8988 17.1392C17.4288 17.1392 17.0476 16.758 17.0476 16.288C17.0476 15.818 17.4288 15.4368 17.8988 15.4368C19.7492 15.4368 21.5016 16.2436 22.7025 17.6499C23.0078 18.007 22.9653 18.5436 22.6081 18.849C22.4472 18.9859 22.251 19.0525 22.0567 19.0525L22.0586 19.0543Z" fill="white"/>
<path d="M3.4377 37.6585C1.63908 37.6585 0.177246 36.1967 0.177246 34.3981V21.756C0.177246 21.286 0.558434 20.9048 1.02844 20.9048C1.49845 20.9048 1.87964 21.286 1.87964 21.756V34.3981C1.87964 35.2585 2.5791 35.9561 3.4377 35.9561C4.2963 35.9561 4.99576 35.2567 4.99576 34.3981V27.113C4.99576 26.643 5.37695 26.2618 5.84696 26.2618C6.31697 26.2618 6.69816 26.643 6.69816 27.113V34.3981C6.69816 36.1967 5.23632 37.6585 3.4377 37.6585Z" fill="white"/>
<path d="M28.9662 31.7797C28.2001 31.7797 27.46 31.5114 26.8715 31.0173L26.8549 31.0044C26.6976 30.873 26.5495 30.7472 26.3978 30.6306L18.0283 24.1634C17.6564 23.8765 17.5879 23.3418 17.8747 22.9698C18.1616 22.5979 18.6963 22.5294 19.0683 22.8162L27.4378 29.2835C27.6172 29.4223 27.7856 29.5629 27.9485 29.6998L27.9651 29.7128C28.5776 30.2272 29.501 30.1865 30.0691 29.6203C30.3633 29.326 30.5261 28.9338 30.5261 28.5174C30.5261 28.1011 30.3633 27.7106 30.0691 27.4146L21.4572 18.8027C21.1241 18.4696 21.1241 17.9311 21.4572 17.5999C21.7902 17.2668 22.3287 17.2668 22.6599 17.5999L31.2718 26.2118C31.888 26.828 32.2267 27.6459 32.2267 28.5174C32.2267 29.389 31.888 30.2068 31.2718 30.823C30.6908 31.4041 29.921 31.7408 29.1013 31.7742C29.0569 31.776 29.0106 31.776 28.9662 31.776V31.7797Z" fill="white"/>
<path d="M17.9008 17.1372H6.49475C6.02474 17.1372 5.64355 16.756 5.64355 16.286C5.64355 15.816 6.02474 15.4348 6.49475 15.4348H17.9008C18.3708 15.4348 18.752 15.816 18.752 16.286C18.752 16.756 18.3708 17.1372 17.9008 17.1372Z" fill="white"/>
<path d="M12.231 14.5449C12.2199 14.5449 12.2088 14.5449 12.1976 14.5449C12.1865 14.5449 12.1754 14.5449 12.1643 14.5449C10.4749 14.5449 8.86318 13.7178 7.73812 12.2708C6.76294 11.0217 6.24112 9.41556 6.22632 7.6299V7.6225V7.6151C6.24112 5.82944 6.76294 4.22327 7.73812 2.97238C8.87058 1.51795 10.4953 0.688959 12.1976 0.700061C12.2088 0.700061 12.2199 0.700061 12.231 0.700061C13.9204 0.700061 15.5321 1.5272 16.6572 2.97423C17.6324 4.22327 18.1542 5.82944 18.169 7.6151V7.6225V7.6299C18.1542 9.41556 17.6324 11.0217 16.6572 12.2726C15.534 13.7178 13.9222 14.5468 12.231 14.5468V14.5449ZM12.1976 12.8444H12.2051C13.3745 12.8536 14.5088 12.2634 15.3156 11.2271C16.0576 10.2742 16.4573 9.02882 16.4684 7.6225C16.4555 6.21618 16.0576 4.97084 15.3156 4.01972C14.5088 2.98163 13.3764 2.3932 12.2051 2.40245H12.1976H12.1902C11.0189 2.3932 9.88647 2.98349 9.07968 4.01972C8.33766 4.97269 7.93796 6.21803 7.92686 7.62435C7.93982 9.03067 8.33766 10.276 9.07968 11.2271C9.88091 12.256 11.0023 12.8444 12.1643 12.8444C12.1736 12.8444 12.181 12.8444 12.1902 12.8444H12.1976Z" fill="white"/>
<path d="M15.3731 59.5898C14.0852 59.5898 12.9342 58.981 12.1977 58.0354C11.4594 58.981 10.3103 59.5898 9.02238 59.5898C6.80187 59.5898 4.99585 57.7838 4.99585 55.5633V23.4899C4.99585 23.0199 5.37704 22.6387 5.84705 22.6387C6.31706 22.6387 6.69824 23.0199 6.69824 23.4899V55.5633C6.69824 56.8456 7.74188 57.8874 9.02238 57.8874C10.3029 57.8874 11.3465 56.8438 11.3465 55.5633V48.3281H13.0471V55.5633C13.0471 56.8456 14.0907 57.8874 15.3712 57.8874C16.6517 57.8874 17.6953 56.8438 17.6953 55.5633V23.4899C17.6953 23.0199 18.0765 22.6387 18.5465 22.6387C19.0165 22.6387 19.3977 23.0199 19.3977 23.4899V55.5633C19.3977 57.7838 17.5917 59.5898 15.3712 59.5898H15.3731Z" fill="white"/>
<path d="M45.8866 49.1793C45.4166 49.1793 45.0354 48.7981 45.0354 48.3281V37.9176C45.0354 37.4476 45.4166 37.0664 45.8866 37.0664C46.3566 37.0664 46.7378 37.4476 46.7378 37.9176V48.3281C46.7378 48.7981 46.3566 49.1793 45.8866 49.1793Z" fill="white"/>
<path d="M57.0558 22.6052C56.5858 22.6052 56.2046 22.224 56.2046 21.754C56.2046 19.2078 54.134 17.1372 51.5878 17.1372C51.1178 17.1372 50.7366 16.756 50.7366 16.286C50.7366 15.816 51.1178 15.4348 51.5878 15.4348C53.2772 15.4348 54.863 16.0917 56.0566 17.2852C57.2501 18.4788 57.907 20.0646 57.907 21.754C57.907 22.224 57.5258 22.6052 57.0558 22.6052Z" fill="white"/>
<path d="M36.0238 19.0542C35.8276 19.0542 35.6315 18.9876 35.4723 18.8507C35.1152 18.5453 35.0726 18.0087 35.378 17.6516C36.5807 16.2453 38.3312 15.4385 40.1817 15.4385C40.6517 15.4385 41.0329 15.8197 41.0329 16.2897C41.0329 16.7597 40.6517 17.1409 40.1817 17.1409C38.829 17.1409 37.5485 17.7312 36.6696 18.7581C36.5012 18.9543 36.2625 19.0561 36.0219 19.0561L36.0238 19.0542Z" fill="white"/>
<path d="M54.6464 37.6585C52.8478 37.6585 51.386 36.1967 51.386 34.3981V27.113C51.386 26.643 51.7672 26.2618 52.2372 26.2618C52.7072 26.2618 53.0884 26.643 53.0884 27.113V34.3981C53.0884 35.2585 53.7878 35.9561 54.6464 35.9561C55.505 35.9561 56.2045 35.2567 56.2045 34.3981V21.756C56.2045 21.286 56.5857 20.9048 57.0557 20.9048C57.5257 20.9048 57.9069 21.286 57.9069 21.756V34.3981C57.9069 36.1967 56.4451 37.6585 54.6464 37.6585Z" fill="white"/>
<path d="M31.3773 23.7025C31.159 23.7025 30.9425 23.6192 30.7759 23.4527C30.4429 23.1196 30.4429 22.5811 30.7759 22.2499L35.4242 17.6016C35.7554 17.2685 36.2958 17.2685 36.627 17.6016C36.9601 17.9347 36.9601 18.4732 36.627 18.8044L31.9787 23.4527C31.8122 23.6192 31.5957 23.7025 31.3773 23.7025Z" fill="white"/>
<path d="M34.3122 28.3767C34.0587 28.3767 33.8052 28.2638 33.6387 28.0454C33.3518 27.6735 33.4203 27.1387 33.7922 26.8519L39.016 22.8161C39.3879 22.5293 39.9227 22.5978 40.2095 22.9697C40.4963 23.3417 40.4279 23.8764 40.0559 24.1633L34.8322 28.199C34.6767 28.3193 34.4935 28.3767 34.3122 28.3767Z" fill="white"/>
<path d="M51.5895 17.1372H40.1835C39.7135 17.1372 39.3323 16.756 39.3323 16.286C39.3323 15.816 39.7135 15.4348 40.1835 15.4348H51.5895C52.0595 15.4348 52.4407 15.816 52.4407 16.286C52.4407 16.756 52.0595 17.1372 51.5895 17.1372Z" fill="white"/>
<path d="M45.9199 14.5447C45.9088 14.5447 45.8977 14.5447 45.8866 14.5447C44.1842 14.5558 42.5595 13.7268 41.4271 12.2706C40.4519 11.0215 39.9301 9.41535 39.9153 7.62969V7.62229V7.61488C39.9301 5.82923 40.4519 4.22306 41.4271 2.97217C42.5503 1.52699 44.162 0.697998 45.8533 0.697998C45.8644 0.697998 45.8755 0.697998 45.8866 0.697998C45.8977 0.697998 45.9088 0.697998 45.9199 0.697998C47.6094 0.697998 49.2211 1.52514 50.3461 2.97217C51.3213 4.22121 51.8431 5.82737 51.8579 7.61303V7.62044V7.62784C51.8431 9.4135 51.3213 11.0197 50.3461 12.2706C49.2229 13.7157 47.6112 14.5447 45.9199 14.5447ZM45.8866 12.8442H45.8922C45.8922 12.8442 45.9088 12.8442 45.9181 12.8442C47.0801 12.8442 48.2015 12.2557 49.0009 11.2269C49.7429 10.2739 50.1426 9.02861 50.1537 7.62229C50.1407 6.21596 49.7429 4.97063 49.0009 4.01951C48.1997 2.99067 47.0783 2.40224 45.9162 2.40224C45.907 2.40224 45.8996 2.40224 45.8903 2.40224H45.8829H45.8755C45.8663 2.40224 45.8589 2.40224 45.8496 2.40224C44.6875 2.40224 43.5662 2.99067 42.7668 4.01951C42.0248 4.97248 41.6251 6.21781 41.614 7.62414C41.6269 9.03046 42.0248 10.2758 42.7668 11.2269C43.568 12.2576 44.6894 12.8442 45.8515 12.8442C45.8607 12.8442 45.8681 12.8442 45.8774 12.8442H45.8829H45.8866Z" fill="white"/>
<path d="M49.062 59.5898C47.7741 59.5898 46.6232 58.981 45.8867 58.0354C45.1484 58.981 43.9992 59.5898 42.7113 59.5898C40.4908 59.5898 38.6848 57.7838 38.6848 55.5633V23.4899C38.6848 23.0199 39.066 22.6387 39.536 22.6387C40.006 22.6387 40.3872 23.0199 40.3872 23.4899V55.5633C40.3872 56.8456 41.4308 57.8874 42.7113 57.8874C43.9918 57.8874 45.0355 56.8438 45.0355 55.5633V48.3281H46.736V55.5633C46.736 56.8456 47.7797 57.8874 49.0602 57.8874C50.3407 57.8874 51.3843 56.8438 51.3843 55.5633V23.4899C51.3843 23.0199 51.7655 22.6387 52.2355 22.6387C52.7055 22.6387 53.0867 23.0199 53.0867 23.4899V55.5633C53.0867 57.7838 51.2807 59.5898 49.0602 59.5898H49.062Z" fill="white"/>
</g>
<defs>
<clipPath id="clip0_66_2226">
<rect width="57.7297" height="58.8898" fill="white" transform="translate(0.177002 0.699951)"/>
</clipPath>
</defs>
</svg>
