<svg width="46" height="73" viewBox="0 0 46 73" fill="none" xmlns="http://www.w3.org/2000/svg">
<g clip-path="url(#clip0_66_2149)">
<path d="M35.4583 25.4355V32.8095" stroke="white" stroke-width="1.78979" stroke-linecap="round" stroke-linejoin="round"/>
<path d="M32.4155 26.1636V33.3227" stroke="white" stroke-width="1.78979" stroke-linecap="round" stroke-linejoin="round"/>
<path d="M32.3916 46.6028H35.995" stroke="white" stroke-width="1.78979" stroke-linecap="round" stroke-linejoin="round"/>
<path d="M32.3916 49.4546H35.995" stroke="white" stroke-width="1.78979" stroke-linecap="round" stroke-linejoin="round"/>
<path d="M40.0878 57.258H28.2872C27.3207 57.258 26.5332 56.4705 26.5332 55.504C26.5332 54.5375 27.3207 53.75 28.2872 53.75H40.0878C41.0543 53.75 41.8418 54.5375 41.8418 55.504C41.8418 56.4705 41.0543 57.258 40.0878 57.258Z" stroke="white" stroke-width="1.78979" stroke-linecap="round" stroke-linejoin="round"/>
<path d="M35.4583 35.3035C35.4583 36.1984 31.7117 36.1984 31.7117 37.0933C31.7117 37.9881 35.4583 37.9881 35.4583 38.883C35.4583 39.7779 31.7117 39.7779 31.7117 40.6728C31.7117 41.5677 35.4583 41.5677 35.4583 42.4626C35.4583 43.3575 31.7117 43.3575 31.7117 44.2524" stroke="white" stroke-width="1.78979" stroke-linecap="round" stroke-linejoin="round"/>
<path d="M28.8957 57.2581L24.9343 67.3167" stroke="white" stroke-width="1.78979" stroke-linecap="round" stroke-linejoin="round"/>
<path d="M32.6542 57.2581L31.4968 67.3167" stroke="white" stroke-width="1.78979" stroke-linecap="round" stroke-linejoin="round"/>
<path d="M39.4792 57.2581L43.4406 67.3167" stroke="white" stroke-width="1.78979" stroke-linecap="round" stroke-linejoin="round"/>
<path d="M35.7207 57.2581L36.8781 67.3167" stroke="white" stroke-width="1.78979" stroke-linecap="round" stroke-linejoin="round"/>
<path d="M7.10791 13.8855V68.7723" stroke="white" stroke-width="1.78979" stroke-linecap="round" stroke-linejoin="round"/>
<path d="M10.95 16.2959V68.0565" stroke="white" stroke-width="1.78979" stroke-linecap="round" stroke-linejoin="round"/>
<path d="M7.10791 13.8784L24.5046 13.7424" stroke="white" stroke-width="1.78979" stroke-linecap="round" stroke-linejoin="round"/>
<path d="M43.0111 15.3769C43.0946 14.8877 43.0946 12.8832 43.0111 12.394L44.2282 11.2962C44.2282 11.2962 43.6077 9.47064 43.1304 8.65927L41.4958 8.74279C40.9111 7.93142 40.2071 7.21551 39.3838 6.63085L39.4673 4.99617C38.656 4.5189 37.773 4.14901 36.8304 3.89844L35.7326 5.11549C35.2434 5.03197 33.2389 5.03197 32.7497 5.11549L31.6519 3.89844C30.7212 4.13708 29.015 4.99617 29.015 4.99617L29.0985 6.63085C29.0985 6.63085 27.5712 7.91949 26.9866 8.74279L25.3519 8.65927C24.8746 9.47064 24.5047 10.3536 24.2542 11.2962L25.4712 12.394C25.4712 12.394 25.3877 14.8877 25.4712 15.3769L24.2542 16.4747C24.2542 16.4747 24.8746 18.3003 25.3519 19.1116L26.9866 19.0281C27.5712 19.8395 29.0985 21.14 29.0985 21.14L29.015 22.7747C29.8263 23.252 31.6519 23.8725 31.6519 23.8725L32.7497 22.6554C33.2389 22.7389 35.2434 22.7389 35.7326 22.6554L36.8304 23.8725C37.773 23.6338 38.656 23.252 39.4673 22.7747L39.3838 21.14C40.1952 20.5554 40.9111 19.8514 41.4958 19.0281L43.1304 19.1116C43.6077 18.3003 43.9776 17.4173 44.2282 16.4747L43.0111 15.3769Z" stroke="white" stroke-width="1.78979" stroke-linecap="round" stroke-linejoin="round"/>
<path d="M38.1309 13.8854C38.1309 16.0332 36.3889 17.7752 34.2411 17.7752C32.0934 17.7752 30.3513 16.0332 30.3513 13.8854C30.3513 11.7377 32.0934 9.99561 34.2411 9.99561C36.3889 9.99561 38.1309 11.7377 38.1309 13.8854Z" stroke="white" stroke-width="1.78979" stroke-linecap="round" stroke-linejoin="round"/>
<path d="M1.53564 69.2615H17.25" stroke="white" stroke-width="1.78979" stroke-linecap="round" stroke-linejoin="round"/>
</g>
<defs>
<clipPath id="clip0_66_2149">
<rect width="44.4821" height="67.1528" fill="white" transform="translate(0.640869 3.00366)"/>
</clipPath>
</defs>
</svg>
