<svg width="161" height="976" viewBox="0 0 161 976" fill="none" xmlns="http://www.w3.org/2000/svg">
<path fill-rule="evenodd" clip-rule="evenodd" d="M34 378H31V389H20V392H31V402H34V392H44V389H34V378Z" fill="#BA181B"/>
<path fill-rule="evenodd" clip-rule="evenodd" d="M34 438H31V449H20V452H31V462H34V452H44V449H34V438Z" fill="#BA181B"/>
<path fill-rule="evenodd" clip-rule="evenodd" d="M34 498H31V509H20V512H31V522H34V512H44V509H34V498Z" fill="#BA181B"/>
<path d="M0 156.878L161 0V590.412L40.1064 711.029V631L80.7657 590.412V264.996L0 345.555V156.878Z" fill="#D3D3D3"/>
<path d="M102 691.784L160 634V697.216L102 755V691.784Z" fill="#D3D3D3"/>
<path d="M102 802.306L160 745V807.694L102 865V802.306Z" fill="#D3D3D3"/>
<path d="M102 912.784L160 855V918.216L102 976V912.784Z" fill="#D3D3D3"/>
</svg>
