<svg width="242" height="243" viewBox="0 0 242 243" fill="none" xmlns="http://www.w3.org/2000/svg">
<path d="M4 8C6.20774 8 8 6.20774 8 4C8 1.79226 6.20774 0 4 0C1.79226 0 0 1.79226 0 4C0 6.20774 1.79226 8 4 8Z" fill="#E6E6E6"/>
<path d="M37.4102 8C39.6179 8 41.4102 6.20774 41.4102 4C41.4102 1.79226 39.6179 0 37.4102 0C35.2024 0 33.4102 1.79226 33.4102 4C33.4102 6.20774 35.2024 8 37.4102 8Z" fill="#E6E6E6"/>
<path d="M70.8203 8C73.0281 8 74.8203 6.20774 74.8203 4C74.8203 1.79226 73.0281 0 70.8203 0C68.6126 0 66.8203 1.79226 66.8203 4C66.8203 6.20774 68.6126 8 70.8203 8Z" fill="#E6E6E6"/>
<path d="M104.22 8C106.427 8 108.22 6.20774 108.22 4C108.22 1.79226 106.427 0 104.22 0C102.012 0 100.22 1.79226 100.22 4C100.22 6.20774 102.012 8 104.22 8Z" fill="#E6E6E6"/>
<path d="M137.63 8C139.838 8 141.63 6.20774 141.63 4C141.63 1.79226 139.838 0 137.63 0C135.422 0 133.63 1.79226 133.63 4C133.63 6.20774 135.422 8 137.63 8Z" fill="#E6E6E6"/>
<path d="M171.04 8C173.248 8 175.04 6.20774 175.04 4C175.04 1.79226 173.248 0 171.04 0C168.832 0 167.04 1.79226 167.04 4C167.04 6.20774 168.832 8 171.04 8Z" fill="#E6E6E6"/>
<path d="M204.45 8C206.658 8 208.45 6.20774 208.45 4C208.45 1.79226 206.658 0 204.45 0C202.242 0 200.45 1.79226 200.45 4C200.45 6.20774 202.242 8 204.45 8Z" fill="#E6E6E6"/>
<path d="M238 8C240.208 8 242 6.20774 242 4C242 1.79226 240.208 0 238 0C235.792 0 234 1.79226 234 4C234 6.20774 235.792 8 238 8Z" fill="#E6E6E6"/>
<path d="M4 41.4102C6.20914 41.4102 8 39.6193 8 37.4102C8 35.201 6.20914 33.4102 4 33.4102C1.79086 33.4102 0 35.201 0 37.4102C0 39.6193 1.79086 41.4102 4 41.4102Z" fill="#E6E6E6"/>
<path d="M37.4102 41.4102C39.6193 41.4102 41.4102 39.6193 41.4102 37.4102C41.4102 35.201 39.6193 33.4102 37.4102 33.4102C35.201 33.4102 33.4102 35.201 33.4102 37.4102C33.4102 39.6193 35.201 41.4102 37.4102 41.4102Z" fill="#E6E6E6"/>
<path d="M71.3362 41.5175C73.5163 41.1601 74.9938 39.1032 74.6365 36.9231C74.2791 34.7431 72.2221 33.2655 70.042 33.6229C67.862 33.9803 66.3844 36.0373 66.7418 38.2173C67.0992 40.3974 69.1562 41.8749 71.3362 41.5175Z" fill="#E6E6E6"/>
<path d="M104.22 41.4102C106.429 41.4102 108.22 39.6193 108.22 37.4102C108.22 35.201 106.429 33.4102 104.22 33.4102C102.011 33.4102 100.22 35.201 100.22 37.4102C100.22 39.6193 102.011 41.4102 104.22 41.4102Z" fill="#E6E6E6"/>
<path d="M137.63 41.4102C139.839 41.4102 141.63 39.6193 141.63 37.4102C141.63 35.201 139.839 33.4102 137.63 33.4102C135.421 33.4102 133.63 35.201 133.63 37.4102C133.63 39.6193 135.421 41.4102 137.63 41.4102Z" fill="#E6E6E6"/>
<path d="M171.04 41.4102C173.248 41.4102 175.04 39.6179 175.04 37.4102C175.04 35.2024 173.248 33.4102 171.04 33.4102C168.832 33.4102 167.04 35.2024 167.04 37.4102C167.04 39.6179 168.832 41.4102 171.04 41.4102Z" fill="#E6E6E6"/>
<path d="M204.45 41.4102C206.659 41.4102 208.45 39.6193 208.45 37.4102C208.45 35.201 206.659 33.4102 204.45 33.4102C202.241 33.4102 200.45 35.201 200.45 37.4102C200.45 39.6193 202.241 41.4102 204.45 41.4102Z" fill="#E6E6E6"/>
<path d="M238 41.4102C240.209 41.4102 242 39.6193 242 37.4102C242 35.201 240.209 33.4102 238 33.4102C235.791 33.4102 234 35.201 234 37.4102C234 39.6193 235.791 41.4102 238 41.4102Z" fill="#E6E6E6"/>
<path d="M4 74.8101C6.20774 74.8101 8 73.0178 8 70.8101C8 68.6023 6.20774 66.8101 4 66.8101C1.79226 66.8101 0 68.6023 0 70.8101C0 73.0178 1.79226 74.8101 4 74.8101Z" fill="#E6E6E6"/>
<path d="M37.4102 74.8101C39.6179 74.8101 41.4102 73.0178 41.4102 70.8101C41.4102 68.6023 39.6179 66.8101 37.4102 66.8101C35.2024 66.8101 33.4102 68.6023 33.4102 70.8101C33.4102 73.0178 35.2024 74.8101 37.4102 74.8101Z" fill="#E6E6E6"/>
<path d="M70.8203 74.8101C73.0281 74.8101 74.8203 73.0178 74.8203 70.8101C74.8203 68.6023 73.0281 66.8101 70.8203 66.8101C68.6126 66.8101 66.8203 68.6023 66.8203 70.8101C66.8203 73.0178 68.6126 74.8101 70.8203 74.8101Z" fill="#E6E6E6"/>
<path d="M104.22 74.8101C106.427 74.8101 108.22 73.0178 108.22 70.8101C108.22 68.6023 106.427 66.8101 104.22 66.8101C102.012 66.8101 100.22 68.6023 100.22 70.8101C100.22 73.0178 102.012 74.8101 104.22 74.8101Z" fill="#E6E6E6"/>
<path d="M137.63 74.8101C139.838 74.8101 141.63 73.0178 141.63 70.8101C141.63 68.6023 139.838 66.8101 137.63 66.8101C135.422 66.8101 133.63 68.6023 133.63 70.8101C133.63 73.0178 135.422 74.8101 137.63 74.8101Z" fill="#E6E6E6"/>
<path d="M171.04 74.8101C173.248 74.8101 175.04 73.0178 175.04 70.8101C175.04 68.6023 173.248 66.8101 171.04 66.8101C168.832 66.8101 167.04 68.6023 167.04 70.8101C167.04 73.0178 168.832 74.8101 171.04 74.8101Z" fill="#E6E6E6"/>
<path d="M204.45 74.8101C206.658 74.8101 208.45 73.0178 208.45 70.8101C208.45 68.6023 206.658 66.8101 204.45 66.8101C202.242 66.8101 200.45 68.6023 200.45 70.8101C200.45 73.0178 202.242 74.8101 204.45 74.8101Z" fill="#E6E6E6"/>
<path d="M238 74.8101C240.208 74.8101 242 73.0178 242 70.8101C242 68.6023 240.208 66.8101 238 66.8101C235.792 66.8101 234 68.6023 234 70.8101C234 73.0178 235.792 74.8101 238 74.8101Z" fill="#E6E6E6"/>
<path d="M4 108.22C6.20914 108.22 8 106.429 8 104.22C8 102.011 6.20914 100.22 4 100.22C1.79086 100.22 0 102.011 0 104.22C0 106.429 1.79086 108.22 4 108.22Z" fill="#E6E6E6"/>
<path d="M37.4102 108.22C39.6193 108.22 41.4102 106.429 41.4102 104.22C41.4102 102.011 39.6193 100.22 37.4102 100.22C35.201 100.22 33.4102 102.011 33.4102 104.22C33.4102 106.429 35.201 108.22 37.4102 108.22Z" fill="#E6E6E6"/>
<path d="M71.3343 108.317C73.5143 107.96 74.9919 105.903 74.6345 103.723C74.2771 101.543 72.2201 100.065 70.0401 100.423C67.86 100.78 66.3825 102.837 66.7399 105.017C67.0973 107.197 69.1543 108.675 71.3343 108.317Z" fill="#E6E6E6"/>
<path d="M104.22 108.22C106.429 108.22 108.22 106.429 108.22 104.22C108.22 102.011 106.429 100.22 104.22 100.22C102.011 100.22 100.22 102.011 100.22 104.22C100.22 106.429 102.011 108.22 104.22 108.22Z" fill="#E6E6E6"/>
<path d="M137.63 108.22C139.839 108.22 141.63 106.429 141.63 104.22C141.63 102.011 139.839 100.22 137.63 100.22C135.421 100.22 133.63 102.011 133.63 104.22C133.63 106.429 135.421 108.22 137.63 108.22Z" fill="#E6E6E6"/>
<path d="M171.04 108.22C173.248 108.22 175.04 106.427 175.04 104.22C175.04 102.012 173.248 100.22 171.04 100.22C168.832 100.22 167.04 102.012 167.04 104.22C167.04 106.427 168.832 108.22 171.04 108.22Z" fill="#E6E6E6"/>
<path d="M204.45 108.22C206.659 108.22 208.45 106.429 208.45 104.22C208.45 102.011 206.659 100.22 204.45 100.22C202.241 100.22 200.45 102.011 200.45 104.22C200.45 106.429 202.241 108.22 204.45 108.22Z" fill="#E6E6E6"/>
<path d="M238 108.22C240.209 108.22 242 106.429 242 104.22C242 102.011 240.209 100.22 238 100.22C235.791 100.22 234 102.011 234 104.22C234 106.429 235.791 108.22 238 108.22Z" fill="#E6E6E6"/>
<path d="M4 141.63C6.20914 141.63 8 139.839 8 137.63C8 135.421 6.20914 133.63 4 133.63C1.79086 133.63 0 135.421 0 137.63C0 139.839 1.79086 141.63 4 141.63Z" fill="#E6E6E6"/>
<path d="M37.4102 141.63C39.6193 141.63 41.4102 139.839 41.4102 137.63C41.4102 135.421 39.6193 133.63 37.4102 133.63C35.201 133.63 33.4102 135.421 33.4102 137.63C33.4102 139.839 35.201 141.63 37.4102 141.63Z" fill="#E6E6E6"/>
<path d="M71.3392 141.727C73.5192 141.37 74.9968 139.313 74.6394 137.133C74.282 134.953 72.225 133.475 70.045 133.833C67.8649 134.19 66.3874 136.247 66.7448 138.427C67.1021 140.607 69.1591 142.085 71.3392 141.727Z" fill="#E6E6E6"/>
<path d="M104.22 141.63C106.429 141.63 108.22 139.839 108.22 137.63C108.22 135.421 106.429 133.63 104.22 133.63C102.011 133.63 100.22 135.421 100.22 137.63C100.22 139.839 102.011 141.63 104.22 141.63Z" fill="#E6E6E6"/>
<path d="M137.63 141.63C139.839 141.63 141.63 139.839 141.63 137.63C141.63 135.421 139.839 133.63 137.63 133.63C135.421 133.63 133.63 135.421 133.63 137.63C133.63 139.839 135.421 141.63 137.63 141.63Z" fill="#E6E6E6"/>
<path d="M171.04 141.63C173.248 141.63 175.04 139.838 175.04 137.63C175.04 135.422 173.248 133.63 171.04 133.63C168.832 133.63 167.04 135.422 167.04 137.63C167.04 139.838 168.832 141.63 171.04 141.63Z" fill="#E6E6E6"/>
<path d="M204.45 141.63C206.659 141.63 208.45 139.839 208.45 137.63C208.45 135.421 206.659 133.63 204.45 133.63C202.241 133.63 200.45 135.421 200.45 137.63C200.45 139.839 202.241 141.63 204.45 141.63Z" fill="#E6E6E6"/>
<path d="M238 141.63C240.209 141.63 242 139.839 242 137.63C242 135.421 240.209 133.63 238 133.63C235.791 133.63 234 135.421 234 137.63C234 139.839 235.791 141.63 238 141.63Z" fill="#E6E6E6"/>
<path d="M4 175.04C6.20914 175.04 8 173.249 8 171.04C8 168.831 6.20914 167.04 4 167.04C1.79086 167.04 0 168.831 0 171.04C0 173.249 1.79086 175.04 4 175.04Z" fill="#E6E6E6"/>
<path d="M37.4102 175.04C39.6193 175.04 41.4102 173.249 41.4102 171.04C41.4102 168.831 39.6193 167.04 37.4102 167.04C35.201 167.04 33.4102 168.831 33.4102 171.04C33.4102 173.249 35.201 175.04 37.4102 175.04Z" fill="#E6E6E6"/>
<path d="M71.3343 175.137C73.5143 174.78 74.9919 172.723 74.6345 170.543C74.2771 168.363 72.2201 166.885 70.0401 167.243C67.86 167.6 66.3825 169.657 66.7399 171.837C67.0973 174.017 69.1543 175.495 71.3343 175.137Z" fill="#E6E6E6"/>
<path d="M104.22 175.04C106.429 175.04 108.22 173.249 108.22 171.04C108.22 168.831 106.429 167.04 104.22 167.04C102.011 167.04 100.22 168.831 100.22 171.04C100.22 173.249 102.011 175.04 104.22 175.04Z" fill="#E6E6E6"/>
<path d="M137.63 175.04C139.839 175.04 141.63 173.249 141.63 171.04C141.63 168.831 139.839 167.04 137.63 167.04C135.421 167.04 133.63 168.831 133.63 171.04C133.63 173.249 135.421 175.04 137.63 175.04Z" fill="#E6E6E6"/>
<path d="M171.04 175.04C173.248 175.04 175.04 173.248 175.04 171.04C175.04 168.832 173.248 167.04 171.04 167.04C168.832 167.04 167.04 168.832 167.04 171.04C167.04 173.248 168.832 175.04 171.04 175.04Z" fill="#E6E6E6"/>
<path d="M204.45 175.04C206.659 175.04 208.45 173.249 208.45 171.04C208.45 168.831 206.659 167.04 204.45 167.04C202.241 167.04 200.45 168.831 200.45 171.04C200.45 173.249 202.241 175.04 204.45 175.04Z" fill="#E6E6E6"/>
<path d="M238 175.04C240.209 175.04 242 173.249 242 171.04C242 168.831 240.209 167.04 238 167.04C235.791 167.04 234 168.831 234 171.04C234 173.249 235.791 175.04 238 175.04Z" fill="#E6E6E6"/>
<path d="M4 208.45C6.20914 208.45 8 206.659 8 204.45C8 202.241 6.20914 200.45 4 200.45C1.79086 200.45 0 202.241 0 204.45C0 206.659 1.79086 208.45 4 208.45Z" fill="#E6E6E6"/>
<path d="M4 241.444C6.20914 241.444 8 239.653 8 237.444C8 235.235 6.20914 233.444 4 233.444C1.79086 233.444 0 235.235 0 237.444C0 239.653 1.79086 241.444 4 241.444Z" fill="#E6E6E6"/>
<path d="M37.4102 208.45C39.6193 208.45 41.4102 206.659 41.4102 204.45C41.4102 202.241 39.6193 200.45 37.4102 200.45C35.201 200.45 33.4102 202.241 33.4102 204.45C33.4102 206.659 35.201 208.45 37.4102 208.45Z" fill="#E6E6E6"/>
<path d="M37.4102 241.444C39.6193 241.444 41.4102 239.653 41.4102 237.444C41.4102 235.235 39.6193 233.444 37.4102 233.444C35.201 233.444 33.4102 235.235 33.4102 237.444C33.4102 239.653 35.201 241.444 37.4102 241.444Z" fill="#E6E6E6"/>
<path d="M71.3392 208.547C73.5192 208.19 74.9968 206.133 74.6394 203.953C74.282 201.773 72.225 200.295 70.045 200.653C67.8649 201.01 66.3874 203.067 66.7448 205.247C67.1021 207.427 69.1591 208.905 71.3392 208.547Z" fill="#E6E6E6"/>
<path d="M71.3392 241.541C73.5192 241.184 74.9968 239.127 74.6394 236.947C74.282 234.767 72.225 233.289 70.045 233.647C67.8649 234.004 66.3874 236.061 66.7448 238.241C67.1021 240.421 69.1591 241.899 71.3392 241.541Z" fill="#E6E6E6"/>
<path d="M104.22 208.45C106.429 208.45 108.22 206.659 108.22 204.45C108.22 202.241 106.429 200.45 104.22 200.45C102.011 200.45 100.22 202.241 100.22 204.45C100.22 206.659 102.011 208.45 104.22 208.45Z" fill="#E6E6E6"/>
<path d="M104.22 241.444C106.429 241.444 108.22 239.653 108.22 237.444C108.22 235.235 106.429 233.444 104.22 233.444C102.011 233.444 100.22 235.235 100.22 237.444C100.22 239.653 102.011 241.444 104.22 241.444Z" fill="#E6E6E6"/>
<path d="M137.63 208.45C139.839 208.45 141.63 206.659 141.63 204.45C141.63 202.241 139.839 200.45 137.63 200.45C135.421 200.45 133.63 202.241 133.63 204.45C133.63 206.659 135.421 208.45 137.63 208.45Z" fill="#E6E6E6"/>
<path d="M137.63 241.444C139.839 241.444 141.63 239.653 141.63 237.444C141.63 235.235 139.839 233.444 137.63 233.444C135.421 233.444 133.63 235.235 133.63 237.444C133.63 239.653 135.421 241.444 137.63 241.444Z" fill="#E6E6E6"/>
<path d="M171.04 208.45C173.248 208.45 175.04 206.658 175.04 204.45C175.04 202.242 173.248 200.45 171.04 200.45C168.832 200.45 167.04 202.242 167.04 204.45C167.04 206.658 168.832 208.45 171.04 208.45Z" fill="#E6E6E6"/>
<path d="M171.04 241.444C173.248 241.444 175.04 239.652 175.04 237.444C175.04 235.237 173.248 233.444 171.04 233.444C168.832 233.444 167.04 235.237 167.04 237.444C167.04 239.652 168.832 241.444 171.04 241.444Z" fill="#E6E6E6"/>
<path d="M204.45 208.45C206.659 208.45 208.45 206.659 208.45 204.45C208.45 202.241 206.659 200.45 204.45 200.45C202.241 200.45 200.45 202.241 200.45 204.45C200.45 206.659 202.241 208.45 204.45 208.45Z" fill="#E6E6E6"/>
<path d="M204.45 241.444C206.659 241.444 208.45 239.653 208.45 237.444C208.45 235.235 206.659 233.444 204.45 233.444C202.241 233.444 200.45 235.235 200.45 237.444C200.45 239.653 202.241 241.444 204.45 241.444Z" fill="#E6E6E6"/>
<path d="M238 208.45C240.209 208.45 242 206.659 242 204.45C242 202.241 240.209 200.45 238 200.45C235.791 200.45 234 202.241 234 204.45C234 206.659 235.791 208.45 238 208.45Z" fill="#E6E6E6"/>
<path d="M238 241.444C240.209 241.444 242 239.653 242 237.444C242 235.235 240.209 233.444 238 233.444C235.791 233.444 234 235.235 234 237.444C234 239.653 235.791 241.444 238 241.444Z" fill="#E6E6E6"/>
</svg>
