<svg width="18" height="334" viewBox="0 0 18 334" fill="none" xmlns="http://www.w3.org/2000/svg">
<path d="M4 0.438209L17.0909 0.43821L17.0909 2.41335L11.402 2.41335L11.402 8.93963L17.0909 8.93963L17.0909 10.9212L4 10.9212L4 8.93963L9.7081 8.93963L9.7081 2.41335L4 2.41335L4 0.438209ZM3.80185 19.9398C3.80185 19.0194 4.01278 18.2161 4.43466 17.53C4.85653 16.8439 5.44673 16.3113 6.20526 15.932C6.96378 15.5528 7.85014 15.3631 8.86435 15.3631C9.88281 15.3631 10.7734 15.5528 11.5362 15.932C12.299 16.3113 12.8913 16.8439 13.3132 17.53C13.7351 18.2161 13.946 19.0194 13.946 19.9398C13.946 20.8603 13.7351 21.6636 13.3132 22.3496C12.8913 23.0357 12.299 23.5684 11.5362 23.9476C10.7734 24.3269 9.88281 24.5165 8.86435 24.5165C7.85014 24.5165 6.96378 24.3269 6.20525 23.9476C5.44673 23.5684 4.85653 23.0357 4.43466 22.3496C4.01278 21.6636 3.80185 20.8603 3.80185 19.9398ZM5.40625 19.9462C5.40625 20.5428 5.56392 21.0371 5.87926 21.4292C6.1946 21.8212 6.61435 22.111 7.13849 22.2985C7.66264 22.4903 8.24006 22.5861 8.87074 22.5861C9.49716 22.5861 10.0724 22.4903 10.5966 22.2985C11.125 22.111 11.549 21.8212 11.8686 21.4292C12.1882 21.0371 12.348 20.5428 12.348 19.9462C12.348 19.3454 12.1882 18.8468 11.8686 18.4505C11.549 18.0584 11.125 17.7665 10.5966 17.5748C10.0724 17.3873 9.49716 17.2935 8.87074 17.2935C8.24006 17.2935 7.66264 17.3873 7.13849 17.5748C6.61435 17.7665 6.1946 18.0584 5.87926 18.4505C5.56392 18.8468 5.40625 19.3454 5.40625 19.9462ZM9.82954 30.7211L4 30.7211L4 28.8099L13.8182 28.8099L13.8182 30.6444L12.2202 30.6444L12.2202 30.7658C12.7401 30.9917 13.1577 31.3454 13.473 31.8269C13.7884 32.3127 13.946 32.9242 13.946 33.6614C13.946 34.3305 13.8054 34.9164 13.5241 35.4193C13.2472 35.9221 12.8338 36.312 12.2841 36.589C11.7344 36.866 11.0547 37.0045 10.245 37.0045L4 37.0045L4 35.0933L10.0149 35.0933C10.7266 35.0933 11.2827 34.9079 11.6832 34.5372C12.0881 34.1664 12.2905 33.6572 12.2905 33.0095C12.2905 32.5663 12.1946 32.1721 12.0028 31.8269C11.8111 31.486 11.5298 31.2154 11.1591 31.0151C10.7926 30.8191 10.3494 30.7211 9.82954 30.7211ZM0.113634 45.8442C0.113634 45.0643 0.215907 44.3932 0.420453 43.8307C0.624998 43.2724 0.895595 42.8165 1.23224 42.4628C1.56889 42.1091 1.9375 41.8449 2.33807 41.6702L3.01562 43.3129C2.82812 43.428 2.62997 43.5814 2.42116 43.7731C2.20809 43.9692 2.02699 44.2334 1.87784 44.5658C1.72869 44.9024 1.65412 45.3349 1.65412 45.8633C1.65412 46.5878 1.83096 47.1865 2.18466 47.6595C2.53409 48.1325 3.09233 48.369 3.85937 48.369L5.78977 48.369L5.78977 48.2476C5.58096 48.1325 5.34872 47.9663 5.09304 47.749C4.83736 47.5359 4.61576 47.2419 4.42826 46.8669C4.24076 46.4919 4.14702 46.004 4.14702 45.4031C4.14702 44.6275 4.32812 43.9287 4.69034 43.3065C5.05682 42.6886 5.59588 42.1986 6.30753 41.8364C7.02344 41.4784 7.90341 41.2994 8.94744 41.2994C9.99148 41.2994 10.8864 41.4763 11.6321 41.83C12.3778 42.1879 12.9489 42.678 13.3452 43.3001C13.7457 43.9223 13.946 44.6275 13.946 45.4159C13.946 46.0253 13.8437 46.5175 13.6392 46.8925C13.4389 47.2675 13.2045 47.5594 12.9361 47.7682C12.6676 47.9812 12.4311 48.1453 12.2266 48.2604L12.2266 48.401L13.8182 48.401L13.8182 50.2739L3.78267 50.2739C2.93892 50.2739 2.24645 50.0778 1.70525 49.6858C1.16406 49.2937 0.763492 48.7632 0.503549 48.0942C0.243606 47.4294 0.113634 46.6794 0.113634 45.8442ZM5.73224 45.825C5.73224 46.3747 5.86008 46.8392 6.11576 47.2185C6.37571 47.602 6.74645 47.8918 7.22798 48.0878C7.71378 48.2881 8.29545 48.3882 8.97301 48.3882C9.63352 48.3882 10.2152 48.2902 10.718 48.0942C11.2209 47.8981 11.6129 47.6105 11.8942 47.2312C12.1797 46.852 12.3224 46.3832 12.3224 45.825C12.3224 45.2497 12.1733 44.7703 11.875 44.3868C11.581 44.0033 11.1804 43.7135 10.6733 43.5175C10.1662 43.3257 9.59943 43.2298 8.97301 43.2298C8.32954 43.2298 7.76491 43.3278 7.27912 43.5239C6.79332 43.7199 6.41406 44.0097 6.14133 44.3932C5.86861 44.781 5.73224 45.2582 5.73224 45.825ZM0.318179 56.2052C0.318179 55.9197 0.341617 55.6597 0.388492 55.4253C0.431105 55.191 0.47798 55.0162 0.529117 54.9012L2.09517 55.3614C2.00142 55.7108 1.96093 56.0219 1.97372 56.2947C1.9865 56.5674 2.08878 56.8081 2.28054 57.017C2.4723 57.23 2.78551 57.4175 3.22017 57.5795L3.87216 57.816L13.8182 54.2236L13.8182 56.2691L6.19886 58.7556L6.19886 58.8579L13.8182 61.3444L13.8182 63.3962L2.68963 59.35C2.17826 59.1625 1.74574 58.9239 1.39204 58.6341C1.03409 58.3444 0.765622 57.9992 0.586645 57.5986C0.407668 57.1981 0.318179 56.7336 0.318179 56.2052ZM4 67.3524L13.8182 67.3524L13.8182 69.2636L4 69.2636L4 67.3524ZM15.3331 68.3176C15.3331 67.9852 15.4439 67.6997 15.6655 67.461C15.8913 67.2267 16.1598 67.1095 16.4709 67.1095C16.7862 67.1095 17.0547 67.2267 17.2763 67.461C17.5021 67.6997 17.6151 67.9852 17.6151 68.3176C17.6151 68.65 17.5021 68.9333 17.2763 69.1677C17.0547 69.4064 16.7862 69.5257 16.4709 69.5257C16.1598 69.5257 15.8913 69.4064 15.6655 69.1677C15.4439 68.9333 15.3331 68.65 15.3331 68.3176ZM9.82954 75.906L4 75.906L4 73.9948L17.0909 73.9948L17.0909 75.8805L12.2202 75.8805L12.2202 76.0019C12.7486 76.232 13.1683 76.5836 13.4794 77.0566C13.7905 77.5296 13.946 78.1475 13.946 78.9103C13.946 79.5836 13.8075 80.1716 13.5305 80.6745C13.2535 81.1816 12.8402 81.5736 12.2905 81.8506C11.745 82.1319 11.0632 82.2725 10.245 82.2725L4 82.2725L4 80.3613L10.0149 80.3613C10.7351 80.3613 11.2933 80.1759 11.6896 79.8052C12.0902 79.4344 12.2905 78.9188 12.2905 78.2583C12.2905 77.8066 12.1946 77.4018 12.0028 77.0438C11.8111 76.6901 11.5298 76.411 11.1591 76.2064C10.7926 76.0062 10.3494 75.906 9.82954 75.906ZM15.3906 93.4144L17.0909 93.4144L17.0909 103.546L15.3906 103.546L15.3906 99.4613L4 99.4613L4 97.4925L15.3906 97.4925L15.3906 93.4144ZM3.80184 110.503C3.80184 109.583 4.01278 108.779 4.43465 108.093C4.85653 107.407 5.44673 106.874 6.20525 106.495C6.96377 106.116 7.85014 105.926 8.86434 105.926C9.88281 105.926 10.7734 106.116 11.5362 106.495C12.299 106.874 12.8913 107.407 13.3132 108.093C13.7351 108.779 13.946 109.583 13.946 110.503C13.946 111.423 13.7351 112.227 13.3132 112.913C12.8913 113.599 12.299 114.132 11.5362 114.511C10.7734 114.89 9.88281 115.08 8.86434 115.08C7.85014 115.08 6.96377 114.89 6.20525 114.511C5.44673 114.132 4.85653 113.599 4.43465 112.913C4.01278 112.227 3.80184 111.423 3.80184 110.503ZM5.40625 110.509C5.40625 111.106 5.56392 111.6 5.87926 111.992C6.1946 112.384 6.61434 112.674 7.13849 112.862C7.66264 113.053 8.24005 113.149 8.87073 113.149C9.49715 113.149 10.0724 113.053 10.5966 112.862C11.125 112.674 11.549 112.384 11.8686 111.992C12.1882 111.6 12.348 111.106 12.348 110.509C12.348 109.909 12.1882 109.41 11.8686 109.014C11.549 108.622 11.125 108.33 10.5966 108.138C10.0724 107.95 9.49715 107.857 8.87073 107.857C8.24005 107.857 7.66264 107.95 7.13849 108.138C6.61434 108.33 6.1946 108.622 5.87926 109.014C5.56392 109.41 5.40625 109.909 5.40625 110.509ZM3.80184 123.509C3.80184 122.588 4.01278 121.785 4.43465 121.099C4.85653 120.413 5.44673 119.88 6.20525 119.501C6.96377 119.122 7.85014 118.932 8.86434 118.932C9.88281 118.932 10.7734 119.122 11.5362 119.501C12.299 119.88 12.8913 120.413 13.3132 121.099C13.7351 121.785 13.946 122.588 13.946 123.509C13.946 124.429 13.7351 125.232 13.3132 125.919C12.8913 126.605 12.299 127.137 11.5362 127.517C10.7734 127.896 9.88281 128.085 8.86434 128.085C7.85014 128.085 6.96377 127.896 6.20525 127.517C5.44673 127.137 4.85653 126.605 4.43465 125.919C4.01278 125.232 3.80184 124.429 3.80184 123.509ZM5.40624 123.515C5.40624 124.112 5.56391 124.606 5.87926 124.998C6.1946 125.39 6.61434 125.68 7.13849 125.867C7.66264 126.059 8.24005 126.155 8.87073 126.155C9.49715 126.155 10.0724 126.059 10.5966 125.867C11.125 125.68 11.549 125.39 11.8686 124.998C12.1882 124.606 12.348 124.112 12.348 123.515C12.348 122.914 12.1882 122.416 11.8686 122.019C11.549 121.627 11.125 121.335 10.5966 121.144C10.0724 120.956 9.49715 120.862 8.87073 120.862C8.24005 120.862 7.66264 120.956 7.13849 121.144C6.61434 121.335 6.1946 121.627 5.87926 122.019C5.56392 122.416 5.40624 122.914 5.40624 123.515ZM17.0909 134.29L3.99999 134.29L3.99999 132.379L17.0909 132.379L17.0909 134.29ZM11.4212 146.378L11.1143 144.646C11.3359 144.574 11.5469 144.459 11.7472 144.301C11.9474 144.148 12.1115 143.939 12.2393 143.675C12.3672 143.41 12.4311 143.08 12.4311 142.684C12.4311 142.143 12.3097 141.691 12.0668 141.329C11.8281 140.967 11.5192 140.785 11.1399 140.785C10.8118 140.785 10.5476 140.907 10.3473 141.15C10.147 141.393 9.98295 141.785 9.85511 142.326L9.49715 143.886C9.28835 144.789 8.96661 145.462 8.53195 145.905C8.09729 146.349 7.53266 146.57 6.83806 146.57C6.24999 146.57 5.72585 146.4 5.26562 146.059C4.80965 145.722 4.4517 145.251 4.19175 144.646C3.93181 144.045 3.80184 143.349 3.80184 142.556C3.80184 141.457 4.03622 140.56 4.50497 139.865C4.97798 139.17 5.64914 138.744 6.51846 138.587L6.79971 140.434C6.31818 140.549 5.95383 140.785 5.70667 141.143C5.46377 141.501 5.34232 141.968 5.34232 142.543C5.34232 143.17 5.47229 143.67 5.73224 144.045C5.99644 144.42 6.31818 144.608 6.69744 144.608C7.00426 144.608 7.26207 144.493 7.47087 144.263C7.67968 144.037 7.83735 143.69 7.94389 143.221L8.30823 141.559C8.51704 140.643 8.84943 139.965 9.30539 139.526C9.76136 139.092 10.3388 138.874 11.0376 138.874C11.6172 138.874 12.1243 139.036 12.5589 139.36C12.9936 139.684 13.3324 140.131 13.5753 140.702C13.8224 141.273 13.946 141.927 13.946 142.665C13.946 143.726 13.7159 144.561 13.2557 145.17C12.7997 145.78 12.1882 146.182 11.4212 146.378ZM3.81462 154.641C3.81462 153.763 3.97443 153.007 4.29403 152.372C4.61363 151.741 5.04829 151.256 5.598 150.915C6.15198 150.574 6.7784 150.403 7.47727 150.403C8.00994 150.403 8.48295 150.514 8.8963 150.736C9.31391 150.957 9.69957 151.266 10.0533 151.663C10.407 152.059 10.7628 152.517 11.1207 153.037L12.6101 155.146C12.8445 155.504 13.0916 155.783 13.3516 155.984C13.6158 156.184 13.9418 156.284 14.3295 156.284C14.6364 156.284 14.9304 156.152 15.2116 155.888C15.4929 155.624 15.6335 155.27 15.6335 154.827C15.6335 154.52 15.5589 154.249 15.4098 154.015C15.2606 153.785 15.0689 153.604 14.8345 153.472C14.6044 153.344 14.3615 153.28 14.1058 153.28C13.8075 153.28 13.5071 153.361 13.2045 153.523C12.902 153.689 12.5888 153.902 12.2649 154.162C11.9453 154.422 11.6129 154.695 11.2677 154.98L3.99999 161.059L3.99999 158.898L9.91264 153.868C10.4112 153.446 10.88 153.054 11.3189 152.692C11.7621 152.329 12.2095 152.035 12.6612 151.81C13.1172 151.588 13.6094 151.477 14.1378 151.477C14.7386 151.477 15.2713 151.614 15.7358 151.886C16.2045 152.163 16.571 152.549 16.8352 153.043C17.0994 153.538 17.2315 154.117 17.2315 154.782C17.2315 155.455 17.0994 156.033 16.8352 156.514C16.5753 157 16.228 157.373 15.7933 157.633C15.3629 157.897 14.892 158.029 14.3807 158.029C13.7585 158.029 13.2088 157.874 12.7315 157.562C12.2585 157.256 11.8239 156.832 11.4276 156.29L9.49076 153.663C9.11576 153.152 8.74502 152.796 8.37854 152.596C8.01633 152.4 7.73295 152.302 7.5284 152.302C7.1534 152.302 6.8061 152.398 6.4865 152.589C6.1669 152.785 5.91121 153.058 5.71945 153.408C5.52769 153.761 5.43181 154.175 5.43181 154.648C5.43181 155.133 5.53621 155.606 5.74502 156.067C5.95809 156.531 6.26278 156.951 6.65908 157.326C7.05539 157.705 7.53053 158.006 8.08451 158.227C8.63849 158.449 9.25852 158.56 9.9446 158.56L9.9446 160.285C9.10085 160.285 8.38707 160.19 7.80326 159.998C7.22371 159.806 6.7507 159.574 6.38423 159.301C6.02201 159.033 5.73863 158.779 5.53408 158.54C5.4659 158.464 5.39772 158.391 5.32954 158.323C5.26136 158.255 5.19317 158.182 5.12499 158.106C4.67755 157.663 4.34729 157.126 4.13423 156.495C3.92116 155.869 3.81462 155.251 3.81462 154.641ZM12.8338 175.742L12.8338 173.748C13.2599 173.671 13.6349 173.529 13.9588 173.32C14.2827 173.111 14.5575 172.855 14.7834 172.553C15.0092 172.25 15.1797 171.912 15.2947 171.537C15.4098 171.166 15.4673 170.772 15.4673 170.354C15.4673 169.6 15.2777 168.924 14.8984 168.328C14.5192 167.735 13.9631 167.267 13.2301 166.921C12.4972 166.581 11.6023 166.41 10.5454 166.41C9.48011 166.41 8.58096 166.581 7.848 166.921C7.11505 167.267 6.56107 167.738 6.18607 168.334C5.81107 168.931 5.62357 169.602 5.62357 170.348C5.62357 170.761 5.67897 171.153 5.78977 171.524C5.90482 171.899 6.07315 172.238 6.29474 172.54C6.51633 172.843 6.78692 173.098 7.10653 173.307C7.43039 173.52 7.80113 173.667 8.21874 173.748L8.21235 175.742C7.56888 175.636 6.97655 175.429 6.43536 175.122C5.89843 174.82 5.43394 174.43 5.0419 173.953C4.65411 173.48 4.35369 172.939 4.14062 172.329C3.92755 171.72 3.82102 171.055 3.82102 170.335C3.82102 169.201 4.08948 168.191 4.62641 167.305C5.16761 166.419 5.94104 165.72 6.94673 165.208C7.95241 164.701 9.15198 164.448 10.5454 164.448C11.9432 164.448 13.1427 164.703 14.1442 165.215C15.1499 165.726 15.9212 166.425 16.4581 167.311C16.9993 168.198 17.2699 169.206 17.2699 170.335C17.2699 171.029 17.1697 171.677 16.9695 172.278C16.7734 172.883 16.4837 173.426 16.1001 173.908C15.7209 174.39 15.2564 174.788 14.7067 175.103C14.1612 175.419 13.5369 175.632 12.8338 175.742ZM8.07172 186.332L13.8182 186.332L13.8182 188.25L3.99999 188.25L3.99999 186.37L5.70028 186.37L5.70028 186.268C5.17613 186.042 4.73934 185.68 4.38991 185.181C4.04474 184.687 3.87215 184.071 3.87215 183.334C3.87215 182.703 4.01065 182.145 4.28763 181.659C4.56888 181.178 4.98437 180.799 5.53408 180.522C6.0838 180.249 6.76349 180.113 7.57315 180.113L13.8182 180.113L13.8182 182.024L7.80326 182.024C7.13423 182.024 6.60155 182.209 6.20525 182.58C5.80894 182.951 5.61079 183.432 5.61079 184.024C5.61079 184.382 5.70028 184.738 5.87925 185.092C6.05823 185.45 6.32883 185.746 6.69104 185.98C7.05326 186.219 7.51349 186.336 8.07172 186.332ZM13.8182 197.561L12.2841 197.561L12.2841 192.198L13.8182 192.198L13.8182 197.561ZM16.1704 193.636L16.1704 195.547L6.8828 195.547C6.51207 195.547 6.23295 195.603 6.04545 195.713C5.86221 195.824 5.7365 195.967 5.66832 196.142C5.60439 196.321 5.57243 196.515 5.57243 196.723C5.57243 196.877 5.58309 197.011 5.60439 197.126C5.6257 197.241 5.64275 197.331 5.65553 197.395L4.0767 197.74C4.03408 197.629 3.99147 197.471 3.94885 197.267C3.90198 197.062 3.87641 196.806 3.87215 196.5C3.86363 195.997 3.95312 195.528 4.14062 195.093C4.32812 194.659 4.61789 194.307 5.00993 194.039C5.40198 193.77 5.89417 193.636 6.4865 193.636L16.1704 193.636ZM13.8182 206.418L12.2841 206.418L12.2841 201.055L13.8182 201.055L13.8182 206.418ZM16.1704 202.493L16.1704 204.404L6.8828 204.404C6.51207 204.404 6.23295 204.46 6.04545 204.571C5.86221 204.681 5.7365 204.824 5.66831 204.999C5.60439 205.178 5.57243 205.372 5.57243 205.581C5.57243 205.734 5.58309 205.868 5.60439 205.983C5.6257 206.098 5.64275 206.188 5.65553 206.252L4.0767 206.597C4.03408 206.486 3.99147 206.328 3.94885 206.124C3.90198 205.919 3.87641 205.664 3.87215 205.357C3.86363 204.854 3.95312 204.385 4.14062 203.951C4.32812 203.516 4.61789 203.164 5.00993 202.896C5.40198 202.627 5.89417 202.493 6.4865 202.493L16.1704 202.493ZM3.80184 214.818C3.80184 213.851 4.00851 213.018 4.42187 212.319C4.83948 211.624 5.42542 211.087 6.17968 210.708C6.9382 210.333 7.8267 210.146 8.84516 210.146C9.85084 210.146 10.7372 210.333 11.5043 210.708C12.2713 211.087 12.87 211.616 13.3004 212.293C13.7308 212.975 13.946 213.772 13.946 214.684C13.946 215.238 13.8544 215.775 13.6712 216.295C13.4879 216.815 13.2003 217.281 12.8082 217.695C12.4162 218.108 11.907 218.434 11.2805 218.673C10.6584 218.911 9.90198 219.031 9.01135 219.031L8.3338 219.031L8.3338 211.226L9.76562 211.226L9.76562 217.158C10.2685 217.158 10.7138 217.055 11.1016 216.851C11.4936 216.646 11.8025 216.359 12.0284 215.988C12.2543 215.621 12.3672 215.191 12.3672 214.697C12.3672 214.16 12.2351 213.691 11.9709 213.291C11.7109 212.894 11.37 212.587 10.9481 212.37C10.5305 212.157 10.0767 212.05 9.58664 212.05L8.46803 212.05C7.81178 212.05 7.25354 212.166 6.79331 212.396C6.33309 212.63 5.98152 212.956 5.73863 213.374C5.49999 213.791 5.38067 214.279 5.38067 214.837C5.38067 215.2 5.43181 215.53 5.53408 215.828C5.64062 216.126 5.79829 216.384 6.00709 216.602C6.2159 216.819 6.47371 216.985 6.78053 217.1L6.45454 218.909C5.92187 218.764 5.45525 218.504 5.05468 218.129C4.65837 217.759 4.34942 217.292 4.12783 216.729C3.9105 216.171 3.80184 215.534 3.80184 214.818ZM3.99999 223.311L13.8182 223.311L13.8182 225.158L12.2585 225.158L12.2585 225.261C12.7869 225.44 13.2024 225.755 13.505 226.207C13.8118 226.663 13.9652 227.178 13.9652 227.754C13.9652 227.873 13.9609 228.014 13.9524 228.175C13.9439 228.342 13.9332 228.472 13.9204 228.565L12.0923 228.565C12.1136 228.489 12.1371 228.352 12.1626 228.156C12.1925 227.96 12.2074 227.764 12.2074 227.568C12.2074 227.117 12.1115 226.714 11.9197 226.36C11.7322 226.011 11.4702 225.734 11.1335 225.529C10.8011 225.325 10.4219 225.222 9.99573 225.222L3.99999 225.222L3.99999 223.311ZM11.4212 239.737L11.1143 238.004C11.3359 237.932 11.5469 237.817 11.7471 237.659C11.9474 237.506 12.1115 237.297 12.2393 237.033C12.3672 236.769 12.4311 236.438 12.4311 236.042C12.4311 235.501 12.3096 235.049 12.0668 234.687C11.8281 234.325 11.5192 234.144 11.1399 234.144C10.8118 234.144 10.5476 234.265 10.3473 234.508C10.147 234.751 9.98294 235.143 9.8551 235.684L9.49715 237.244C9.28834 238.147 8.96661 238.82 8.53195 239.264C8.09729 239.707 7.53266 239.928 6.83806 239.928C6.24999 239.928 5.72584 239.758 5.26561 239.417C4.80965 239.08 4.45169 238.609 4.19175 238.004C3.93181 237.403 3.80184 236.707 3.80184 235.914C3.80184 234.815 4.03621 233.918 4.50496 233.223C4.97797 232.528 5.64914 232.102 6.51846 231.945L6.79971 233.792C6.31817 233.907 5.95383 234.144 5.70667 234.501C5.46377 234.859 5.34232 235.326 5.34232 235.901C5.34232 236.528 5.47229 237.028 5.73223 237.403C5.99644 237.778 6.31817 237.966 6.69743 237.966C7.00425 237.966 7.26206 237.851 7.47087 237.621C7.67968 237.395 7.83735 237.048 7.94388 236.579L8.30823 234.917C8.51704 234.001 8.84942 233.323 9.30539 232.884C9.76135 232.45 10.3388 232.232 11.0376 232.232C11.6172 232.232 12.1243 232.394 12.5589 232.718C12.9936 233.042 13.3324 233.489 13.5753 234.06C13.8224 234.631 13.946 235.286 13.946 236.023C13.946 237.084 13.7159 237.919 13.2557 238.528C12.7997 239.138 12.1882 239.541 11.4212 239.737ZM3.99999 251.267L17.0909 251.267L17.0909 259.385L15.3906 259.385L15.3906 253.242L11.402 253.242L11.402 258.803L9.70809 258.803L9.70809 253.242L3.99999 253.242L3.99999 251.267ZM3.78266 266.642C3.78266 266.02 3.89772 265.458 4.12783 264.955C4.3622 264.452 4.70098 264.054 5.14416 263.76C5.58735 263.47 6.13067 263.325 6.77414 263.325C7.32811 263.325 7.78408 263.431 8.14203 263.644C8.49999 263.858 8.78337 264.145 8.99218 264.507C9.20098 264.87 9.35865 265.274 9.46519 265.722C9.57172 266.169 9.65269 266.625 9.70809 267.09C9.77627 267.678 9.83166 268.155 9.87428 268.522C9.92115 268.888 9.99573 269.154 10.098 269.321C10.2003 269.487 10.3665 269.57 10.5966 269.57L10.6413 269.57C11.1996 269.57 11.6321 269.412 11.9389 269.097C12.2457 268.786 12.3991 268.321 12.3991 267.703C12.3991 267.06 12.2564 266.553 11.9709 266.182C11.6896 265.816 11.3764 265.562 11.0312 265.421L11.4403 263.625C12.0369 263.838 12.5185 264.149 12.8849 264.559C13.2557 264.972 13.5241 265.447 13.6903 265.984C13.8608 266.521 13.946 267.086 13.946 267.678C13.946 268.07 13.8991 268.485 13.8054 268.924C13.7159 269.367 13.5497 269.781 13.3068 270.164C13.0639 270.552 12.7166 270.87 12.2649 271.117C11.8175 271.364 11.2358 271.488 10.5199 271.488L3.99999 271.488L3.99999 269.621L5.34232 269.621L5.34232 269.544C5.09516 269.421 4.85226 269.235 4.61362 268.988C4.37499 268.741 4.17683 268.424 4.01916 268.036C3.86149 267.648 3.78266 267.184 3.78266 266.642ZM5.31675 267.058C5.31675 267.586 5.42115 268.038 5.62996 268.413C5.83877 268.792 6.11149 269.08 6.44814 269.276C6.78905 269.476 7.1534 269.576 7.54118 269.576L8.80681 269.576C8.73862 269.508 8.6747 269.376 8.61505 269.18C8.55965 268.988 8.51064 268.769 8.46803 268.522C8.42968 268.274 8.39345 268.034 8.35936 267.799C8.32953 267.565 8.30397 267.369 8.28266 267.211C8.23578 266.841 8.15695 266.502 8.04615 266.195C7.93536 265.892 7.77556 265.649 7.56675 265.466C7.3622 265.287 7.08948 265.198 6.74857 265.198C6.27556 265.198 5.9176 265.372 5.6747 265.722C5.43607 266.071 5.31675 266.517 5.31675 267.058ZM3.80183 280.329C3.80183 279.379 4.01703 278.56 4.44743 277.874C4.88209 277.192 5.48081 276.668 6.2436 276.302C7.00638 275.935 7.87996 275.752 8.86433 275.752C9.86149 275.752 10.7415 275.94 11.5042 276.315C12.2713 276.69 12.87 277.218 13.3004 277.9C13.7308 278.582 13.946 279.385 13.946 280.31C13.946 281.055 13.8075 281.72 13.5305 282.304C13.2578 282.888 12.8743 283.359 12.38 283.717C11.8856 284.079 11.3082 284.294 10.6477 284.362L10.6477 282.502C11.1079 282.4 11.5042 282.165 11.8366 281.799C12.169 281.437 12.3352 280.951 12.3352 280.342C12.3352 279.809 12.1946 279.342 11.9133 278.942C11.6364 278.545 11.24 278.236 10.7244 278.015C10.2131 277.793 9.60794 277.683 8.90908 277.683C8.19317 277.683 7.57527 277.791 7.05539 278.008C6.5355 278.226 6.1328 278.533 5.84729 278.929C5.56178 279.33 5.41902 279.8 5.41902 280.342C5.41902 280.704 5.48507 281.032 5.61718 281.326C5.75354 281.624 5.94743 281.874 6.19885 282.074C6.45027 282.278 6.75283 282.421 7.10652 282.502L7.10652 284.362C6.47158 284.294 5.90482 284.087 5.40624 283.742C4.90766 283.397 4.51561 282.935 4.2301 282.355C3.94459 281.78 3.80183 281.104 3.80183 280.329ZM13.8182 293.149L12.2841 293.149L12.2841 287.786L13.8182 287.786L13.8182 293.149ZM16.1704 289.224L16.1704 291.136L6.8828 291.136C6.51206 291.136 6.23294 291.191 6.04544 291.302C5.8622 291.413 5.73649 291.555 5.66831 291.73C5.60439 291.909 5.57243 292.103 5.57243 292.312C5.57243 292.465 5.58308 292.599 5.60439 292.714C5.6257 292.83 5.64274 292.919 5.65553 292.983L4.07669 293.328C4.03408 293.217 3.99146 293.06 3.94885 292.855C3.90198 292.651 3.87641 292.395 3.87215 292.088C3.86362 291.585 3.95311 291.116 4.14061 290.682C4.32811 290.247 4.61789 289.896 5.00993 289.627C5.40198 289.359 5.89416 289.224 6.48649 289.224L16.1704 289.224ZM3.80183 301.454C3.80183 300.533 4.01277 299.73 4.43465 299.044C4.85652 298.358 5.44672 297.825 6.20524 297.446C6.96377 297.066 7.85013 296.877 8.86433 296.877C9.8828 296.877 10.7734 297.066 11.5362 297.446C12.299 297.825 12.8913 298.358 13.3132 299.044C13.7351 299.73 13.946 300.533 13.946 301.454C13.946 302.374 13.7351 303.177 13.3132 303.863C12.8913 304.549 12.299 305.082 11.5362 305.461C10.7734 305.841 9.8828 306.03 8.86433 306.03C7.85013 306.03 6.96377 305.841 6.20524 305.461C5.44672 305.082 4.85652 304.549 4.43465 303.863C4.01277 303.177 3.80183 302.374 3.80183 301.454ZM5.40624 301.46C5.40624 302.056 5.56391 302.551 5.87925 302.943C6.19459 303.335 6.61433 303.625 7.13848 303.812C7.66263 304.004 8.24004 304.1 8.87073 304.1C9.49715 304.1 10.0724 304.004 10.5966 303.812C11.125 303.625 11.549 303.335 11.8686 302.943C12.1882 302.551 12.348 302.056 12.348 301.46C12.348 300.859 12.1882 300.36 11.8686 299.964C11.549 299.572 11.125 299.28 10.5966 299.088C10.0724 298.901 9.49715 298.807 8.87073 298.807C8.24004 298.807 7.66263 298.901 7.13848 299.088C6.61433 299.28 6.19459 299.572 5.87925 299.964C5.56391 300.36 5.40624 300.859 5.40624 301.46ZM3.99999 310.324L13.8182 310.324L13.8182 312.171L12.2585 312.171L12.2585 312.273C12.7869 312.452 13.2024 312.767 13.505 313.219C13.8118 313.675 13.9652 314.191 13.9652 314.766C13.9652 314.885 13.9609 315.026 13.9524 315.188C13.9439 315.354 13.9332 315.484 13.9204 315.578L12.0923 315.578C12.1136 315.501 12.1371 315.365 12.1626 315.169C12.1925 314.973 12.2074 314.777 12.2074 314.581C12.2074 314.129 12.1115 313.726 11.9197 313.373C11.7322 313.023 11.4702 312.746 11.1335 312.542C10.8011 312.337 10.4219 312.235 9.99572 312.235L3.99999 312.235L3.99999 310.324ZM0.318168 320.899C0.318168 320.613 0.341605 320.353 0.38848 320.119C0.431094 319.884 0.477969 319.71 0.529105 319.595L2.09516 320.055C2.00141 320.404 1.96092 320.715 1.97371 320.988C1.98649 321.261 2.08876 321.502 2.28053 321.71C2.47229 321.924 2.7855 322.111 3.22016 322.273L3.87214 322.509L13.8182 318.917L13.8182 320.963L6.19885 323.449L6.19885 323.551L13.8182 326.038L13.8182 328.09L2.68962 324.044C2.17825 323.856 1.74572 323.617 1.39203 323.328C1.03408 323.038 0.765611 322.693 0.586633 322.292C0.407656 321.892 0.318167 321.427 0.318168 320.899ZM3.87854 332.69C3.87854 332.34 4.00212 332.04 4.24928 331.789C4.5007 331.537 4.80325 331.411 5.15695 331.411C5.50638 331.411 5.80467 331.537 6.05183 331.789C6.30325 332.04 6.42896 332.34 6.42896 332.69C6.42896 333.039 6.30325 333.34 6.05183 333.591C5.80467 333.843 5.50638 333.968 5.15695 333.968C4.92257 333.968 4.70737 333.909 4.51135 333.789C4.31959 333.674 4.16618 333.521 4.05112 333.329C3.93606 333.137 3.87854 332.924 3.87854 332.69Z" fill="#BA181B"/>
</svg>
