<svg width="18" height="349" viewBox="0 0 18 349" fill="none" xmlns="http://www.w3.org/2000/svg">
<path d="M4 0.0994311L5.31676 0.0994311L15.3906 6.98366L15.3906 0.0419031L17.0909 0.0419032L17.0909 9.39986L15.7741 9.39986L5.70028 2.51562L5.70028 9.45739L4 9.45739L4 0.0994311ZM4 14.0943L17.0909 14.0943L17.0909 16.0694L11.402 16.0694L11.402 22.5957L17.0909 22.5957L17.0909 24.5773L4 24.5773L4 22.5957L9.7081 22.5957L9.7081 16.0694L4 16.0694L4 14.0943ZM4 30.7195L4 28.6229L17.0909 33.3338L17.0909 35.6158L4 40.3267L4 38.2302L14.7131 34.5292L14.7131 34.4269L4 30.7195ZM9.12642 31.0711L9.12642 37.8722L7.46449 37.8722L7.46449 31.0711L9.12642 31.0711ZM17.0909 54.9432L4 54.9432L4 53.1279L13.6009 46.4738L13.6009 46.3523L4 46.3523L4 44.3772L17.0909 44.3772L17.0909 46.2053L7.47727 52.8658L7.47727 52.9873L17.0909 52.9873L17.0909 54.9432ZM17.0909 65.8982L17.0909 68.1418L11.1399 71.5615L11.1399 71.7022L17.0909 75.1219L17.0909 77.3655L9.1392 72.6162L4 72.6162L4 70.6475L9.1392 70.6475L17.0909 65.8982ZM4 81.1603L4 79.0637L17.0909 83.7746L17.0909 86.0566L4 90.7675L4 88.6709L14.7131 84.9699L14.7131 84.8677L4 81.1603ZM9.12642 81.5118L9.12642 88.313L7.46448 88.313L7.46449 81.5118L9.12642 81.5118ZM17.0909 105.384L4 105.384L4 103.569L13.6008 96.9146L13.6008 96.7931L4 96.7931L4 94.818L17.0909 94.818L17.0909 96.6461L7.47727 103.307L7.47727 103.428L17.0909 103.428L17.0909 105.384ZM12.9553 119.285C13.343 119.161 13.6903 118.995 13.9972 118.786C14.3082 118.581 14.5724 118.336 14.7898 118.051C15.0114 117.765 15.1797 117.439 15.2947 117.073C15.4098 116.711 15.4673 116.312 15.4673 115.878C15.4673 115.14 15.2777 114.476 14.8984 113.883C14.5192 113.291 13.9631 112.822 13.2301 112.477C12.5014 112.136 11.6087 111.966 10.5518 111.966C9.49076 111.966 8.59375 112.138 7.86079 112.483C7.12784 112.829 6.57173 113.302 6.19247 113.903C5.81321 114.503 5.62357 115.187 5.62357 115.954C5.62357 116.666 5.76846 117.286 6.05823 117.814C6.34801 118.347 6.7571 118.758 7.28551 119.048C7.81818 119.342 8.4446 119.489 9.16477 119.489L9.06889 120.001L9.06889 116.255L10.6989 116.255L10.6989 121.4L9.20951 121.4C8.11008 121.4 7.15553 121.166 6.34588 120.697C5.54048 120.233 4.91832 119.589 4.4794 118.767C4.04048 117.949 3.82102 117.011 3.82102 115.954C3.82102 114.77 4.09374 113.73 4.6392 112.835C5.18465 111.944 5.95809 111.25 6.95951 110.751C7.96519 110.253 9.15838 110.003 10.5391 110.003C11.5831 110.003 12.5206 110.148 13.3516 110.438C14.1825 110.728 14.8878 111.135 15.4673 111.659C16.0511 112.187 16.4964 112.807 16.8033 113.519C17.1143 114.235 17.2699 115.017 17.2699 115.865C17.2699 116.572 17.1655 117.231 16.9567 117.84C16.7479 118.454 16.4517 118.999 16.0682 119.476C15.6847 119.958 15.2287 120.356 14.7003 120.672C14.1761 120.987 13.5945 121.2 12.9553 121.311L12.9553 119.285ZM3.99999 132.991L17.0909 132.991L17.0909 137.658C17.0909 138.676 16.9055 139.52 16.5348 140.189C16.1641 140.858 15.657 141.359 15.0135 141.691C14.3743 142.023 13.6541 142.189 12.853 142.189C12.0476 142.189 11.3231 142.021 10.6797 141.685C10.0405 141.352 9.53337 140.849 9.15837 140.176C8.78764 139.507 8.60227 138.665 8.60227 137.651L8.60227 134.442L10.277 134.442L10.277 137.472C10.277 138.116 10.3878 138.638 10.6094 139.038C10.8352 139.439 11.142 139.733 11.5298 139.92C11.9176 140.108 12.3587 140.202 12.853 140.202C13.3473 140.202 13.7862 140.108 14.1697 139.92C14.5533 139.733 14.8537 139.437 15.071 139.032C15.2883 138.631 15.397 138.103 15.397 137.447L15.397 134.966L3.99999 134.966L3.99999 132.991ZM3.99999 146.665L17.0909 146.665L17.0909 151.331C17.0909 152.345 16.9162 153.187 16.5668 153.856C16.2173 154.529 15.7337 155.032 15.1158 155.365C14.5021 155.697 13.7926 155.863 12.9872 155.863C12.1861 155.863 11.4808 155.695 10.8714 155.358C10.2663 155.026 9.79545 154.523 9.4588 153.85C9.12215 153.181 8.95383 152.339 8.95383 151.325L8.95383 147.79L10.6541 147.79L10.6541 151.146C10.6541 151.785 10.7457 152.305 10.929 152.705C11.1122 153.11 11.3785 153.406 11.728 153.594C12.0774 153.781 12.4972 153.875 12.9872 153.875C13.4815 153.875 13.9098 153.779 14.272 153.588C14.6342 153.4 14.9112 153.104 15.103 152.699C15.299 152.299 15.397 151.772 15.397 151.12L15.397 148.64L3.99999 148.64L3.99999 146.665ZM9.90624 153.127L3.99999 156.362L3.99999 154.112L9.90624 150.941L9.90624 153.127ZM3.99999 160.427L17.0909 160.427L17.0909 168.634L15.3906 168.634L15.3906 162.402L11.402 162.402L11.402 168.206L9.70809 168.206L9.70809 162.402L5.70028 162.402L5.70028 168.711L3.99999 168.711L3.99999 160.427ZM12.8338 184.305L12.8338 182.311C13.2599 182.234 13.6349 182.091 13.9588 181.883C14.2827 181.674 14.5575 181.418 14.7834 181.116C15.0092 180.813 15.1797 180.474 15.2947 180.099C15.4098 179.728 15.4673 179.334 15.4673 178.917C15.4673 178.162 15.2777 177.487 14.8984 176.89C14.5192 176.298 13.9631 175.829 13.2301 175.484C12.4972 175.143 11.6023 174.973 10.5454 174.973C9.48011 174.973 8.58096 175.143 7.848 175.484C7.11505 175.829 6.56107 176.3 6.18607 176.897C5.81107 177.493 5.62357 178.165 5.62357 178.91C5.62357 179.324 5.67897 179.716 5.78976 180.086C5.90482 180.461 6.07315 180.8 6.29474 181.103C6.51633 181.405 6.78692 181.661 7.10653 181.87C7.43039 182.083 7.80113 182.23 8.21874 182.311L8.21235 184.305C7.56888 184.199 6.97655 183.992 6.43536 183.685C5.89843 183.383 5.43394 182.993 5.0419 182.515C4.65411 182.042 4.35369 181.501 4.14062 180.892C3.92755 180.282 3.82101 179.618 3.82101 178.897C3.82101 177.764 4.08948 176.754 4.62641 175.868C5.16761 174.981 5.94104 174.282 6.94673 173.771C7.95241 173.264 9.15198 173.01 10.5454 173.01C11.9432 173.01 13.1427 173.266 14.1442 173.777C15.1499 174.289 15.9212 174.988 16.4581 175.874C16.9993 176.76 17.2699 177.768 17.2699 178.897C17.2699 179.592 17.1697 180.24 16.9695 180.841C16.7734 181.446 16.4837 181.989 16.1001 182.471C15.7209 182.952 15.2564 183.351 14.7067 183.666C14.1612 183.981 13.5369 184.194 12.8338 184.305ZM17.0909 190.804L3.99999 190.804L3.99999 188.829L17.0909 188.829L17.0909 190.804ZM13.652 202.98C14.2571 202.912 14.7258 202.631 15.0582 202.136C15.3949 201.642 15.5632 201.02 15.5632 200.27C15.5632 199.733 15.478 199.268 15.3075 198.876C15.1413 198.484 14.9112 198.18 14.6172 197.962C14.3274 197.749 13.9972 197.643 13.6264 197.643C13.3153 197.643 13.0469 197.715 12.821 197.86C12.5952 198.009 12.4055 198.203 12.2521 198.442C12.103 198.685 11.9773 198.945 11.875 199.222C11.777 199.499 11.696 199.765 11.6321 200.021L11.2997 201.299C11.1974 201.717 11.0589 202.145 10.8842 202.584C10.7095 203.023 10.4794 203.43 10.1939 203.805C9.90837 204.18 9.55468 204.482 9.1328 204.712C8.71093 204.947 8.20596 205.064 7.61789 205.064C6.87641 205.064 6.21803 204.872 5.64275 204.489C5.06746 204.109 4.61363 203.557 4.28124 202.833C3.94885 202.113 3.78266 201.241 3.78266 200.219C3.78266 199.239 3.9382 198.391 4.24928 197.675C4.56036 196.959 5.00141 196.398 5.57243 195.994C6.14772 195.589 6.82954 195.365 7.61789 195.322L7.61789 197.304C7.14488 197.342 6.7507 197.496 6.43536 197.764C6.12428 198.037 5.89204 198.384 5.73863 198.806C5.58948 199.232 5.51491 199.699 5.51491 200.206C5.51491 200.764 5.60226 201.261 5.77698 201.695C5.95596 202.134 6.20312 202.479 6.51846 202.731C6.83806 202.982 7.21093 203.108 7.63707 203.108C8.02485 203.108 8.34232 202.997 8.58948 202.776C8.83664 202.558 9.04118 202.262 9.20312 201.887C9.36505 201.516 9.5078 201.097 9.63138 200.628L10.0533 199.081C10.3388 198.033 10.7585 197.202 11.3125 196.588C11.8665 195.979 12.5994 195.674 13.5114 195.674C14.2656 195.674 14.924 195.879 15.4865 196.288C16.049 196.697 16.4858 197.251 16.7969 197.95C17.1122 198.648 17.2699 199.437 17.2699 200.315C17.2699 201.201 17.1143 201.983 16.8033 202.66C16.4922 203.342 16.0639 203.879 15.5185 204.271C14.9773 204.663 14.3551 204.868 13.652 204.885L13.652 202.98ZM17.0909 211.559L3.99999 211.559L3.99999 209.584L17.0909 209.584L17.0909 211.559ZM10.5454 227.967C9.14772 227.967 7.94601 227.711 6.94033 227.2C5.93891 226.689 5.1676 225.988 4.62641 225.097C4.08948 224.211 3.82101 223.203 3.82101 222.074C3.82101 220.94 4.08948 219.928 4.62641 219.037C5.1676 218.151 5.94104 217.452 6.94672 216.941C7.95241 216.43 9.15198 216.174 10.5454 216.174C11.9432 216.174 13.1427 216.43 14.1442 216.941C15.1498 217.452 15.9212 218.151 16.4581 219.037C16.9993 219.928 17.2699 220.94 17.2699 222.074C17.2699 223.203 16.9993 224.211 16.4581 225.097C15.9212 225.988 15.1498 226.689 14.1442 227.2C13.1427 227.711 11.9432 227.967 10.5454 227.967ZM10.5454 226.011C11.6108 226.011 12.5078 225.839 13.2365 225.493C13.9695 225.153 14.5234 224.684 14.8984 224.087C15.2777 223.495 15.4673 222.824 15.4673 222.074C15.4673 221.319 15.2777 220.646 14.8984 220.054C14.5234 219.461 13.9695 218.993 13.2365 218.648C12.5078 218.307 11.6108 218.136 10.5454 218.136C9.4801 218.136 8.58096 218.307 7.848 218.648C7.11931 218.993 6.56533 219.461 6.18607 220.054C5.81107 220.646 5.62357 221.319 5.62357 222.074C5.62357 222.824 5.81107 223.495 6.18607 224.087C6.56533 224.684 7.11931 225.153 7.848 225.493C8.58096 225.839 9.4801 226.011 10.5454 226.011ZM17.0909 243.156L3.99999 243.156L3.99999 241.34L13.6008 234.686L13.6008 234.565L3.99999 234.565L3.99999 232.59L17.0909 232.59L17.0909 234.418L7.47726 241.078L7.47726 241.2L17.0909 241.2L17.0909 243.156ZM12.8338 265.993L12.8338 263.999C13.2599 263.922 13.6349 263.78 13.9588 263.571C14.2827 263.362 14.5575 263.106 14.7834 262.804C15.0092 262.501 15.1797 262.163 15.2947 261.788C15.4098 261.417 15.4673 261.023 15.4673 260.605C15.4673 259.851 15.2777 259.175 14.8984 258.579C14.5192 257.986 13.9631 257.518 13.2301 257.172C12.4971 256.832 11.6023 256.661 10.5454 256.661C9.4801 256.661 8.58095 256.832 7.848 257.172C7.11505 257.518 6.56107 257.989 6.18607 258.585C5.81107 259.182 5.62357 259.853 5.62357 260.599C5.62357 261.012 5.67897 261.404 5.78976 261.775C5.90482 262.15 6.07314 262.489 6.29473 262.791C6.51632 263.094 6.78692 263.349 7.10652 263.558C7.43039 263.771 7.80112 263.918 8.21874 263.999L8.21235 265.993C7.56888 265.887 6.97655 265.68 6.43536 265.373C5.89843 265.071 5.43394 264.681 5.04189 264.204C4.65411 263.731 4.35368 263.19 4.14061 262.58C3.92755 261.971 3.82101 261.306 3.82101 260.586C3.82101 259.452 4.08948 258.442 4.62641 257.556C5.1676 256.67 5.94104 255.971 6.94672 255.459C7.9524 254.952 9.15198 254.699 10.5454 254.699C11.9432 254.699 13.1427 254.954 14.1442 255.466C15.1498 255.977 15.9212 256.676 16.4581 257.562C16.9993 258.449 17.2699 259.457 17.2699 260.586C17.2699 261.28 17.1697 261.928 16.9694 262.529C16.7734 263.134 16.4837 263.677 16.1001 264.159C15.7209 264.641 15.2564 265.039 14.7067 265.354C14.1612 265.67 13.5369 265.883 12.8338 265.993ZM10.5454 281.888C9.14772 281.888 7.94601 281.633 6.94033 281.121C5.93891 280.61 5.1676 279.909 4.62641 279.018C4.08948 278.132 3.82101 277.124 3.82101 275.995C3.82101 274.861 4.08948 273.849 4.62641 272.959C5.1676 272.072 5.94104 271.374 6.94672 270.862C7.9524 270.351 9.15198 270.095 10.5454 270.095C11.9432 270.095 13.1427 270.351 14.1442 270.862C15.1498 271.374 15.9212 272.072 16.4581 272.959C16.9993 273.849 17.2699 274.861 17.2699 275.995C17.2699 277.124 16.9993 278.132 16.4581 279.018C15.9212 279.909 15.1498 280.61 14.1442 281.121C13.1427 281.633 11.9432 281.888 10.5454 281.888ZM10.5454 279.932C11.6108 279.932 12.5078 279.76 13.2365 279.415C13.9694 279.074 14.5234 278.605 14.8984 278.008C15.2777 277.416 15.4673 276.745 15.4673 275.995C15.4673 275.241 15.2777 274.567 14.8984 273.975C14.5234 273.383 13.9694 272.914 13.2365 272.569C12.5078 272.228 11.6108 272.057 10.5454 272.057C9.4801 272.057 8.58095 272.228 7.848 272.569C7.11931 272.914 6.56533 273.383 6.18607 273.975C5.81107 274.567 5.62357 275.241 5.62357 275.995C5.62357 276.745 5.81107 277.416 6.18607 278.008C6.56533 278.605 7.11931 279.074 7.848 279.415C8.58095 279.76 9.4801 279.932 10.5454 279.932ZM3.87854 286.791C3.87854 286.441 4.00212 286.141 4.24928 285.889C4.5007 285.638 4.80325 285.512 5.15695 285.512C5.50638 285.512 5.80468 285.638 6.05183 285.889C6.30325 286.141 6.42896 286.441 6.42896 286.791C6.42896 287.14 6.30325 287.44 6.05183 287.692C5.80467 287.943 5.50638 288.069 5.15695 288.069C4.92257 288.069 4.70737 288.009 4.51135 287.89C4.31959 287.775 4.16618 287.622 4.05112 287.43C3.93607 287.238 3.87854 287.025 3.87854 286.791ZM5.78976 295.276L5.09303 295.18C4.58166 295.116 4.04899 295.007 3.49502 294.854C2.93678 294.704 2.41902 294.549 1.94175 294.387C1.46448 294.229 1.08521 294.099 0.803964 293.997L0.803964 292.642C1.06817 292.697 1.42612 292.774 1.87783 292.872C2.32527 292.97 2.82598 293.066 3.37996 293.16C3.93394 293.254 4.49857 293.324 5.07385 293.371L5.78976 293.435L5.78976 295.276ZM3.99999 307.001L17.0909 307.001L17.0909 308.976L5.70027 308.976L5.70027 314.908L3.99999 314.908L3.99999 307.001ZM15.3906 316.97L17.0909 316.97L17.0909 327.102L15.3906 327.102L15.3906 323.017L3.99999 323.017L3.99999 321.048L15.3906 321.048L15.3906 316.97ZM3.99999 335.738L3.99999 331.5L17.0909 331.5L17.0909 335.873C17.0909 337.155 16.8288 338.257 16.3047 339.177C15.7848 340.098 15.0369 340.803 14.0611 341.293C13.0895 341.787 11.924 342.034 10.5646 342.034C9.20098 342.034 8.0291 341.785 7.04899 341.287C6.06888 340.792 5.31462 340.076 4.78621 339.139C4.26206 338.201 3.99999 337.068 3.99999 335.738ZM5.72584 333.476L5.72584 335.63C5.72584 336.627 5.91334 337.456 6.28834 338.116C6.6676 338.777 7.21518 339.271 7.93109 339.599C8.65126 339.927 9.5291 340.091 10.5646 340.091C11.5916 340.091 12.4631 339.927 13.179 339.599C13.8949 339.275 14.4382 338.792 14.8089 338.148C15.1797 337.505 15.365 336.706 15.365 335.751L15.365 333.476L5.72584 333.476ZM3.87854 346.93C3.87854 346.581 4.00212 346.28 4.24927 346.029C4.5007 345.778 4.80325 345.652 5.15695 345.652C5.50638 345.652 5.80467 345.778 6.05183 346.029C6.30325 346.28 6.42896 346.581 6.42896 346.93C6.42896 347.28 6.30325 347.58 6.05183 347.832C5.80467 348.083 5.50638 348.209 5.15694 348.209C4.92257 348.209 4.70737 348.149 4.51135 348.03C4.31959 347.915 4.16618 347.761 4.05112 347.569C3.93606 347.378 3.87854 347.165 3.87854 346.93Z" fill="#BA181B"/>
</svg>
