<svg width="24" height="24" viewBox="0 0 24 24" fill="none" xmlns="http://www.w3.org/2000/svg">
<path d="M7.83333 2C7.17029 2 6.53441 2.26339 6.06557 2.73223C5.59672 3.20107 5.33333 3.83696 5.33333 4.5V8.66667C4.44928 8.66667 3.60143 9.01786 2.97631 9.64298C2.35119 10.2681 2 11.1159 2 12V19.5C2 20.163 2.26339 20.7989 2.73223 21.2678C3.20107 21.7366 3.83696 22 4.5 22H14.5C13.9579 21.2794 13.6653 20.4018 13.6667 19.5V11.1667C13.6667 10.2283 13.9767 9.36333 14.5 8.66667H7V4.5C7 4.27899 7.0878 4.06702 7.24408 3.91074C7.40036 3.75446 7.61232 3.66667 7.83333 3.66667H16.1667C16.3877 3.66667 16.5996 3.75446 16.7559 3.91074C16.9122 4.06702 17 4.27899 17 4.5V7.08333C17.27 7.02833 17.5483 7 17.8333 7H18.6667V4.5C18.6667 3.83696 18.4033 3.20107 17.9344 2.73223C17.4656 2.26339 16.8297 2 16.1667 2H7.83333ZM6.16667 13.6667C5.94565 13.6667 5.73369 13.5789 5.57741 13.4226C5.42113 13.2663 5.33333 13.0543 5.33333 12.8333C5.33333 12.6123 5.42113 12.4004 5.57741 12.2441C5.73369 12.0878 5.94565 12 6.16667 12C6.38768 12 6.59964 12.0878 6.75592 12.2441C6.9122 12.4004 7 12.6123 7 12.8333C7 13.0543 6.9122 13.2663 6.75592 13.4226C6.59964 13.5789 6.38768 13.6667 6.16667 13.6667ZM6.16667 17C5.94565 17 5.73369 16.9122 5.57741 16.7559C5.42113 16.5996 5.33333 16.3877 5.33333 16.1667C5.33333 15.9457 5.42113 15.7337 5.57741 15.5774C5.73369 15.4211 5.94565 15.3333 6.16667 15.3333C6.38768 15.3333 6.59964 15.4211 6.75592 15.5774C6.9122 15.7337 7 15.9457 7 16.1667C7 16.3877 6.9122 16.5996 6.75592 16.7559C6.59964 16.9122 6.38768 17 6.16667 17ZM10.3333 12.8333C10.3333 13.0543 10.2455 13.2663 10.0893 13.4226C9.93297 13.5789 9.72101 13.6667 9.5 13.6667C9.27899 13.6667 9.06702 13.5789 8.91074 13.4226C8.75446 13.2663 8.66667 13.0543 8.66667 12.8333C8.66667 12.6123 8.75446 12.4004 8.91074 12.2441C9.06702 12.0878 9.27899 12 9.5 12C9.72101 12 9.93297 12.0878 10.0893 12.2441C10.2455 12.4004 10.3333 12.6123 10.3333 12.8333ZM9.5 17C9.27899 17 9.06702 16.9122 8.91074 16.7559C8.75446 16.5996 8.66667 16.3877 8.66667 16.1667C8.66667 15.9457 8.75446 15.7337 8.91074 15.5774C9.06702 15.4211 9.27899 15.3333 9.5 15.3333C9.72101 15.3333 9.93297 15.4211 10.0893 15.5774C10.2455 15.7337 10.3333 15.9457 10.3333 16.1667C10.3333 16.3877 10.2455 16.5996 10.0893 16.7559C9.93297 16.9122 9.72101 17 9.5 17ZM15.3333 11.1667C15.3333 10.5036 15.5967 9.86774 16.0656 9.3989C16.5344 8.93006 17.1703 8.66667 17.8333 8.66667H19.5C20.163 8.66667 20.7989 8.93006 21.2678 9.3989C21.7366 9.86774 22 10.5036 22 11.1667V19.5C22 20.163 21.7366 20.7989 21.2678 21.2678C20.7989 21.7366 20.163 22 19.5 22H17.8333C17.1703 22 16.5344 21.7366 16.0656 21.2678C15.5967 20.7989 15.3333 20.163 15.3333 19.5V11.1667Z" fill="#BA181B"/>
</svg>
