<svg width="40" height="32" viewBox="0 0 40 32" fill="none" xmlns="http://www.w3.org/2000/svg">
<path d="M30.1118 13.0078C30.3398 13.0169 30.5555 13.1138 30.7136 13.2784C30.8717 13.4429 30.96 13.6623 30.96 13.8905C30.96 14.1187 30.8717 14.3381 30.7136 14.5026C30.5555 14.6672 30.3398 14.7641 30.1118 14.7732H27.6547V16.3483H30.1118C30.2305 16.3435 30.3489 16.3628 30.4599 16.405C30.571 16.4471 30.6724 16.5113 30.758 16.5936C30.8437 16.6759 30.9118 16.7747 30.9584 16.8839C31.0049 16.9932 31.0289 17.1108 31.0289 17.2296C31.0289 17.3484 31.0049 17.4659 30.9584 17.5752C30.9118 17.6845 30.8437 17.7833 30.758 17.8656C30.6724 17.9479 30.571 18.012 30.4599 18.0542C30.3489 18.0963 30.2305 18.1156 30.1118 18.1109H26.7713C26.5384 18.1094 26.3156 18.0161 26.1512 17.8512C25.9868 17.6863 25.8942 17.4631 25.8934 17.2303V10.5507C25.8934 10.0677 26.2883 9.66867 26.7755 9.66867H30.116C30.3499 9.66923 30.574 9.76269 30.739 9.9285C30.9041 10.0943 30.9965 10.3189 30.9959 10.5528C30.9953 10.7867 30.9019 11.0109 30.7361 11.1759C30.5703 11.3409 30.3457 11.4333 30.1118 11.4327H27.6547V13.0078H30.1118ZM24.7146 17.2303C24.7135 17.4637 24.6199 17.6872 24.4543 17.8518C24.2887 18.0163 24.0646 18.1085 23.8312 18.1081C23.6929 18.1111 23.5558 18.0809 23.4316 18.02C23.3074 17.9591 23.1995 17.8693 23.1172 17.7581L19.6969 13.1142V17.2303C19.6815 17.4532 19.5821 17.6619 19.4187 17.8143C19.2554 17.9667 19.0403 18.0515 18.8169 18.0515C18.5935 18.0515 18.3785 17.9667 18.2152 17.8143C18.0518 17.6619 17.9524 17.4532 17.937 17.2303V10.5507C17.9366 10.3184 18.0284 10.0954 18.1922 9.93056C18.3559 9.76575 18.5783 9.67258 18.8106 9.67147C19.0837 9.67147 19.3357 9.81708 19.5037 10.0271L22.9506 14.6892V10.5507C22.9506 10.0677 23.3454 9.66867 23.8326 9.66867C24.3156 9.66867 24.7146 10.0677 24.7146 10.5507V17.2303ZM16.677 17.2303C16.6759 17.464 16.5824 17.6878 16.4168 17.8527C16.2513 18.0177 16.0273 18.1105 15.7936 18.1109C15.5607 18.1094 15.3379 18.0161 15.1735 17.8512C15.0091 17.6863 14.9165 17.4631 14.9157 17.2303V10.5507C14.9157 10.0677 15.3105 9.66867 15.7978 9.66867C16.2822 9.66867 16.677 10.0677 16.677 10.5507V17.2303ZM13.2245 18.1109H9.88399C9.65076 18.1094 9.42748 18.0162 9.26242 17.8514C9.09737 17.6867 9.00381 17.4635 9.00197 17.2303V10.5507C9.00197 10.0677 9.40098 9.66867 9.88399 9.66867C10.3712 9.66867 10.766 10.0677 10.766 10.5507V16.3483H13.2245C13.4522 16.3573 13.6675 16.4542 13.8253 16.6185C13.9832 16.7827 14.0714 17.0017 14.0714 17.2296C14.0714 17.4574 13.9832 17.6764 13.8253 17.8407C13.6675 18.005 13.4522 18.1018 13.2245 18.1109ZM36.601 13.6392C36.601 6.11957 29.0617 0 19.8005 0C10.5392 0 3 6.11957 3 13.6392C3 20.3748 8.97817 26.0183 17.0494 27.0908C17.5968 27.2056 18.3416 27.452 18.5306 27.9168C18.6986 28.3382 18.6412 28.9892 18.5838 29.4288L18.3542 30.8569C18.2912 31.2783 18.0182 32.5173 19.8229 31.7599C21.6303 31.0053 29.5056 26.0505 33.0337 21.9946C35.4473 19.3499 36.601 16.6409 36.601 13.6392Z" fill="#878787"/>
</svg>
