<svg width="51" height="50" viewBox="0 0 51 50" fill="none" xmlns="http://www.w3.org/2000/svg">
<rect x="0.5" width="50" height="50" rx="8" fill="#00B900"/>
<path d="M35.6118 22.0078C35.8398 22.0169 36.0555 22.1138 36.2136 22.2784C36.3717 22.4429 36.46 22.6623 36.46 22.8905C36.46 23.1187 36.3717 23.3381 36.2136 23.5026C36.0555 23.6672 35.8398 23.7641 35.6118 23.7732H33.1547V25.3483H35.6118C35.7305 25.3435 35.8489 25.3628 35.9599 25.405C36.071 25.4471 36.1724 25.5113 36.258 25.5936C36.3437 25.6759 36.4118 25.7747 36.4584 25.8839C36.5049 25.9932 36.5289 26.1108 36.5289 26.2296C36.5289 26.3484 36.5049 26.4659 36.4584 26.5752C36.4118 26.6845 36.3437 26.7833 36.258 26.8656C36.1724 26.9479 36.071 27.012 35.9599 27.0542C35.8489 27.0963 35.7305 27.1156 35.6118 27.1109H32.2713C32.0384 27.1094 31.8156 27.0161 31.6512 26.8512C31.4868 26.6863 31.3942 26.4631 31.3934 26.2303V19.5507C31.3934 19.0677 31.7883 18.6687 32.2755 18.6687H35.616C35.8499 18.6692 36.074 18.7627 36.239 18.9285C36.4041 19.0943 36.4965 19.3189 36.4959 19.5528C36.4953 19.7867 36.4019 20.0109 36.2361 20.1759C36.0703 20.3409 35.8457 20.4333 35.6118 20.4327H33.1547V22.0078H35.6118ZM30.2146 26.2303C30.2135 26.4637 30.1199 26.6872 29.9543 26.8518C29.7887 27.0163 29.5646 27.1085 29.3312 27.1081C29.1929 27.1111 29.0558 27.0809 28.9316 27.02C28.8074 26.9591 28.6995 26.8693 28.6172 26.7581L25.1969 22.1142V26.2303C25.1815 26.4532 25.0821 26.6619 24.9187 26.8143C24.7554 26.9667 24.5403 27.0515 24.3169 27.0515C24.0935 27.0515 23.8785 26.9667 23.7152 26.8143C23.5518 26.6619 23.4524 26.4532 23.437 26.2303V19.5507C23.4366 19.3184 23.5284 19.0954 23.6922 18.9306C23.8559 18.7658 24.0783 18.6726 24.3106 18.6715C24.5837 18.6715 24.8357 18.8171 25.0037 19.0271L28.4506 23.6892V19.5507C28.4506 19.0677 28.8454 18.6687 29.3326 18.6687C29.8156 18.6687 30.2146 19.0677 30.2146 19.5507V26.2303ZM22.177 26.2303C22.1759 26.464 22.0824 26.6878 21.9168 26.8527C21.7513 27.0177 21.5273 27.1105 21.2936 27.1109C21.0607 27.1094 20.8379 27.0161 20.6735 26.8512C20.5091 26.6863 20.4165 26.4631 20.4157 26.2303V19.5507C20.4157 19.0677 20.8105 18.6687 21.2978 18.6687C21.7822 18.6687 22.177 19.0677 22.177 19.5507V26.2303ZM18.7245 27.1109H15.384C15.1508 27.1094 14.9275 27.0162 14.7624 26.8514C14.5974 26.6867 14.5038 26.4635 14.502 26.2303V19.5507C14.502 19.0677 14.901 18.6687 15.384 18.6687C15.8712 18.6687 16.266 19.0677 16.266 19.5507V25.3483H18.7245C18.9522 25.3573 19.1675 25.4542 19.3253 25.6185C19.4832 25.7827 19.5714 26.0017 19.5714 26.2296C19.5714 26.4574 19.4832 26.6764 19.3253 26.8407C19.1675 27.005 18.9522 27.1018 18.7245 27.1109ZM42.101 22.6392C42.101 15.1196 34.5617 9 25.3005 9C16.0392 9 8.5 15.1196 8.5 22.6392C8.5 29.3748 14.4782 35.0183 22.5494 36.0908C23.0968 36.2056 23.8416 36.452 24.0306 36.9168C24.1986 37.3382 24.1412 37.9892 24.0838 38.4288L23.8542 39.8569C23.7912 40.2783 23.5182 41.5173 25.3229 40.7599C27.1303 40.0053 35.0056 35.0505 38.5337 30.9946C40.9473 28.3499 42.101 25.6409 42.101 22.6392Z" fill="#00B900"/>
<path d="M35.6118 22.0078C35.8398 22.0169 36.0555 22.1138 36.2136 22.2784C36.3717 22.4429 36.46 22.6623 36.46 22.8905C36.46 23.1187 36.3717 23.3381 36.2136 23.5026C36.0555 23.6672 35.8398 23.7641 35.6118 23.7732H33.1547V25.3483H35.6118C35.7305 25.3435 35.8489 25.3628 35.9599 25.405C36.071 25.4471 36.1724 25.5113 36.258 25.5936C36.3437 25.6759 36.4118 25.7747 36.4584 25.8839C36.5049 25.9932 36.5289 26.1108 36.5289 26.2296C36.5289 26.3484 36.5049 26.4659 36.4584 26.5752C36.4118 26.6845 36.3437 26.7833 36.258 26.8656C36.1724 26.9479 36.071 27.012 35.9599 27.0542C35.8489 27.0963 35.7305 27.1156 35.6118 27.1109H32.2713C32.0384 27.1094 31.8156 27.0161 31.6512 26.8512C31.4868 26.6863 31.3942 26.4631 31.3934 26.2303V19.5507C31.3934 19.0677 31.7883 18.6687 32.2755 18.6687H35.616C35.8499 18.6692 36.074 18.7627 36.239 18.9285C36.4041 19.0943 36.4965 19.3189 36.4959 19.5528C36.4953 19.7867 36.4019 20.0109 36.2361 20.1759C36.0703 20.3409 35.8457 20.4333 35.6118 20.4327H33.1547V22.0078H35.6118ZM30.2146 26.2303C30.2135 26.4637 30.1199 26.6872 29.9543 26.8518C29.7887 27.0163 29.5646 27.1085 29.3312 27.1081C29.1929 27.1111 29.0558 27.0809 28.9316 27.02C28.8074 26.9591 28.6995 26.8693 28.6172 26.7581L25.1969 22.1142V26.2303C25.1815 26.4532 25.0821 26.6619 24.9187 26.8143C24.7554 26.9667 24.5403 27.0515 24.3169 27.0515C24.0935 27.0515 23.8785 26.9667 23.7152 26.8143C23.5518 26.6619 23.4524 26.4532 23.437 26.2303V19.5507C23.4366 19.3184 23.5284 19.0954 23.6922 18.9306C23.8559 18.7658 24.0783 18.6726 24.3106 18.6715C24.5837 18.6715 24.8357 18.8171 25.0037 19.0271L28.4506 23.6892V19.5507C28.4506 19.0677 28.8454 18.6687 29.3326 18.6687C29.8156 18.6687 30.2146 19.0677 30.2146 19.5507V26.2303ZM22.177 26.2303C22.1759 26.464 22.0824 26.6878 21.9168 26.8527C21.7513 27.0177 21.5273 27.1105 21.2936 27.1109C21.0607 27.1094 20.8379 27.0161 20.6735 26.8512C20.5091 26.6863 20.4165 26.4631 20.4157 26.2303V19.5507C20.4157 19.0677 20.8105 18.6687 21.2978 18.6687C21.7822 18.6687 22.177 19.0677 22.177 19.5507V26.2303ZM18.7245 27.1109H15.384C15.1508 27.1094 14.9275 27.0162 14.7624 26.8514C14.5974 26.6867 14.5038 26.4635 14.502 26.2303V19.5507C14.502 19.0677 14.901 18.6687 15.384 18.6687C15.8712 18.6687 16.266 19.0677 16.266 19.5507V25.3483H18.7245C18.9522 25.3573 19.1675 25.4542 19.3253 25.6185C19.4832 25.7827 19.5714 26.0017 19.5714 26.2296C19.5714 26.4574 19.4832 26.6764 19.3253 26.8407C19.1675 27.005 18.9522 27.1018 18.7245 27.1109ZM42.101 22.6392C42.101 15.1196 34.5617 9 25.3005 9C16.0392 9 8.5 15.1196 8.5 22.6392C8.5 29.3748 14.4782 35.0183 22.5494 36.0908C23.0968 36.2056 23.8416 36.452 24.0306 36.9168C24.1986 37.3382 24.1412 37.9892 24.0838 38.4288L23.8542 39.8569C23.7912 40.2783 23.5182 41.5173 25.3229 40.7599C27.1303 40.0053 35.0056 35.0505 38.5337 30.9946C40.9473 28.3499 42.101 25.6409 42.101 22.6392Z" fill="white"/>
</svg>
