<svg width="41" height="32" viewBox="0 0 41 32" fill="none" xmlns="http://www.w3.org/2000/svg">
<path d="M30.6118 13.0078C30.8398 13.0169 31.0555 13.1138 31.2136 13.2784C31.3717 13.4429 31.46 13.6623 31.46 13.8905C31.46 14.1187 31.3717 14.3381 31.2136 14.5026C31.0555 14.6672 30.8398 14.7641 30.6118 14.7732H28.1547V16.3483H30.6118C30.7305 16.3435 30.8489 16.3628 30.9599 16.405C31.071 16.4471 31.1724 16.5113 31.258 16.5936C31.3437 16.6759 31.4118 16.7747 31.4584 16.8839C31.5049 16.9932 31.5289 17.1108 31.5289 17.2296C31.5289 17.3484 31.5049 17.4659 31.4584 17.5752C31.4118 17.6845 31.3437 17.7833 31.258 17.8656C31.1724 17.9479 31.071 18.012 30.9599 18.0542C30.8489 18.0963 30.7305 18.1156 30.6118 18.1109H27.2713C27.0384 18.1094 26.8156 18.0161 26.6512 17.8512C26.4868 17.6863 26.3942 17.4631 26.3934 17.2303V10.5507C26.3934 10.0677 26.7883 9.66867 27.2755 9.66867H30.616C30.8499 9.66923 31.074 9.76269 31.239 9.9285C31.4041 10.0943 31.4965 10.3189 31.4959 10.5528C31.4953 10.7867 31.4019 11.0109 31.2361 11.1759C31.0703 11.3409 30.8457 11.4333 30.6118 11.4327H28.1547V13.0078H30.6118ZM25.2146 17.2303C25.2135 17.4637 25.1199 17.6872 24.9543 17.8518C24.7887 18.0163 24.5646 18.1085 24.3312 18.1081C24.1929 18.1111 24.0558 18.0809 23.9316 18.02C23.8074 17.9591 23.6995 17.8693 23.6172 17.7581L20.1969 13.1142V17.2303C20.1815 17.4532 20.0821 17.6619 19.9187 17.8143C19.7554 17.9667 19.5403 18.0515 19.3169 18.0515C19.0935 18.0515 18.8785 17.9667 18.7152 17.8143C18.5518 17.6619 18.4524 17.4532 18.437 17.2303V10.5507C18.4366 10.3184 18.5284 10.0954 18.6922 9.93056C18.8559 9.76575 19.0783 9.67258 19.3106 9.67147C19.5837 9.67147 19.8357 9.81708 20.0037 10.0271L23.4506 14.6892V10.5507C23.4506 10.0677 23.8454 9.66867 24.3326 9.66867C24.8156 9.66867 25.2146 10.0677 25.2146 10.5507V17.2303ZM17.177 17.2303C17.1759 17.464 17.0824 17.6878 16.9168 17.8527C16.7513 18.0177 16.5273 18.1105 16.2936 18.1109C16.0607 18.1094 15.8379 18.0161 15.6735 17.8512C15.5091 17.6863 15.4165 17.4631 15.4157 17.2303V10.5507C15.4157 10.0677 15.8105 9.66867 16.2978 9.66867C16.7822 9.66867 17.177 10.0677 17.177 10.5507V17.2303ZM13.7245 18.1109H10.384C10.1508 18.1094 9.92748 18.0162 9.76242 17.8514C9.59737 17.6867 9.50381 17.4635 9.50197 17.2303V10.5507C9.50197 10.0677 9.90098 9.66867 10.384 9.66867C10.8712 9.66867 11.266 10.0677 11.266 10.5507V16.3483H13.7245C13.9522 16.3573 14.1675 16.4542 14.3253 16.6185C14.4832 16.7827 14.5714 17.0017 14.5714 17.2296C14.5714 17.4574 14.4832 17.6764 14.3253 17.8407C14.1675 18.005 13.9522 18.1018 13.7245 18.1109ZM37.101 13.6392C37.101 6.11957 29.5617 0 20.3005 0C11.0392 0 3.5 6.11957 3.5 13.6392C3.5 20.3748 9.47817 26.0183 17.5494 27.0908C18.0968 27.2056 18.8416 27.452 19.0306 27.9168C19.1986 28.3382 19.1412 28.9892 19.0838 29.4288L18.8542 30.8569C18.7912 31.2783 18.5182 32.5173 20.3229 31.7599C22.1303 31.0053 30.0056 26.0505 33.5337 21.9946C35.9473 19.3499 37.101 16.6409 37.101 13.6392Z" fill="#00B900"/>
<path d="M30.6118 13.0078C30.8398 13.0169 31.0555 13.1138 31.2136 13.2784C31.3717 13.4429 31.46 13.6623 31.46 13.8905C31.46 14.1187 31.3717 14.3381 31.2136 14.5026C31.0555 14.6672 30.8398 14.7641 30.6118 14.7732H28.1547V16.3483H30.6118C30.7305 16.3435 30.8489 16.3628 30.9599 16.405C31.071 16.4471 31.1724 16.5113 31.258 16.5936C31.3437 16.6759 31.4118 16.7747 31.4584 16.8839C31.5049 16.9932 31.5289 17.1108 31.5289 17.2296C31.5289 17.3484 31.5049 17.4659 31.4584 17.5752C31.4118 17.6845 31.3437 17.7833 31.258 17.8656C31.1724 17.9479 31.071 18.012 30.9599 18.0542C30.8489 18.0963 30.7305 18.1156 30.6118 18.1109H27.2713C27.0384 18.1094 26.8156 18.0161 26.6512 17.8512C26.4868 17.6863 26.3942 17.4631 26.3934 17.2303V10.5507C26.3934 10.0677 26.7883 9.66867 27.2755 9.66867H30.616C30.8499 9.66923 31.074 9.76269 31.239 9.9285C31.4041 10.0943 31.4965 10.3189 31.4959 10.5528C31.4953 10.7867 31.4019 11.0109 31.2361 11.1759C31.0703 11.3409 30.8457 11.4333 30.6118 11.4327H28.1547V13.0078H30.6118ZM25.2146 17.2303C25.2135 17.4637 25.1199 17.6872 24.9543 17.8518C24.7887 18.0163 24.5646 18.1085 24.3312 18.1081C24.1929 18.1111 24.0558 18.0809 23.9316 18.02C23.8074 17.9591 23.6995 17.8693 23.6172 17.7581L20.1969 13.1142V17.2303C20.1815 17.4532 20.0821 17.6619 19.9187 17.8143C19.7554 17.9667 19.5403 18.0515 19.3169 18.0515C19.0935 18.0515 18.8785 17.9667 18.7152 17.8143C18.5518 17.6619 18.4524 17.4532 18.437 17.2303V10.5507C18.4366 10.3184 18.5284 10.0954 18.6922 9.93056C18.8559 9.76575 19.0783 9.67258 19.3106 9.67147C19.5837 9.67147 19.8357 9.81708 20.0037 10.0271L23.4506 14.6892V10.5507C23.4506 10.0677 23.8454 9.66867 24.3326 9.66867C24.8156 9.66867 25.2146 10.0677 25.2146 10.5507V17.2303ZM17.177 17.2303C17.1759 17.464 17.0824 17.6878 16.9168 17.8527C16.7513 18.0177 16.5273 18.1105 16.2936 18.1109C16.0607 18.1094 15.8379 18.0161 15.6735 17.8512C15.5091 17.6863 15.4165 17.4631 15.4157 17.2303V10.5507C15.4157 10.0677 15.8105 9.66867 16.2978 9.66867C16.7822 9.66867 17.177 10.0677 17.177 10.5507V17.2303ZM13.7245 18.1109H10.384C10.1508 18.1094 9.92748 18.0162 9.76242 17.8514C9.59737 17.6867 9.50381 17.4635 9.50197 17.2303V10.5507C9.50197 10.0677 9.90098 9.66867 10.384 9.66867C10.8712 9.66867 11.266 10.0677 11.266 10.5507V16.3483H13.7245C13.9522 16.3573 14.1675 16.4542 14.3253 16.6185C14.4832 16.7827 14.5714 17.0017 14.5714 17.2296C14.5714 17.4574 14.4832 17.6764 14.3253 17.8407C14.1675 18.005 13.9522 18.1018 13.7245 18.1109ZM37.101 13.6392C37.101 6.11957 29.5617 0 20.3005 0C11.0392 0 3.5 6.11957 3.5 13.6392C3.5 20.3748 9.47817 26.0183 17.5494 27.0908C18.0968 27.2056 18.8416 27.452 19.0306 27.9168C19.1986 28.3382 19.1412 28.9892 19.0838 29.4288L18.8542 30.8569C18.7912 31.2783 18.5182 32.5173 20.3229 31.7599C22.1303 31.0053 30.0056 26.0505 33.5337 21.9946C35.9473 19.3499 37.101 16.6409 37.101 13.6392Z" fill="white"/>
</svg>
