<svg width="266" height="266" viewBox="0 0 266 266" fill="none" xmlns="http://www.w3.org/2000/svg">
<g filter="url(#filter0_d_122_2598)">
<rect width="250" height="250" transform="translate(8 8)" fill="white"/>
<path d="M25.2422 25.2412H33.8629V33.8619H25.2422V25.2412Z" fill="black"/>
<path d="M33.8629 25.2412H42.4836V33.8619H33.8629V25.2412Z" fill="black"/>
<path d="M42.4836 25.2412H51.1043V33.8619H42.4836V25.2412Z" fill="black"/>
<path d="M51.1043 25.2412H59.7249V33.8619H51.1043V25.2412Z" fill="black"/>
<path d="M59.7249 25.2412H68.3456V33.8619H59.7249V25.2412Z" fill="black"/>
<path d="M68.3456 25.2412H76.9663V33.8619H68.3456V25.2412Z" fill="black"/>
<path d="M76.9663 25.2412H85.587V33.8619H76.9663V25.2412Z" fill="black"/>
<path d="M111.449 25.2412H120.07V33.8619H111.449V25.2412Z" fill="black"/>
<path d="M120.07 25.2412H128.69V33.8619H120.07V25.2412Z" fill="black"/>
<path d="M137.311 25.2412H145.932V33.8619H137.311V25.2412Z" fill="black"/>
<path d="M163.173 25.2412H171.794V33.8619H163.173V25.2412Z" fill="black"/>
<path d="M180.415 25.2412H189.035V33.8619H180.415V25.2412Z" fill="black"/>
<path d="M189.035 25.2412H197.656V33.8619H189.035V25.2412Z" fill="black"/>
<path d="M197.656 25.2412H206.277V33.8619H197.656V25.2412Z" fill="black"/>
<path d="M206.277 25.2412H214.897V33.8619H206.277V25.2412Z" fill="black"/>
<path d="M214.897 25.2412H223.518V33.8619H214.897V25.2412Z" fill="black"/>
<path d="M223.518 25.2412H232.139V33.8619H223.518V25.2412Z" fill="black"/>
<path d="M232.139 25.2412H240.759V33.8619H232.139V25.2412Z" fill="black"/>
<path d="M25.2422 33.8619H33.8629V42.4826H25.2422V33.8619Z" fill="black"/>
<path d="M76.9663 33.8619H85.587V42.4826H76.9663V33.8619Z" fill="black"/>
<path d="M94.2077 33.8619H102.828V42.4826H94.2077V33.8619Z" fill="black"/>
<path d="M102.828 33.8619H111.449V42.4826H102.828V33.8619Z" fill="black"/>
<path d="M120.07 33.8619H128.69V42.4826H120.07V33.8619Z" fill="black"/>
<path d="M145.932 33.8619H154.553V42.4826H145.932V33.8619Z" fill="black"/>
<path d="M154.553 33.8619H163.173V42.4826H154.553V33.8619Z" fill="black"/>
<path d="M163.173 33.8619H171.794V42.4826H163.173V33.8619Z" fill="black"/>
<path d="M180.415 33.8619H189.035V42.4826H180.415V33.8619Z" fill="black"/>
<path d="M232.139 33.8619H240.759V42.4826H232.139V33.8619Z" fill="black"/>
<path d="M25.2422 42.4826H33.8629V51.1033H25.2422V42.4826Z" fill="black"/>
<path d="M42.4836 42.4826H51.1043V51.1033H42.4836V42.4826Z" fill="black"/>
<path d="M51.1043 42.4826H59.7249V51.1033H51.1043V42.4826Z" fill="black"/>
<path d="M59.7249 42.4826H68.3456V51.1033H59.7249V42.4826Z" fill="black"/>
<path d="M76.9663 42.4826H85.587V51.1033H76.9663V42.4826Z" fill="black"/>
<path d="M94.2077 42.4826H102.828V51.1033H94.2077V42.4826Z" fill="black"/>
<path d="M120.07 42.4826H128.69V51.1033H120.07V42.4826Z" fill="black"/>
<path d="M145.932 42.4826H154.553V51.1033H145.932V42.4826Z" fill="black"/>
<path d="M154.553 42.4826H163.173V51.1033H154.553V42.4826Z" fill="black"/>
<path d="M163.173 42.4826H171.794V51.1033H163.173V42.4826Z" fill="black"/>
<path d="M180.415 42.4826H189.035V51.1033H180.415V42.4826Z" fill="black"/>
<path d="M197.656 42.4826H206.277V51.1033H197.656V42.4826Z" fill="black"/>
<path d="M206.277 42.4826H214.897V51.1033H206.277V42.4826Z" fill="black"/>
<path d="M214.897 42.4826H223.518V51.1033H214.897V42.4826Z" fill="black"/>
<path d="M232.139 42.4826H240.759V51.1033H232.139V42.4826Z" fill="black"/>
<path d="M25.2422 51.1033H33.8629V59.724H25.2422V51.1033Z" fill="black"/>
<path d="M42.4836 51.1033H51.1043V59.724H42.4836V51.1033Z" fill="black"/>
<path d="M51.1043 51.1033H59.7249V59.724H51.1043V51.1033Z" fill="black"/>
<path d="M59.7249 51.1033H68.3456V59.724H59.7249V51.1033Z" fill="black"/>
<path d="M76.9663 51.1033H85.587V59.724H76.9663V51.1033Z" fill="black"/>
<path d="M94.2077 51.1033H102.828V59.724H94.2077V51.1033Z" fill="black"/>
<path d="M120.07 51.1033H128.69V59.724H120.07V51.1033Z" fill="black"/>
<path d="M128.69 51.1033H137.311V59.724H128.69V51.1033Z" fill="black"/>
<path d="M154.553 51.1033H163.173V59.724H154.553V51.1033Z" fill="black"/>
<path d="M163.173 51.1033H171.794V59.724H163.173V51.1033Z" fill="black"/>
<path d="M180.415 51.1033H189.035V59.724H180.415V51.1033Z" fill="black"/>
<path d="M197.656 51.1033H206.277V59.724H197.656V51.1033Z" fill="black"/>
<path d="M206.277 51.1033H214.897V59.724H206.277V51.1033Z" fill="black"/>
<path d="M214.897 51.1033H223.518V59.724H214.897V51.1033Z" fill="black"/>
<path d="M232.139 51.1033H240.759V59.724H232.139V51.1033Z" fill="black"/>
<path d="M25.2422 59.724H33.8629V68.3447H25.2422V59.724Z" fill="black"/>
<path d="M42.4836 59.724H51.1043V68.3447H42.4836V59.724Z" fill="black"/>
<path d="M51.1043 59.724H59.7249V68.3447H51.1043V59.724Z" fill="black"/>
<path d="M59.7249 59.724H68.3456V68.3447H59.7249V59.724Z" fill="black"/>
<path d="M76.9663 59.724H85.587V68.3447H76.9663V59.724Z" fill="black"/>
<path d="M94.2077 59.724H102.828V68.3447H94.2077V59.724Z" fill="black"/>
<path d="M111.449 59.724H120.07V68.3447H111.449V59.724Z" fill="black"/>
<path d="M128.69 59.724H137.311V68.3447H128.69V59.724Z" fill="black"/>
<path d="M137.311 59.724H145.932V68.3447H137.311V59.724Z" fill="black"/>
<path d="M145.932 59.724H154.553V68.3447H145.932V59.724Z" fill="black"/>
<path d="M180.415 59.724H189.035V68.3447H180.415V59.724Z" fill="black"/>
<path d="M197.656 59.724H206.277V68.3447H197.656V59.724Z" fill="black"/>
<path d="M206.277 59.724H214.897V68.3447H206.277V59.724Z" fill="black"/>
<path d="M214.897 59.724H223.518V68.3447H214.897V59.724Z" fill="black"/>
<path d="M232.139 59.724H240.759V68.3447H232.139V59.724Z" fill="black"/>
<path d="M25.2422 68.3447H33.8629V76.9653H25.2422V68.3447Z" fill="black"/>
<path d="M76.9663 68.3447H85.587V76.9653H76.9663V68.3447Z" fill="black"/>
<path d="M94.2077 68.3447H102.828V76.9653H94.2077V68.3447Z" fill="black"/>
<path d="M120.07 68.3447H128.69V76.9653H120.07V68.3447Z" fill="black"/>
<path d="M128.69 68.3447H137.311V76.9653H128.69V68.3447Z" fill="black"/>
<path d="M137.311 68.3447H145.932V76.9653H137.311V68.3447Z" fill="black"/>
<path d="M145.932 68.3447H154.553V76.9653H145.932V68.3447Z" fill="black"/>
<path d="M180.415 68.3447H189.035V76.9653H180.415V68.3447Z" fill="black"/>
<path d="M232.139 68.3447H240.759V76.9653H232.139V68.3447Z" fill="black"/>
<path d="M25.2422 76.9653H33.8629V85.586H25.2422V76.9653Z" fill="black"/>
<path d="M33.8629 76.9653H42.4836V85.586H33.8629V76.9653Z" fill="black"/>
<path d="M42.4836 76.9653H51.1043V85.586H42.4836V76.9653Z" fill="black"/>
<path d="M51.1043 76.9653H59.7249V85.586H51.1043V76.9653Z" fill="black"/>
<path d="M59.7249 76.9653H68.3456V85.586H59.7249V76.9653Z" fill="black"/>
<path d="M68.3456 76.9653H76.9663V85.586H68.3456V76.9653Z" fill="black"/>
<path d="M76.9663 76.9653H85.587V85.586H76.9663V76.9653Z" fill="black"/>
<path d="M94.2077 76.9653H102.828V85.586H94.2077V76.9653Z" fill="black"/>
<path d="M111.449 76.9653H120.07V85.586H111.449V76.9653Z" fill="black"/>
<path d="M128.69 76.9653H137.311V85.586H128.69V76.9653Z" fill="black"/>
<path d="M145.932 76.9653H154.553V85.586H145.932V76.9653Z" fill="black"/>
<path d="M163.173 76.9653H171.794V85.586H163.173V76.9653Z" fill="black"/>
<path d="M180.415 76.9653H189.035V85.586H180.415V76.9653Z" fill="black"/>
<path d="M189.035 76.9653H197.656V85.586H189.035V76.9653Z" fill="black"/>
<path d="M197.656 76.9653H206.277V85.586H197.656V76.9653Z" fill="black"/>
<path d="M206.277 76.9653H214.897V85.586H206.277V76.9653Z" fill="black"/>
<path d="M214.897 76.9653H223.518V85.586H214.897V76.9653Z" fill="black"/>
<path d="M223.518 76.9653H232.139V85.586H223.518V76.9653Z" fill="black"/>
<path d="M232.139 76.9653H240.759V85.586H232.139V76.9653Z" fill="black"/>
<path d="M102.828 85.586H111.449V94.2067H102.828V85.586Z" fill="black"/>
<path d="M111.449 85.586H120.07V94.2067H111.449V85.586Z" fill="black"/>
<path d="M120.07 85.586H128.69V94.2067H120.07V85.586Z" fill="black"/>
<path d="M128.69 85.586H137.311V94.2067H128.69V85.586Z" fill="black"/>
<path d="M163.173 85.586H171.794V94.2067H163.173V85.586Z" fill="black"/>
<path d="M42.4836 94.2067H51.1043V102.827H42.4836V94.2067Z" fill="black"/>
<path d="M68.3456 94.2067H76.9663V102.827H68.3456V94.2067Z" fill="black"/>
<path d="M76.9663 94.2067H85.587V102.827H76.9663V94.2067Z" fill="black"/>
<path d="M85.587 94.2067H94.2077V102.827H85.587V94.2067Z" fill="black"/>
<path d="M94.2077 94.2067H102.828V102.827H94.2077V94.2067Z" fill="black"/>
<path d="M111.449 94.2067H120.07V102.827H111.449V94.2067Z" fill="black"/>
<path d="M128.69 94.2067H137.311V102.827H128.69V94.2067Z" fill="black"/>
<path d="M145.932 94.2067H154.553V102.827H145.932V94.2067Z" fill="black"/>
<path d="M154.553 94.2067H163.173V102.827H154.553V94.2067Z" fill="black"/>
<path d="M171.794 94.2067H180.415V102.827H171.794V94.2067Z" fill="black"/>
<path d="M189.035 94.2067H197.656V102.827H189.035V94.2067Z" fill="black"/>
<path d="M197.656 94.2067H206.277V102.827H197.656V94.2067Z" fill="black"/>
<path d="M206.277 94.2067H214.897V102.827H206.277V94.2067Z" fill="black"/>
<path d="M214.897 94.2067H223.518V102.827H214.897V94.2067Z" fill="black"/>
<path d="M223.518 94.2067H232.139V102.827H223.518V94.2067Z" fill="black"/>
<path d="M42.4836 102.827H51.1043V111.448H42.4836V102.827Z" fill="black"/>
<path d="M51.1043 102.827H59.7249V111.448H51.1043V102.827Z" fill="black"/>
<path d="M59.7249 102.827H68.3456V111.448H59.7249V102.827Z" fill="black"/>
<path d="M68.3456 102.827H76.9663V111.448H68.3456V102.827Z" fill="black"/>
<path d="M102.828 102.827H111.449V111.448H102.828V102.827Z" fill="black"/>
<path d="M111.449 102.827H120.07V111.448H111.449V102.827Z" fill="black"/>
<path d="M128.69 102.827H137.311V111.448H128.69V102.827Z" fill="black"/>
<path d="M137.311 102.827H145.932V111.448H137.311V102.827Z" fill="black"/>
<path d="M163.173 102.827H171.794V111.448H163.173V102.827Z" fill="black"/>
<path d="M189.035 102.827H197.656V111.448H189.035V102.827Z" fill="black"/>
<path d="M197.656 102.827H206.277V111.448H197.656V102.827Z" fill="black"/>
<path d="M206.277 102.827H214.897V111.448H206.277V102.827Z" fill="black"/>
<path d="M214.897 102.827H223.518V111.448H214.897V102.827Z" fill="black"/>
<path d="M232.139 102.827H240.759V111.448H232.139V102.827Z" fill="black"/>
<path d="M51.1043 111.448H59.7249V120.069H51.1043V111.448Z" fill="black"/>
<path d="M68.3456 111.448H76.9663V120.069H68.3456V111.448Z" fill="black"/>
<path d="M76.9663 111.448H85.587V120.069H76.9663V111.448Z" fill="black"/>
<path d="M94.2077 111.448H102.828V120.069H94.2077V111.448Z" fill="black"/>
<path d="M111.449 111.448H120.07V120.069H111.449V111.448Z" fill="black"/>
<path d="M120.07 111.448H128.69V120.069H120.07V111.448Z" fill="black"/>
<path d="M128.69 111.448H137.311V120.069H128.69V111.448Z" fill="black"/>
<path d="M145.932 111.448H154.553V120.069H145.932V111.448Z" fill="black"/>
<path d="M154.553 111.448H163.173V120.069H154.553V111.448Z" fill="black"/>
<path d="M163.173 111.448H171.794V120.069H163.173V111.448Z" fill="black"/>
<path d="M171.794 111.448H180.415V120.069H171.794V111.448Z" fill="black"/>
<path d="M180.415 111.448H189.035V120.069H180.415V111.448Z" fill="black"/>
<path d="M189.035 111.448H197.656V120.069H189.035V111.448Z" fill="black"/>
<path d="M206.277 111.448H214.897V120.069H206.277V111.448Z" fill="black"/>
<path d="M232.139 111.448H240.759V120.069H232.139V111.448Z" fill="black"/>
<path d="M51.1043 120.069H59.7249V128.689H51.1043V120.069Z" fill="black"/>
<path d="M68.3456 120.069H76.9663V128.689H68.3456V120.069Z" fill="black"/>
<path d="M85.587 120.069H94.2077V128.689H85.587V120.069Z" fill="black"/>
<path d="M94.2077 120.069H102.828V128.689H94.2077V120.069Z" fill="black"/>
<path d="M102.828 120.069H111.449V128.689H102.828V120.069Z" fill="black"/>
<path d="M120.07 120.069H128.69V128.689H120.07V120.069Z" fill="black"/>
<path d="M137.311 120.069H145.932V128.689H137.311V120.069Z" fill="black"/>
<path d="M145.932 120.069H154.553V128.689H145.932V120.069Z" fill="black"/>
<path d="M163.173 120.069H171.794V128.689H163.173V120.069Z" fill="black"/>
<path d="M171.794 120.069H180.415V128.689H171.794V120.069Z" fill="black"/>
<path d="M189.035 120.069H197.656V128.689H189.035V120.069Z" fill="black"/>
<path d="M197.656 120.069H206.277V128.689H197.656V120.069Z" fill="black"/>
<path d="M206.277 120.069H214.897V128.689H206.277V120.069Z" fill="black"/>
<path d="M223.518 120.069H232.139V128.689H223.518V120.069Z" fill="black"/>
<path d="M232.139 120.069H240.759V128.689H232.139V120.069Z" fill="black"/>
<path d="M42.4836 128.689H51.1043V137.31H42.4836V128.689Z" fill="black"/>
<path d="M76.9663 128.689H85.587V137.31H76.9663V128.689Z" fill="black"/>
<path d="M102.828 128.689H111.449V137.31H102.828V128.689Z" fill="black"/>
<path d="M128.69 128.689H137.311V137.31H128.69V128.689Z" fill="black"/>
<path d="M137.311 128.689H145.932V137.31H137.311V128.689Z" fill="black"/>
<path d="M171.794 128.689H180.415V137.31H171.794V128.689Z" fill="black"/>
<path d="M180.415 128.689H189.035V137.31H180.415V128.689Z" fill="black"/>
<path d="M189.035 128.689H197.656V137.31H189.035V128.689Z" fill="black"/>
<path d="M197.656 128.689H206.277V137.31H197.656V128.689Z" fill="black"/>
<path d="M206.277 128.689H214.897V137.31H206.277V128.689Z" fill="black"/>
<path d="M33.8629 137.31H42.4836V145.931H33.8629V137.31Z" fill="black"/>
<path d="M51.1043 137.31H59.7249V145.931H51.1043V137.31Z" fill="black"/>
<path d="M59.7249 137.31H68.3456V145.931H59.7249V137.31Z" fill="black"/>
<path d="M68.3456 137.31H76.9663V145.931H68.3456V137.31Z" fill="black"/>
<path d="M85.587 137.31H94.2077V145.931H85.587V137.31Z" fill="black"/>
<path d="M102.828 137.31H111.449V145.931H102.828V137.31Z" fill="black"/>
<path d="M111.449 137.31H120.07V145.931H111.449V137.31Z" fill="black"/>
<path d="M128.69 137.31H137.311V145.931H128.69V137.31Z" fill="black"/>
<path d="M137.311 137.31H145.932V145.931H137.311V137.31Z" fill="black"/>
<path d="M145.932 137.31H154.553V145.931H145.932V137.31Z" fill="black"/>
<path d="M171.794 137.31H180.415V145.931H171.794V137.31Z" fill="black"/>
<path d="M206.277 137.31H214.897V145.931H206.277V137.31Z" fill="black"/>
<path d="M232.139 137.31H240.759V145.931H232.139V137.31Z" fill="black"/>
<path d="M25.2422 145.931H33.8629V154.552H25.2422V145.931Z" fill="black"/>
<path d="M33.8629 145.931H42.4836V154.552H33.8629V145.931Z" fill="black"/>
<path d="M42.4836 145.931H51.1043V154.552H42.4836V145.931Z" fill="black"/>
<path d="M51.1043 145.931H59.7249V154.552H51.1043V145.931Z" fill="black"/>
<path d="M76.9663 145.931H85.587V154.552H76.9663V145.931Z" fill="black"/>
<path d="M85.587 145.931H94.2077V154.552H85.587V145.931Z" fill="black"/>
<path d="M102.828 145.931H111.449V154.552H102.828V145.931Z" fill="black"/>
<path d="M111.449 145.931H120.07V154.552H111.449V145.931Z" fill="black"/>
<path d="M154.553 145.931H163.173V154.552H154.553V145.931Z" fill="black"/>
<path d="M197.656 145.931H206.277V154.552H197.656V145.931Z" fill="black"/>
<path d="M232.139 145.931H240.759V154.552H232.139V145.931Z" fill="black"/>
<path d="M42.4836 154.552H51.1043V163.172H42.4836V154.552Z" fill="black"/>
<path d="M59.7249 154.552H68.3456V163.172H59.7249V154.552Z" fill="black"/>
<path d="M68.3456 154.552H76.9663V163.172H68.3456V154.552Z" fill="black"/>
<path d="M85.587 154.552H94.2077V163.172H85.587V154.552Z" fill="black"/>
<path d="M111.449 154.552H120.07V163.172H111.449V154.552Z" fill="black"/>
<path d="M128.69 154.552H137.311V163.172H128.69V154.552Z" fill="black"/>
<path d="M137.311 154.552H145.932V163.172H137.311V154.552Z" fill="black"/>
<path d="M180.415 154.552H189.035V163.172H180.415V154.552Z" fill="black"/>
<path d="M189.035 154.552H197.656V163.172H189.035V154.552Z" fill="black"/>
<path d="M206.277 154.552H214.897V163.172H206.277V154.552Z" fill="black"/>
<path d="M25.2422 163.172H33.8629V171.793H25.2422V163.172Z" fill="black"/>
<path d="M33.8629 163.172H42.4836V171.793H33.8629V163.172Z" fill="black"/>
<path d="M42.4836 163.172H51.1043V171.793H42.4836V163.172Z" fill="black"/>
<path d="M51.1043 163.172H59.7249V171.793H51.1043V163.172Z" fill="black"/>
<path d="M68.3456 163.172H76.9663V171.793H68.3456V163.172Z" fill="black"/>
<path d="M76.9663 163.172H85.587V171.793H76.9663V163.172Z" fill="black"/>
<path d="M85.587 163.172H94.2077V171.793H85.587V163.172Z" fill="black"/>
<path d="M94.2077 163.172H102.828V171.793H94.2077V163.172Z" fill="black"/>
<path d="M102.828 163.172H111.449V171.793H102.828V163.172Z" fill="black"/>
<path d="M111.449 163.172H120.07V171.793H111.449V163.172Z" fill="black"/>
<path d="M120.07 163.172H128.69V171.793H120.07V163.172Z" fill="black"/>
<path d="M137.311 163.172H145.932V171.793H137.311V163.172Z" fill="black"/>
<path d="M154.553 163.172H163.173V171.793H154.553V163.172Z" fill="black"/>
<path d="M163.173 163.172H171.794V171.793H163.173V163.172Z" fill="black"/>
<path d="M171.794 163.172H180.415V171.793H171.794V163.172Z" fill="black"/>
<path d="M180.415 163.172H189.035V171.793H180.415V163.172Z" fill="black"/>
<path d="M189.035 163.172H197.656V171.793H189.035V163.172Z" fill="black"/>
<path d="M197.656 163.172H206.277V171.793H197.656V163.172Z" fill="black"/>
<path d="M223.518 163.172H232.139V171.793H223.518V163.172Z" fill="black"/>
<path d="M94.2077 171.793H102.828V180.414H94.2077V171.793Z" fill="black"/>
<path d="M111.449 171.793H120.07V180.414H111.449V171.793Z" fill="black"/>
<path d="M128.69 171.793H137.311V180.414H128.69V171.793Z" fill="black"/>
<path d="M163.173 171.793H171.794V180.414H163.173V171.793Z" fill="black"/>
<path d="M197.656 171.793H206.277V180.414H197.656V171.793Z" fill="black"/>
<path d="M214.897 171.793H223.518V180.414H214.897V171.793Z" fill="black"/>
<path d="M232.139 171.793H240.759V180.414H232.139V171.793Z" fill="black"/>
<path d="M25.2422 180.414H33.8629V189.034H25.2422V180.414Z" fill="black"/>
<path d="M33.8629 180.414H42.4836V189.034H33.8629V180.414Z" fill="black"/>
<path d="M42.4836 180.414H51.1043V189.034H42.4836V180.414Z" fill="black"/>
<path d="M51.1043 180.414H59.7249V189.034H51.1043V180.414Z" fill="black"/>
<path d="M59.7249 180.414H68.3456V189.034H59.7249V180.414Z" fill="black"/>
<path d="M68.3456 180.414H76.9663V189.034H68.3456V180.414Z" fill="black"/>
<path d="M76.9663 180.414H85.587V189.034H76.9663V180.414Z" fill="black"/>
<path d="M94.2077 180.414H102.828V189.034H94.2077V180.414Z" fill="black"/>
<path d="M111.449 180.414H120.07V189.034H111.449V180.414Z" fill="black"/>
<path d="M120.07 180.414H128.69V189.034H120.07V180.414Z" fill="black"/>
<path d="M128.69 180.414H137.311V189.034H128.69V180.414Z" fill="black"/>
<path d="M154.553 180.414H163.173V189.034H154.553V180.414Z" fill="black"/>
<path d="M163.173 180.414H171.794V189.034H163.173V180.414Z" fill="black"/>
<path d="M180.415 180.414H189.035V189.034H180.415V180.414Z" fill="black"/>
<path d="M197.656 180.414H206.277V189.034H197.656V180.414Z" fill="black"/>
<path d="M214.897 180.414H223.518V189.034H214.897V180.414Z" fill="black"/>
<path d="M232.139 180.414H240.759V189.034H232.139V180.414Z" fill="black"/>
<path d="M25.2422 189.034H33.8629V197.655H25.2422V189.034Z" fill="black"/>
<path d="M76.9663 189.034H85.587V197.655H76.9663V189.034Z" fill="black"/>
<path d="M94.2077 189.034H102.828V197.655H94.2077V189.034Z" fill="black"/>
<path d="M102.828 189.034H111.449V197.655H102.828V189.034Z" fill="black"/>
<path d="M120.07 189.034H128.69V197.655H120.07V189.034Z" fill="black"/>
<path d="M145.932 189.034H154.553V197.655H145.932V189.034Z" fill="black"/>
<path d="M154.553 189.034H163.173V197.655H154.553V189.034Z" fill="black"/>
<path d="M163.173 189.034H171.794V197.655H163.173V189.034Z" fill="black"/>
<path d="M197.656 189.034H206.277V197.655H197.656V189.034Z" fill="black"/>
<path d="M206.277 189.034H214.897V197.655H206.277V189.034Z" fill="black"/>
<path d="M25.2422 197.655H33.8629V206.276H25.2422V197.655Z" fill="black"/>
<path d="M42.4836 197.655H51.1043V206.276H42.4836V197.655Z" fill="black"/>
<path d="M51.1043 197.655H59.7249V206.276H51.1043V197.655Z" fill="black"/>
<path d="M59.7249 197.655H68.3456V206.276H59.7249V197.655Z" fill="black"/>
<path d="M76.9663 197.655H85.587V206.276H76.9663V197.655Z" fill="black"/>
<path d="M111.449 197.655H120.07V206.276H111.449V197.655Z" fill="black"/>
<path d="M128.69 197.655H137.311V206.276H128.69V197.655Z" fill="black"/>
<path d="M137.311 197.655H145.932V206.276H137.311V197.655Z" fill="black"/>
<path d="M145.932 197.655H154.553V206.276H145.932V197.655Z" fill="black"/>
<path d="M163.173 197.655H171.794V206.276H163.173V197.655Z" fill="black"/>
<path d="M171.794 197.655H180.415V206.276H171.794V197.655Z" fill="black"/>
<path d="M180.415 197.655H189.035V206.276H180.415V197.655Z" fill="black"/>
<path d="M189.035 197.655H197.656V206.276H189.035V197.655Z" fill="black"/>
<path d="M197.656 197.655H206.277V206.276H197.656V197.655Z" fill="black"/>
<path d="M206.277 197.655H214.897V206.276H206.277V197.655Z" fill="black"/>
<path d="M223.518 197.655H232.139V206.276H223.518V197.655Z" fill="black"/>
<path d="M25.2422 206.276H33.8629V214.896H25.2422V206.276Z" fill="black"/>
<path d="M42.4836 206.276H51.1043V214.896H42.4836V206.276Z" fill="black"/>
<path d="M51.1043 206.276H59.7249V214.896H51.1043V206.276Z" fill="black"/>
<path d="M59.7249 206.276H68.3456V214.896H59.7249V206.276Z" fill="black"/>
<path d="M76.9663 206.276H85.587V214.896H76.9663V206.276Z" fill="black"/>
<path d="M111.449 206.276H120.07V214.896H111.449V206.276Z" fill="black"/>
<path d="M120.07 206.276H128.69V214.896H120.07V206.276Z" fill="black"/>
<path d="M163.173 206.276H171.794V214.896H163.173V206.276Z" fill="black"/>
<path d="M171.794 206.276H180.415V214.896H171.794V206.276Z" fill="black"/>
<path d="M180.415 206.276H189.035V214.896H180.415V206.276Z" fill="black"/>
<path d="M197.656 206.276H206.277V214.896H197.656V206.276Z" fill="black"/>
<path d="M214.897 206.276H223.518V214.896H214.897V206.276Z" fill="black"/>
<path d="M25.2422 214.896H33.8629V223.517H25.2422V214.896Z" fill="black"/>
<path d="M42.4836 214.896H51.1043V223.517H42.4836V214.896Z" fill="black"/>
<path d="M51.1043 214.896H59.7249V223.517H51.1043V214.896Z" fill="black"/>
<path d="M59.7249 214.896H68.3456V223.517H59.7249V214.896Z" fill="black"/>
<path d="M76.9663 214.896H85.587V223.517H76.9663V214.896Z" fill="black"/>
<path d="M94.2077 214.896H102.828V223.517H94.2077V214.896Z" fill="black"/>
<path d="M102.828 214.896H111.449V223.517H102.828V214.896Z" fill="black"/>
<path d="M120.07 214.896H128.69V223.517H120.07V214.896Z" fill="black"/>
<path d="M128.69 214.896H137.311V223.517H128.69V214.896Z" fill="black"/>
<path d="M137.311 214.896H145.932V223.517H137.311V214.896Z" fill="black"/>
<path d="M145.932 214.896H154.553V223.517H145.932V214.896Z" fill="black"/>
<path d="M171.794 214.896H180.415V223.517H171.794V214.896Z" fill="black"/>
<path d="M180.415 214.896H189.035V223.517H180.415V214.896Z" fill="black"/>
<path d="M197.656 214.896H206.277V223.517H197.656V214.896Z" fill="black"/>
<path d="M214.897 214.896H223.518V223.517H214.897V214.896Z" fill="black"/>
<path d="M223.518 214.896H232.139V223.517H223.518V214.896Z" fill="black"/>
<path d="M232.139 214.896H240.759V223.517H232.139V214.896Z" fill="black"/>
<path d="M25.2422 223.517H33.8629V232.138H25.2422V223.517Z" fill="black"/>
<path d="M76.9663 223.517H85.587V232.138H76.9663V223.517Z" fill="black"/>
<path d="M102.828 223.517H111.449V232.138H102.828V223.517Z" fill="black"/>
<path d="M111.449 223.517H120.07V232.138H111.449V223.517Z" fill="black"/>
<path d="M154.553 223.517H163.173V232.138H154.553V223.517Z" fill="black"/>
<path d="M206.277 223.517H214.897V232.138H206.277V223.517Z" fill="black"/>
<path d="M25.2422 232.138H33.8629V240.758H25.2422V232.138Z" fill="black"/>
<path d="M33.8629 232.138H42.4836V240.758H33.8629V232.138Z" fill="black"/>
<path d="M42.4836 232.138H51.1043V240.758H42.4836V232.138Z" fill="black"/>
<path d="M51.1043 232.138H59.7249V240.758H51.1043V232.138Z" fill="black"/>
<path d="M59.7249 232.138H68.3456V240.758H59.7249V232.138Z" fill="black"/>
<path d="M68.3456 232.138H76.9663V240.758H68.3456V232.138Z" fill="black"/>
<path d="M76.9663 232.138H85.587V240.758H76.9663V232.138Z" fill="black"/>
<path d="M102.828 232.138H111.449V240.758H102.828V232.138Z" fill="black"/>
<path d="M111.449 232.138H120.07V240.758H111.449V232.138Z" fill="black"/>
<path d="M137.311 232.138H145.932V240.758H137.311V232.138Z" fill="black"/>
<path d="M145.932 232.138H154.553V240.758H145.932V232.138Z" fill="black"/>
<path d="M154.553 232.138H163.173V240.758H154.553V232.138Z" fill="black"/>
<path d="M163.173 232.138H171.794V240.758H163.173V232.138Z" fill="black"/>
<path d="M180.415 232.138H189.035V240.758H180.415V232.138Z" fill="black"/>
<path d="M189.035 232.138H197.656V240.758H189.035V232.138Z" fill="black"/>
<path d="M206.277 232.138H214.897V240.758H206.277V232.138Z" fill="black"/>
<path d="M232.139 232.138H240.759V240.758H232.139V232.138Z" fill="black"/>
<path d="M33.8629 25.2412H25.2422V33.8619M33.8629 25.2412V33.8619M33.8629 25.2412H42.4836M33.8629 33.8619H25.2422M33.8629 33.8619H42.4836M33.8629 33.8619V42.4826M25.2422 33.8619V42.4826M42.4836 25.2412V33.8619M42.4836 25.2412H51.1043M42.4836 33.8619H51.1043M51.1043 25.2412V33.8619M51.1043 25.2412H59.7249M51.1043 33.8619H59.7249M59.7249 25.2412V33.8619M59.7249 25.2412H68.3456M59.7249 33.8619H68.3456M68.3456 25.2412V33.8619M68.3456 25.2412H76.9663M68.3456 33.8619H76.9663M76.9663 25.2412V33.8619M76.9663 25.2412H85.587V33.8619M76.9663 33.8619H85.587M76.9663 33.8619V42.4826M85.587 33.8619V42.4826M120.07 25.2412H111.449V33.8619M120.07 25.2412V33.8619M120.07 25.2412H128.69V33.8619M120.07 33.8619H111.449M120.07 33.8619H128.69M120.07 33.8619V42.4826M111.449 33.8619H102.828M111.449 33.8619V42.4826H102.828M128.69 33.8619V42.4826M145.932 33.8619V25.2412H137.311V33.8619H145.932ZM145.932 33.8619H154.553M145.932 33.8619V42.4826M171.794 33.8619V25.2412H163.173V33.8619M171.794 33.8619H163.173M171.794 33.8619V42.4826M163.173 33.8619H154.553M163.173 33.8619V42.4826M189.035 25.2412H180.415V33.8619M189.035 25.2412V33.8619M189.035 25.2412H197.656M189.035 33.8619H180.415M189.035 33.8619H197.656M189.035 33.8619V42.4826M180.415 33.8619V42.4826M197.656 25.2412V33.8619M197.656 25.2412H206.277M197.656 33.8619H206.277M206.277 25.2412V33.8619M206.277 25.2412H214.897M206.277 33.8619H214.897M214.897 25.2412V33.8619M214.897 25.2412H223.518M214.897 33.8619H223.518M223.518 25.2412V33.8619M223.518 25.2412H232.139M223.518 33.8619H232.139M232.139 25.2412V33.8619M232.139 25.2412H240.759V33.8619M232.139 33.8619H240.759M232.139 33.8619V42.4826M240.759 33.8619V42.4826M33.8629 42.4826H25.2422M33.8629 42.4826V51.1033M25.2422 42.4826V51.1033M85.587 42.4826H76.9663M85.587 42.4826V51.1033M76.9663 42.4826V51.1033M102.828 33.8619H94.2077V42.4826M102.828 33.8619V42.4826M102.828 42.4826H94.2077M102.828 42.4826V51.1033M94.2077 42.4826V51.1033M128.69 42.4826H120.07M128.69 42.4826V51.1033M120.07 42.4826V51.1033M154.553 33.8619V42.4826M154.553 42.4826H145.932M154.553 42.4826H163.173M154.553 42.4826V51.1033M145.932 42.4826V51.1033H154.553M163.173 42.4826H171.794M163.173 42.4826V51.1033M171.794 42.4826V51.1033M189.035 42.4826H180.415M189.035 42.4826V51.1033M180.415 42.4826V51.1033M240.759 42.4826H232.139M240.759 42.4826V51.1033M232.139 42.4826V51.1033M33.8629 51.1033H25.2422M33.8629 51.1033V59.724M25.2422 51.1033V59.724M51.1043 42.4826H42.4836V51.1033M51.1043 42.4826V51.1033M51.1043 42.4826H59.7249M51.1043 51.1033H42.4836M51.1043 51.1033H59.7249M51.1043 51.1033V59.724M42.4836 51.1033V59.724M59.7249 42.4826V51.1033M59.7249 42.4826H68.3456V51.1033M59.7249 51.1033H68.3456M59.7249 51.1033V59.724M68.3456 51.1033V59.724M85.587 51.1033H76.9663M85.587 51.1033V59.724M76.9663 51.1033V59.724M102.828 51.1033H94.2077M102.828 51.1033V59.724M94.2077 51.1033V59.724M128.69 51.1033H120.07M128.69 51.1033V59.724M128.69 51.1033H137.311V59.724M120.07 51.1033V59.724M154.553 51.1033H163.173M154.553 51.1033V59.724M163.173 51.1033H171.794M163.173 51.1033V59.724M171.794 51.1033V59.724H163.173M189.035 51.1033H180.415M189.035 51.1033V59.724M180.415 51.1033V59.724M206.277 42.4826H197.656V51.1033M206.277 42.4826V51.1033M206.277 42.4826H214.897M206.277 51.1033H197.656M206.277 51.1033H214.897M206.277 51.1033V59.724M197.656 51.1033V59.724M214.897 42.4826V51.1033M214.897 42.4826H223.518V51.1033M214.897 51.1033H223.518M214.897 51.1033V59.724M223.518 51.1033V59.724M240.759 51.1033H232.139M240.759 51.1033V59.724M232.139 51.1033V59.724M33.8629 59.724H25.2422M33.8629 59.724V68.3447M25.2422 59.724V68.3447M51.1043 59.724H42.4836M51.1043 59.724H59.7249M51.1043 59.724V68.3447M42.4836 59.724V68.3447H51.1043M59.7249 59.724H68.3456M59.7249 59.724V68.3447M68.3456 59.724V68.3447H59.7249M85.587 59.724H76.9663M85.587 59.724V68.3447M76.9663 59.724V68.3447M102.828 59.724H94.2077M102.828 59.724V68.3447M94.2077 59.724V68.3447M128.69 59.724H120.07M128.69 59.724H137.311M128.69 59.724V68.3447M120.07 59.724H111.449V68.3447H120.07M120.07 59.724V68.3447M137.311 59.724V68.3447M137.311 59.724H145.932M163.173 59.724H154.553M154.553 59.724H145.932M154.553 59.724V68.3447M189.035 59.724H180.415M189.035 59.724V68.3447M180.415 59.724V68.3447M206.277 59.724H197.656M206.277 59.724H214.897M206.277 59.724V68.3447M197.656 59.724V68.3447H206.277M214.897 59.724H223.518M214.897 59.724V68.3447M223.518 59.724V68.3447H214.897M240.759 59.724H232.139M240.759 59.724V68.3447M232.139 59.724V68.3447M33.8629 68.3447H25.2422M33.8629 68.3447V76.9653M25.2422 68.3447V76.9653M51.1043 68.3447H59.7249M85.587 68.3447H76.9663M85.587 68.3447V76.9653M76.9663 68.3447V76.9653M102.828 68.3447H94.2077M102.828 68.3447V76.9653M94.2077 68.3447V76.9653M120.07 68.3447H128.69M120.07 68.3447V76.9653M137.311 68.3447H128.69M137.311 68.3447H145.932M137.311 68.3447V76.9653M128.69 68.3447V76.9653M145.932 59.724V68.3447M145.932 68.3447H154.553M145.932 68.3447V76.9653M154.553 68.3447V76.9653M189.035 68.3447H180.415M189.035 68.3447V76.9653M180.415 68.3447V76.9653M206.277 68.3447H214.897M240.759 68.3447H232.139M240.759 68.3447V76.9653M232.139 68.3447V76.9653M33.8629 76.9653H25.2422M33.8629 76.9653V85.586M33.8629 76.9653H42.4836M25.2422 76.9653V85.586H33.8629M85.587 76.9653H76.9663M85.587 76.9653V85.586H76.9663M76.9663 76.9653H68.3456M76.9663 76.9653V85.586M102.828 76.9653H94.2077M102.828 76.9653V85.586M94.2077 76.9653V85.586H102.828M128.69 76.9653H120.07M128.69 76.9653H137.311M128.69 76.9653V85.586M120.07 76.9653H111.449V85.586M120.07 76.9653V85.586M137.311 76.9653H145.932M137.311 76.9653V85.586M145.932 76.9653H154.553M145.932 76.9653V85.586H154.553V76.9653M189.035 76.9653H180.415M189.035 76.9653V85.586M189.035 76.9653H197.656M180.415 76.9653V85.586H189.035M240.759 76.9653H232.139M240.759 76.9653V85.586H232.139M232.139 76.9653H223.518M232.139 76.9653V85.586M33.8629 85.586H42.4836M42.4836 76.9653V85.586M42.4836 76.9653H51.1043M42.4836 85.586H51.1043M51.1043 76.9653V85.586M51.1043 76.9653H59.7249M51.1043 85.586H59.7249M59.7249 76.9653V85.586M59.7249 76.9653H68.3456M59.7249 85.586H68.3456M68.3456 76.9653V85.586M68.3456 85.586H76.9663M102.828 85.586H111.449M102.828 85.586V94.2067M120.07 85.586H111.449M120.07 85.586V94.2067M120.07 85.586H128.69M111.449 85.586V94.2067M137.311 85.586H128.69M137.311 85.586V94.2067M128.69 85.586V94.2067M171.794 85.586V76.9653H163.173V85.586M171.794 85.586H163.173M171.794 85.586V94.2067M163.173 85.586V94.2067M189.035 85.586H197.656M197.656 76.9653V85.586M197.656 76.9653H206.277M197.656 85.586H206.277M206.277 76.9653V85.586M206.277 76.9653H214.897M206.277 85.586H214.897M214.897 76.9653V85.586M214.897 76.9653H223.518M214.897 85.586H223.518M223.518 76.9653V85.586M223.518 85.586H232.139M111.449 94.2067H102.828M111.449 94.2067H120.07M111.449 94.2067V102.827M102.828 94.2067H94.2077M102.828 94.2067V102.827M120.07 94.2067H128.69M120.07 94.2067V102.827M128.69 94.2067H137.311M128.69 94.2067V102.827M137.311 94.2067V102.827M171.794 94.2067H163.173M171.794 94.2067H180.415V102.827H171.794M171.794 94.2067V102.827M163.173 94.2067H154.553M163.173 94.2067V102.827M51.1043 102.827V94.2067H42.4836V102.827M51.1043 102.827H42.4836M51.1043 102.827V111.448M51.1043 102.827H59.7249M42.4836 102.827V111.448H51.1043M76.9663 94.2067H68.3456V102.827M76.9663 94.2067V102.827M76.9663 94.2067H85.587M76.9663 102.827H68.3456M76.9663 102.827H85.587M76.9663 102.827V111.448M68.3456 102.827H59.7249M68.3456 102.827V111.448M85.587 94.2067V102.827M85.587 94.2067H94.2077M85.587 102.827H94.2077M94.2077 94.2067V102.827M94.2077 102.827H102.828M102.828 102.827H111.449M102.828 102.827V111.448M120.07 102.827H111.449M120.07 102.827V111.448M111.449 102.827V111.448M137.311 102.827H128.69M137.311 102.827V111.448M137.311 102.827H145.932M128.69 102.827V111.448M154.553 94.2067H145.932V102.827M154.553 94.2067V102.827M154.553 102.827H145.932M154.553 102.827H163.173M145.932 102.827V111.448M163.173 102.827H171.794M163.173 102.827V111.448M171.794 102.827V111.448M197.656 94.2067H189.035V102.827M197.656 94.2067V102.827M197.656 94.2067H206.277M197.656 102.827H189.035M197.656 102.827H206.277M197.656 102.827V111.448M189.035 102.827V111.448M206.277 94.2067V102.827M206.277 94.2067H214.897M206.277 102.827H214.897M206.277 102.827V111.448M214.897 94.2067V102.827M214.897 94.2067H223.518M214.897 102.827H223.518M214.897 102.827V111.448M223.518 94.2067V102.827M223.518 94.2067H232.139V102.827M223.518 102.827H232.139M223.518 102.827V111.448H214.897M232.139 102.827H240.759V111.448M232.139 102.827V111.448M51.1043 111.448H59.7249M51.1043 111.448V120.069M59.7249 102.827V111.448M59.7249 111.448H68.3456M59.7249 111.448V120.069M68.3456 111.448H76.9663M68.3456 111.448V120.069M76.9663 111.448V120.069M76.9663 111.448H85.587V120.069M111.449 111.448H102.828M111.449 111.448H120.07M111.449 111.448V120.069M102.828 111.448H94.2077V120.069M102.828 111.448V120.069M120.07 111.448V120.069M120.07 111.448H128.69M137.311 111.448H128.69M137.311 111.448H145.932M137.311 111.448V120.069M128.69 111.448V120.069M145.932 111.448H154.553M145.932 111.448V120.069M171.794 111.448H163.173M171.794 111.448V120.069M171.794 111.448H180.415M163.173 111.448H154.553M163.173 111.448V120.069M197.656 111.448H189.035M197.656 111.448H206.277M197.656 111.448V120.069M189.035 111.448H180.415M189.035 111.448V120.069M206.277 111.448H214.897M206.277 111.448V120.069M214.897 111.448V120.069M240.759 111.448H232.139M240.759 111.448V120.069M232.139 111.448V120.069M59.7249 120.069H51.1043M59.7249 120.069V128.689H51.1043M51.1043 120.069V128.689M76.9663 120.069H68.3456M76.9663 120.069H85.587M76.9663 120.069V128.689M68.3456 120.069V128.689H76.9663M85.587 120.069H94.2077M85.587 120.069V128.689M102.828 120.069H94.2077M102.828 120.069V128.689M102.828 120.069H111.449M94.2077 120.069V128.689M120.07 120.069H111.449M120.07 120.069H128.69M120.07 120.069V128.689H128.69M111.449 120.069V128.689M128.69 120.069H137.311M128.69 120.069V128.689M137.311 120.069H145.932M137.311 120.069V128.689M154.553 111.448V120.069M154.553 120.069H145.932M154.553 120.069H163.173M154.553 120.069V128.689H145.932M145.932 120.069V128.689M163.173 120.069H171.794M163.173 120.069V128.689H171.794M171.794 120.069H180.415M171.794 120.069V128.689M180.415 111.448V120.069M180.415 120.069H189.035M180.415 120.069V128.689M189.035 120.069H197.656M189.035 120.069V128.689M197.656 120.069V128.689M197.656 120.069H206.277M214.897 120.069H206.277M214.897 120.069V128.689M206.277 120.069V128.689M240.759 120.069H232.139M240.759 120.069V128.689H232.139M232.139 120.069H223.518V128.689H232.139M232.139 120.069V128.689M51.1043 128.689H42.4836V137.31M51.1043 128.689V137.31M76.9663 128.689H85.587M76.9663 128.689V137.31M94.2077 128.689H85.587M94.2077 128.689H102.828M85.587 128.689V137.31M102.828 128.689H111.449M102.828 128.689V137.31M111.449 128.689V137.31M128.69 128.689H137.311M128.69 128.689V137.31M145.932 128.689H137.311M145.932 128.689V137.31M137.311 128.689V137.31M171.794 128.689H180.415M171.794 128.689V137.31M180.415 128.689V137.31M180.415 128.689H189.035M197.656 128.689H189.035M197.656 128.689H206.277M197.656 128.689V137.31M189.035 128.689V137.31M206.277 128.689H214.897M206.277 128.689V137.31M214.897 128.689V137.31M51.1043 137.31H42.4836M51.1043 137.31H59.7249M51.1043 137.31V145.931M42.4836 137.31H33.8629V145.931M42.4836 137.31V145.931M85.587 137.31H76.9663M85.587 137.31H94.2077V145.931M85.587 137.31V145.931M76.9663 137.31H68.3456M76.9663 137.31V145.931M111.449 137.31H102.828M111.449 137.31V145.931M111.449 137.31H120.07V145.931M102.828 137.31V145.931M137.311 137.31H128.69M137.311 137.31H145.932M137.311 137.31V145.931M128.69 137.31V145.931H137.311M145.932 137.31V145.931M145.932 137.31H154.553V145.931M180.415 137.31H171.794M180.415 137.31H189.035M180.415 137.31V145.931H171.794V137.31M189.035 137.31H197.656M197.656 137.31H206.277M206.277 137.31H214.897M206.277 137.31V145.931M214.897 137.31V145.931H206.277M42.4836 145.931H33.8629M42.4836 145.931V154.552M42.4836 145.931H51.1043M33.8629 145.931H25.2422V154.552H33.8629M33.8629 145.931V154.552M59.7249 137.31V145.931M59.7249 137.31H68.3456M59.7249 145.931H51.1043M59.7249 145.931H68.3456M59.7249 145.931V154.552M51.1043 145.931V154.552M68.3456 137.31V145.931M68.3456 145.931H76.9663M76.9663 145.931H85.587M76.9663 145.931V154.552M94.2077 145.931H85.587M94.2077 145.931V154.552M85.587 145.931V154.552M111.449 145.931H102.828M111.449 145.931H120.07M111.449 145.931V154.552M102.828 145.931V154.552H111.449M120.07 145.931V154.552M137.311 145.931H145.932M145.932 145.931H154.553M154.553 145.931H163.173V154.552H154.553V145.931ZM206.277 145.931H197.656V154.552M206.277 145.931V154.552M240.759 145.931V137.31H232.139V145.931M240.759 145.931H232.139M240.759 145.931V154.552H232.139V145.931M33.8629 154.552H42.4836M42.4836 154.552H51.1043M42.4836 154.552V163.172M51.1043 154.552H59.7249M51.1043 154.552V163.172M59.7249 154.552H68.3456M59.7249 154.552V163.172M85.587 154.552H76.9663M85.587 154.552H94.2077M85.587 154.552V163.172M76.9663 154.552H68.3456M76.9663 154.552V163.172M94.2077 154.552V163.172M111.449 154.552H120.07M111.449 154.552V163.172M120.07 154.552V163.172M206.277 154.552H197.656M206.277 154.552H214.897V163.172H206.277M206.277 154.552V163.172M197.656 154.552H189.035M197.656 154.552V163.172M51.1043 163.172H42.4836M51.1043 163.172V171.793M51.1043 163.172H59.7249M42.4836 163.172H33.8629M42.4836 163.172V171.793M68.3456 154.552V163.172M68.3456 163.172H59.7249M68.3456 163.172H76.9663M68.3456 163.172V171.793H76.9663M59.7249 163.172V171.793H51.1043M76.9663 163.172V171.793M76.9663 163.172H85.587M94.2077 163.172H85.587M94.2077 163.172V171.793M94.2077 163.172H102.828M85.587 163.172V171.793M120.07 163.172H111.449M120.07 163.172V171.793M120.07 163.172H128.69M111.449 163.172H102.828M111.449 163.172V171.793M137.311 154.552H128.69V163.172M137.311 154.552V163.172M137.311 154.552H145.932V163.172M137.311 163.172H128.69M137.311 163.172H145.932M137.311 163.172V171.793M128.69 163.172V171.793M145.932 163.172V171.793H137.311M189.035 154.552H180.415V163.172M189.035 154.552V163.172M189.035 163.172H180.415M189.035 163.172H197.656M189.035 163.172V171.793M180.415 163.172H171.794M180.415 163.172V171.793M197.656 163.172V171.793M197.656 163.172H206.277M206.277 163.172V171.793M33.8629 163.172H25.2422V171.793H33.8629M33.8629 163.172V171.793M33.8629 171.793H42.4836M42.4836 171.793H51.1043M76.9663 171.793H85.587M85.587 171.793H94.2077M94.2077 171.793H102.828M94.2077 171.793V180.414M102.828 163.172V171.793M102.828 171.793H111.449M102.828 171.793V180.414M111.449 171.793H120.07M111.449 171.793V180.414M120.07 171.793H128.69M120.07 171.793V180.414M128.69 171.793H137.311M128.69 171.793V180.414M137.311 171.793V180.414M163.173 163.172H154.553V171.793H163.173M163.173 163.172V171.793M163.173 163.172H171.794M163.173 171.793H171.794M163.173 171.793V180.414M171.794 163.172V171.793M171.794 171.793H180.415M171.794 171.793V180.414M180.415 171.793H189.035M189.035 171.793H197.656M197.656 171.793H206.277M197.656 171.793V180.414M206.277 171.793V180.414M232.139 171.793V163.172H223.518V171.793M232.139 171.793H223.518M232.139 171.793H240.759V180.414M232.139 171.793V180.414M223.518 171.793H214.897V180.414M223.518 171.793V180.414M102.828 180.414H94.2077M102.828 180.414V189.034M94.2077 180.414V189.034M120.07 180.414H111.449M120.07 180.414V189.034M120.07 180.414H128.69M111.449 180.414V189.034M137.311 180.414H128.69M137.311 180.414V189.034H128.69M128.69 180.414V189.034M171.794 180.414H163.173M171.794 180.414V189.034M163.173 180.414H154.553V189.034M163.173 180.414V189.034M206.277 180.414H197.656M206.277 180.414V189.034M197.656 180.414V189.034M223.518 180.414H214.897M223.518 180.414V189.034H214.897M214.897 180.414V189.034M240.759 180.414H232.139M240.759 180.414V189.034H232.139V180.414M33.8629 180.414H25.2422V189.034M33.8629 180.414V189.034M33.8629 180.414H42.4836M33.8629 189.034H25.2422M33.8629 189.034H42.4836M33.8629 189.034V197.655M25.2422 189.034V197.655M42.4836 180.414V189.034M42.4836 180.414H51.1043M42.4836 189.034H51.1043M51.1043 180.414V189.034M51.1043 180.414H59.7249M51.1043 189.034H59.7249M59.7249 180.414V189.034M59.7249 180.414H68.3456M59.7249 189.034H68.3456M68.3456 180.414V189.034M68.3456 180.414H76.9663M68.3456 189.034H76.9663M76.9663 180.414V189.034M76.9663 180.414H85.587V189.034M76.9663 189.034H85.587M76.9663 189.034V197.655M85.587 189.034V197.655M102.828 189.034H94.2077M102.828 189.034V197.655M102.828 189.034H111.449M94.2077 189.034V197.655H102.828M120.07 189.034H111.449M120.07 189.034H128.69M120.07 189.034V197.655M111.449 189.034V197.655M128.69 189.034V197.655M163.173 189.034H154.553M163.173 189.034H171.794M163.173 189.034V197.655M154.553 189.034H145.932V197.655M154.553 189.034V197.655M171.794 189.034V197.655M206.277 189.034H197.656M206.277 189.034V197.655M206.277 189.034H214.897M197.656 189.034V197.655M214.897 189.034V197.655M33.8629 197.655H25.2422M33.8629 197.655V206.276M25.2422 197.655V206.276M85.587 197.655H76.9663M85.587 197.655V206.276M76.9663 197.655V206.276M102.828 197.655H111.449M111.449 197.655H120.07M111.449 197.655V206.276M128.69 197.655H120.07M128.69 197.655H137.311M128.69 197.655V206.276M120.07 197.655V206.276M154.553 197.655H145.932M154.553 197.655H163.173M154.553 197.655V206.276H145.932M145.932 197.655H137.311M145.932 197.655V206.276M163.173 197.655H171.794M163.173 197.655V206.276M171.794 197.655V206.276M171.794 197.655H180.415M206.277 197.655H197.656M206.277 197.655H214.897M206.277 197.655V206.276M197.656 197.655H189.035M197.656 197.655V206.276M214.897 197.655V206.276M33.8629 206.276H25.2422M33.8629 206.276V214.896M25.2422 206.276V214.896M51.1043 197.655H42.4836V206.276M51.1043 197.655V206.276M51.1043 197.655H59.7249M51.1043 206.276H42.4836M51.1043 206.276H59.7249M51.1043 206.276V214.896M42.4836 206.276V214.896M59.7249 197.655V206.276M59.7249 197.655H68.3456V206.276M59.7249 206.276H68.3456M59.7249 206.276V214.896M68.3456 206.276V214.896M85.587 206.276H76.9663M85.587 206.276V214.896M76.9663 206.276V214.896M120.07 206.276H111.449M120.07 206.276V214.896M120.07 206.276H128.69M111.449 206.276V214.896M137.311 197.655V206.276M137.311 206.276H128.69M137.311 206.276H145.932M128.69 206.276V214.896M171.794 206.276H163.173M171.794 206.276H180.415M171.794 206.276V214.896M163.173 206.276V214.896H171.794M180.415 197.655V206.276M180.415 197.655H189.035M180.415 206.276H189.035M180.415 206.276V214.896M189.035 197.655V206.276M189.035 206.276H197.656M189.035 206.276V214.896M197.656 206.276H206.277M197.656 206.276V214.896M206.277 206.276H214.897M206.277 206.276V214.896M214.897 206.276H223.518M214.897 206.276V214.896M223.518 206.276H232.139V197.655H223.518V206.276ZM223.518 206.276V214.896M33.8629 214.896H25.2422M33.8629 214.896V223.517M25.2422 214.896V223.517M51.1043 214.896H42.4836M51.1043 214.896H59.7249M51.1043 214.896V223.517M42.4836 214.896V223.517H51.1043M59.7249 214.896H68.3456M59.7249 214.896V223.517M68.3456 214.896V223.517H59.7249M85.587 214.896H76.9663M85.587 214.896V223.517M76.9663 214.896V223.517M120.07 214.896H111.449M120.07 214.896H128.69M120.07 214.896V223.517M111.449 214.896H102.828M111.449 214.896V223.517M128.69 214.896V223.517M128.69 214.896H137.311M171.794 214.896H180.415M171.794 214.896V223.517H180.415M180.415 214.896H189.035M180.415 214.896V223.517M189.035 214.896V223.517H180.415M206.277 214.896H197.656M206.277 214.896V223.517M197.656 214.896V223.517H206.277M223.518 214.896H214.897M223.518 214.896V223.517M223.518 214.896H232.139M214.897 214.896V223.517M33.8629 223.517H25.2422M33.8629 223.517V232.138M25.2422 223.517V232.138M51.1043 223.517H59.7249M85.587 223.517H76.9663M85.587 223.517V232.138M76.9663 223.517V232.138M102.828 214.896H94.2077V223.517H102.828M102.828 214.896V223.517M102.828 223.517H111.449M102.828 223.517V232.138M111.449 223.517V232.138M111.449 223.517H120.07M128.69 223.517H120.07M128.69 223.517H137.311M120.07 223.517V232.138M137.311 214.896V223.517M137.311 214.896H145.932M137.311 223.517H145.932M145.932 214.896V223.517M145.932 214.896H154.553V223.517M145.932 223.517H154.553M154.553 223.517H163.173V232.138M154.553 223.517V232.138M206.277 223.517H214.897M206.277 223.517V232.138M223.518 223.517H214.897M223.518 223.517H232.139M214.897 223.517V232.138M232.139 214.896V223.517M232.139 214.896H240.759V223.517H232.139M33.8629 232.138H25.2422M33.8629 232.138V240.758M33.8629 232.138H42.4836M25.2422 232.138V240.758H33.8629M85.587 232.138H76.9663M85.587 232.138V240.758H76.9663M76.9663 232.138H68.3456M76.9663 232.138V240.758M111.449 232.138H102.828M111.449 232.138H120.07M111.449 232.138V240.758M102.828 232.138V240.758H111.449M120.07 232.138V240.758H111.449M163.173 232.138H154.553M163.173 232.138V240.758M163.173 232.138H171.794V240.758H163.173M154.553 232.138H145.932M154.553 232.138V240.758M214.897 232.138H206.277M214.897 232.138V240.758H206.277V232.138M33.8629 240.758H42.4836M42.4836 232.138V240.758M42.4836 232.138H51.1043M42.4836 240.758H51.1043M51.1043 232.138V240.758M51.1043 232.138H59.7249M51.1043 240.758H59.7249M59.7249 232.138V240.758M59.7249 232.138H68.3456M59.7249 240.758H68.3456M68.3456 232.138V240.758M68.3456 240.758H76.9663M145.932 232.138H137.311V240.758H145.932M145.932 232.138V240.758M145.932 240.758H154.553M154.553 240.758H163.173M189.035 232.138H180.415V240.758H189.035M189.035 232.138V240.758M189.035 232.138H197.656V240.758H189.035M180.415 180.414H189.035V189.034H180.415V180.414ZM232.139 232.138H240.759V240.758H232.139V232.138Z" stroke="black" stroke-width="0.5"/>
</g>
<defs>
<filter id="filter0_d_122_2598" x="0" y="0" width="266" height="266" filterUnits="userSpaceOnUse" color-interpolation-filters="sRGB">
<feFlood flood-opacity="0" result="BackgroundImageFix"/>
<feColorMatrix in="SourceAlpha" type="matrix" values="0 0 0 0 0 0 0 0 0 0 0 0 0 0 0 0 0 0 127 0" result="hardAlpha"/>
<feOffset/>
<feGaussianBlur stdDeviation="4"/>
<feComposite in2="hardAlpha" operator="out"/>
<feColorMatrix type="matrix" values="0 0 0 0 0 0 0 0 0 0 0 0 0 0 0 0 0 0 0.25 0"/>
<feBlend mode="normal" in2="BackgroundImageFix" result="effect1_dropShadow_122_2598"/>
<feBlend mode="normal" in="SourceGraphic" in2="effect1_dropShadow_122_2598" result="shape"/>
</filter>
</defs>
</svg>
