<svg width="40" height="32" viewBox="0 0 40 32" fill="none" xmlns="http://www.w3.org/2000/svg">
<path d="M20.053 25.168C14.688 25.168 12.293 22.527 12.293 20.548C12.293 19.527 13.038 18.819 14.069 18.819C16.366 18.819 15.767 22.121 20.053 22.121C22.241 22.121 23.449 20.928 23.449 19.71C23.449 18.976 23.095 18.163 21.647 17.804L16.876 16.611C13.037 15.642 12.34 13.564 12.34 11.606C12.34 7.543 16.158 6.023 19.741 6.023C23.033 6.023 26.929 7.851 26.929 10.289C26.929 11.331 26.012 11.94 24.991 11.94C23.033 11.94 23.397 9.221 19.439 9.221C17.481 9.221 16.387 10.106 16.387 11.377C16.387 12.648 17.923 13.054 19.262 13.361L22.778 14.142C26.632 15.012 27.611 17.272 27.611 19.402C27.611 22.704 25.075 25.168 19.981 25.168H20.053ZM34.756 18.657L34.72 18.839L34.663 18.516C34.679 18.579 34.72 18.615 34.741 18.677C34.897 17.776 34.981 16.859 34.981 15.943C34.981 13.901 34.58 11.927 33.783 10.047C33.028 8.25 31.924 6.63 30.549 5.255C29.148 3.875 27.554 2.781 25.757 2.021C23.997 1.177 22.023 0.781 19.986 0.781C19.022 0.781 18.059 0.87 17.127 1.052L17.283 1.13L16.965 1.088L17.126 1.052C15.84 0.364 14.397 0 12.933 0C10.548 0 8.308 0.932 6.62 2.625C4.932 4.313 4 6.563 4 8.953C4 10.479 4.391 11.974 5.125 13.297L5.151 13.136L5.208 13.454L5.13 13.298C4.974 14.157 4.896 15.032 4.896 15.907C4.896 17.949 5.297 19.928 6.078 21.792C6.833 23.61 7.917 25.23 9.312 26.605C10.692 28.006 12.307 29.084 14.104 29.86C15.963 30.662 17.943 31.058 19.979 31.058C20.859 31.058 21.755 30.98 22.614 30.818L22.453 30.74L22.776 30.797L22.594 30.839C23.933 31.599 25.433 32 26.99 32C29.365 32 31.599 31.078 33.297 29.38C34.979 27.703 35.917 25.448 35.917 23.052C35.917 21.531 35.516 20.036 34.776 18.698L34.756 18.657Z" fill="#878787"/>
</svg>
