<svg width="120" height="60" viewBox="0 0 120 60" fill="none" xmlns="http://www.w3.org/2000/svg">
<path d="M0 60L120 60L60 0L0 60Z" fill="#BA181B"/>
<path d="M50.866 31.594V33.882H47.98V48H44.99V33.882H42.13V31.594H50.866ZM58.0863 31.594H61.2583C63.1476 31.594 64.0923 32.452 64.0923 34.168V45.426C64.0923 47.142 63.1476 48 61.2583 48H58.0863C56.1969 48 55.2523 47.142 55.2523 45.426V34.168C55.2523 32.452 56.1969 31.594 58.0863 31.594ZM61.1023 45.01V34.584C61.1023 34.3067 61.0503 34.1247 60.9463 34.038C60.8423 33.934 60.6516 33.882 60.3743 33.882H58.9963C58.7016 33.882 58.5023 33.934 58.3983 34.038C58.2943 34.1247 58.2423 34.3067 58.2423 34.584V45.01C58.2423 45.2873 58.2943 45.478 58.3983 45.582C58.5023 45.6687 58.7016 45.712 58.9963 45.712H60.3743C60.6516 45.712 60.8423 45.6687 60.9463 45.582C61.0503 45.478 61.1023 45.2873 61.1023 45.01ZM69.6228 31.594H75.6548C77.5441 31.594 78.4888 32.452 78.4888 34.168V39.394C78.4888 41.11 77.5441 41.968 75.6548 41.968H72.6128V48H69.6228V31.594ZM75.4988 38.978V34.584C75.4988 34.3067 75.4468 34.1247 75.3428 34.038C75.2388 33.934 75.0481 33.882 74.7708 33.882H72.6128V39.68H74.7708C75.0481 39.68 75.2388 39.6367 75.3428 39.55C75.4468 39.446 75.4988 39.2553 75.4988 38.978Z" fill="white"/>
</svg>
