<svg width="40" height="32" viewBox="0 0 40 32" fill="none" xmlns="http://www.w3.org/2000/svg">
<path d="M27.0691 9.68355C27.5345 9.68355 27.9855 9.70498 28.4364 9.76211C27.2291 4.16336 21.1127 0 14.16 0C6.36364 0 0 5.19884 0 11.8116C0 15.6251 2.13091 18.7744 5.66545 21.2096L4.26182 25.3943L9.20727 22.9592C10.9818 23.3019 12.3927 23.6519 14.1673 23.6519C14.6182 23.6519 15.0473 23.6304 15.4982 23.5947C15.2073 22.6735 15.0473 21.6952 15.0473 20.6811C15.04 14.6182 20.3491 9.68355 27.0691 9.68355ZM19.4691 5.90582C20.5236 5.90582 21.2291 6.59853 21.2291 7.64829C21.2291 8.68378 20.5236 9.37648 19.4691 9.37648C18.3927 9.37648 17.3382 8.68378 17.3382 7.64829C17.3455 6.59853 18.4 5.90582 19.4691 5.90582ZM9.54909 9.37648C8.49454 9.37648 7.41818 8.68378 7.41818 7.64829C7.41818 6.59139 8.49454 5.90582 9.54909 5.90582C10.6255 5.90582 11.3236 6.59853 11.3236 7.64829C11.3236 8.69092 10.6255 9.37648 9.54909 9.37648ZM40 20.524C40 14.9609 34.3345 10.4334 27.9709 10.4334C21.2291 10.4334 15.9418 14.9609 15.9418 20.524C15.9418 26.087 21.2364 30.6146 27.9709 30.6146C29.3745 30.6146 30.8 30.2504 32.2327 29.9076L36.1164 32L35.04 28.5293C37.8909 26.4298 40 23.6519 40 20.524ZM24.0655 18.7744C23.36 18.7744 22.6618 18.0817 22.6618 17.3747C22.6618 16.682 23.3673 15.9964 24.0655 15.9964C25.1418 15.9964 25.84 16.6891 25.84 17.3747C25.84 18.0888 25.1345 18.7744 24.0655 18.7744ZM31.8545 18.7744C31.1491 18.7744 30.4509 18.0817 30.4509 17.3747C30.4509 16.682 31.1564 15.9964 31.8545 15.9964C32.9091 15.9964 33.6291 16.6891 33.6291 17.3747C33.6364 18.0888 32.9091 18.7744 31.8545 18.7744Z" fill="#878787"/>
</svg>
