<svg width="32" height="32" viewBox="0 0 32 32" fill="none" xmlns="http://www.w3.org/2000/svg">
<path d="M21.8133 18.6667C21.92 17.7867 22 16.9067 22 16C22 15.0934 21.92 14.2134 21.8133 13.3334H26.32C26.5333 14.1867 26.6666 15.08 26.6666 16C26.6666 16.92 26.5333 17.8134 26.32 18.6667M19.4533 26.08C20.2533 24.6 20.8666 23 21.2933 21.3334H25.2266C23.9349 23.5577 21.8854 25.2427 19.4533 26.08ZM19.12 18.6667H12.88C12.7466 17.7867 12.6666 16.9067 12.6666 16C12.6666 15.0934 12.7466 14.2 12.88 13.3334H19.12C19.24 14.2 19.3333 15.0934 19.3333 16C19.3333 16.9067 19.24 17.7867 19.12 18.6667ZM16 26.6134C14.8933 25.0134 14 23.24 13.4533 21.3334H18.5466C18 23.24 17.1066 25.0134 16 26.6134ZM10.6666 10.6667H6.77329C8.05177 8.43631 10.0997 6.74867 12.5333 5.92002C11.7333 7.40002 11.1333 9.00002 10.6666 10.6667ZM6.77329 21.3334H10.6666C11.1333 23 11.7333 24.6 12.5333 26.08C10.1048 25.2422 8.05975 23.557 6.77329 21.3334ZM5.67996 18.6667C5.46663 17.8134 5.33329 16.92 5.33329 16C5.33329 15.08 5.46663 14.1867 5.67996 13.3334H10.1866C10.08 14.2134 9.99996 15.0934 9.99996 16C9.99996 16.9067 10.08 17.7867 10.1866 18.6667M16 5.37335C17.1066 6.97335 18 8.76002 18.5466 10.6667H13.4533C14 8.76002 14.8933 6.97335 16 5.37335ZM25.2266 10.6667H21.2933C20.876 9.0153 20.2581 7.42121 19.4533 5.92002C21.9066 6.76002 23.9466 8.45335 25.2266 10.6667ZM16 2.66669C8.62663 2.66669 2.66663 8.66669 2.66663 16C2.66663 19.5362 4.07138 22.9276 6.57187 25.4281C7.80998 26.6662 9.27984 27.6484 10.8975 28.3184C12.5152 28.9885 14.249 29.3334 16 29.3334C19.5362 29.3334 22.9276 27.9286 25.428 25.4281C27.9285 22.9276 29.3333 19.5362 29.3333 16C29.3333 14.2491 28.9884 12.5152 28.3184 10.8976C27.6483 9.2799 26.6662 7.81004 25.428 6.57193C24.1899 5.33382 22.7201 4.35169 21.1024 3.68163C19.4847 3.01156 17.7509 2.66669 16 2.66669Z" fill="white"/>
</svg>
