<svg width="378" height="80" viewBox="0 0 378 80" fill="none" xmlns="http://www.w3.org/2000/svg">
<g clip-path="url(#clip0_101_1821)">
<g clip-path="url(#clip1_101_1821)">
<path d="M43.7781 77.9109C64.7157 77.9109 81.689 60.9376 81.689 39.9999C81.689 19.0622 64.7157 2.08887 43.7781 2.08887C22.8405 2.08887 5.86719 19.0622 5.86719 39.9999C5.86719 60.9376 22.8405 77.9109 43.7781 77.9109Z" fill="url(#paint0_linear_101_1821)"/>
<path d="M43.778 80C21.7181 80 3.77808 62.0503 3.77808 40C3.77808 17.9497 21.7181 0 43.778 0C65.8378 0 83.7778 17.94 83.7778 40C83.7778 62.06 65.8378 80 43.778 80ZM43.778 4.18762C24.0295 4.17795 7.95601 20.2515 7.95601 40C7.95601 59.7486 24.0198 75.8124 43.7683 75.8124C63.5168 75.8124 79.5805 59.7486 79.5805 40C79.5805 20.2515 63.5264 4.17795 43.778 4.17795V4.18762Z" fill="url(#paint1_linear_101_1821)"/>
<path d="M51.5052 34.0691L51.4858 25.984V25.955L47.3272 25.9357H40.7218C41.5439 28.2374 41.5536 30.2877 41.5439 30.6552C40.0352 27.2122 37.511 23.4405 36.3988 24.0788C36.0023 24.3012 35.954 24.9975 36.1377 25.9357H33.0816C33.9907 28.4792 33.9037 30.7132 33.9037 30.7132L33.8553 30.6939C32.3466 27.2413 29.8128 23.4405 28.7006 24.0788C28.3041 24.3012 28.2557 24.9975 28.4395 25.9357H25.5671C26.4472 28.4018 26.3989 30.5681 26.3892 30.7035C24.8805 27.2509 22.337 23.4308 21.2248 24.0788C20.6058 24.4366 20.8476 25.9647 21.5149 27.8119L16.7954 29.9975L24.3486 33.3728C25.4704 35.0362 26.5729 36.1387 27.2209 35.7712C27.6174 35.5488 27.6658 34.8525 27.482 33.9144H32.2016C33.188 35.2683 34.1261 36.1001 34.6967 35.7712C35.0932 35.5488 35.1416 34.8525 34.9578 33.9144L40.422 33.895L22.6948 50.8486V58.189H46.3118V50.3651L34.5226 50.5198L51.5052 34.0594V34.0691Z" fill="url(#paint2_linear_101_1821)"/>
<path d="M59.8222 25.8774L52.9461 36.9993L52.0176 35.1424L45.0254 41.8639L47.5399 46.3223L47.7043 58.1792H57.8783V46.4771L70.2284 25.8774H59.8222Z" fill="url(#paint3_linear_101_1821)"/>
</g>
<g filter="url(#filter0_d_101_1821)">
<path d="M103.91 52.5V47.1719L122.537 23.9902H128.982V29.5117L110.162 52.5H103.91ZM104.49 30.2207V23.9902H120.668L115.275 30.2207H104.49ZM112.074 52.5L117.488 46.248H128.596V52.5H112.074ZM152.785 52.5V40.9199H145.739V35.2051H152.721V23.9902H162.303V52.5H152.785ZM134.739 52.5V23.9902H144.235V52.5H134.739ZM188.856 52.5L187.653 49.3848H178.329L180.305 43.7344H185.461L177.834 23.9902H187.094L198.459 52.5H188.856ZM166.62 52.5L176.803 25.2793L181.014 36.6016L175.793 52.5H166.62ZM220.028 52.5L202.755 23.9902H212.788L230.126 52.5H220.028ZM230.126 49.793L221.854 36.1719V23.9902H230.126V49.793ZM202.755 52.5V26.6973L211.026 40.2539V52.5H202.755ZM256.655 52.5V43.4336L246.988 23.9902H256.312L266.173 44.0996V52.5H256.655ZM266.775 42.1016L262.155 32.7344L266.839 23.9902H275.97L266.775 42.1016ZM295.841 52.5L294.638 49.3848H285.314L287.29 43.7344H292.447L284.82 23.9902H294.08L305.445 52.5H295.841ZM273.605 52.5L283.789 25.2793L287.999 36.6016L282.779 52.5H273.605ZM327.013 52.5L309.74 23.9902H319.773L337.111 52.5H327.013ZM337.111 49.793L328.84 36.1719V23.9902H337.111V49.793ZM309.74 52.5V26.6973L318.011 40.2539V52.5H309.74ZM349.119 52.5L343.426 46.8066V29.6836L349.119 23.9902H352.922V46.8066H361.064V52.5H349.119ZM361.494 32.541V29.6836H354.426V23.9902H366.006L370.99 29.6836V32.541H361.494ZM362.568 52.5V42.3379H357.949V36.6875H370.99V52.5H362.568Z" fill="url(#paint4_linear_101_1821)"/>
<path d="M103.91 52.5H103.41C103.41 52.7761 103.634 53 103.91 53V52.5ZM103.91 47.1719L103.52 46.8587C103.449 46.9475 103.41 47.058 103.41 47.1719H103.91ZM122.537 23.9902V23.4902C122.386 23.4902 122.242 23.5589 122.147 23.6771L122.537 23.9902ZM128.982 23.9902H129.482C129.482 23.7141 129.259 23.4902 128.982 23.4902V23.9902ZM128.982 29.5117L129.369 29.8285C129.442 29.7391 129.482 29.6272 129.482 29.5117H128.982ZM110.162 52.5V53C110.312 53 110.454 52.9327 110.549 52.8167L110.162 52.5ZM104.49 30.2207H103.99C103.99 30.4968 104.214 30.7207 104.49 30.7207V30.2207ZM104.49 23.9902V23.4902C104.214 23.4902 103.99 23.7141 103.99 23.9902H104.49ZM120.668 23.9902L121.046 24.3175C121.174 24.1695 121.204 23.9604 121.123 23.7824C121.041 23.6044 120.864 23.4902 120.668 23.4902V23.9902ZM115.275 30.2207V30.7207C115.421 30.7207 115.558 30.6576 115.653 30.5479L115.275 30.2207ZM112.074 52.5L111.696 52.1727C111.568 52.3206 111.538 52.5298 111.619 52.7078C111.701 52.8858 111.878 53 112.074 53V52.5ZM117.488 46.248V45.748C117.343 45.748 117.205 45.8111 117.11 45.9207L117.488 46.248ZM128.596 46.248H129.096C129.096 45.9719 128.872 45.748 128.596 45.748V46.248ZM128.596 52.5V53C128.872 53 129.096 52.7761 129.096 52.5H128.596ZM104.41 52.5V47.1719H103.41V52.5H104.41ZM104.3 47.4851L122.927 24.3034L122.147 23.6771L103.52 46.8587L104.3 47.4851ZM122.537 24.4902H128.982V23.4902H122.537V24.4902ZM128.482 23.9902V29.5117H129.482V23.9902H128.482ZM128.596 29.195L109.775 52.1833L110.549 52.8167L129.369 29.8285L128.596 29.195ZM110.162 52H103.91V53H110.162V52ZM104.99 30.2207V23.9902H103.99V30.2207H104.99ZM104.49 24.4902H120.668V23.4902H104.49V24.4902ZM120.29 23.663L114.897 29.8935L115.653 30.5479L121.046 24.3175L120.29 23.663ZM115.275 29.7207H104.49V30.7207H115.275V29.7207ZM112.452 52.8273L117.866 46.5754L117.11 45.9207L111.696 52.1727L112.452 52.8273ZM117.488 46.748H128.596V45.748H117.488V46.748ZM128.096 46.248V52.5H129.096V46.248H128.096ZM128.596 52H112.074V53H128.596V52ZM152.785 52.5H152.285C152.285 52.7761 152.509 53 152.785 53V52.5ZM152.785 40.9199H153.285C153.285 40.6438 153.062 40.4199 152.785 40.4199V40.9199ZM145.739 40.9199H145.239C145.239 41.1961 145.462 41.4199 145.739 41.4199V40.9199ZM145.739 35.2051V34.7051C145.462 34.7051 145.239 34.9289 145.239 35.2051H145.739ZM152.721 35.2051V35.7051C152.997 35.7051 153.221 35.4812 153.221 35.2051H152.721ZM152.721 23.9902V23.4902C152.445 23.4902 152.221 23.7141 152.221 23.9902H152.721ZM162.303 23.9902H162.803C162.803 23.7141 162.579 23.4902 162.303 23.4902V23.9902ZM162.303 52.5V53C162.579 53 162.803 52.7761 162.803 52.5H162.303ZM134.739 52.5H134.239C134.239 52.7761 134.462 53 134.739 53V52.5ZM134.739 23.9902V23.4902C134.462 23.4902 134.239 23.7141 134.239 23.9902H134.739ZM144.235 23.9902H144.735C144.735 23.7141 144.511 23.4902 144.235 23.4902V23.9902ZM144.235 52.5V53C144.511 53 144.735 52.7761 144.735 52.5H144.235ZM153.285 52.5V40.9199H152.285V52.5H153.285ZM152.785 40.4199H145.739V41.4199H152.785V40.4199ZM146.239 40.9199V35.2051H145.239V40.9199H146.239ZM145.739 35.7051H152.721V34.7051H145.739V35.7051ZM153.221 35.2051V23.9902H152.221V35.2051H153.221ZM152.721 24.4902H162.303V23.4902H152.721V24.4902ZM161.803 23.9902V52.5H162.803V23.9902H161.803ZM162.303 52H152.785V53H162.303V52ZM135.239 52.5V23.9902H134.239V52.5H135.239ZM134.739 24.4902H144.235V23.4902H134.739V24.4902ZM143.735 23.9902V52.5H144.735V23.9902H143.735ZM144.235 52H134.739V53H144.235V52ZM188.856 52.5L188.39 52.6801C188.464 52.8729 188.649 53 188.856 53V52.5ZM187.653 49.3848L188.119 49.2046C188.045 49.0119 187.859 48.8848 187.653 48.8848V49.3848ZM178.329 49.3848L177.857 49.2197C177.803 49.3726 177.827 49.542 177.921 49.6741C178.015 49.8063 178.167 49.8848 178.329 49.8848V49.3848ZM180.305 43.7344V43.2344C180.093 43.2344 179.903 43.3687 179.833 43.5693L180.305 43.7344ZM185.461 43.7344V44.2344C185.626 44.2344 185.781 44.1531 185.874 44.0171C185.967 43.8812 185.987 43.708 185.928 43.5542L185.461 43.7344ZM177.834 23.9902V23.4902C177.67 23.4902 177.515 23.5715 177.422 23.7075C177.329 23.8434 177.309 24.0166 177.368 24.1704L177.834 23.9902ZM187.094 23.9902L187.559 23.8051C187.483 23.615 187.299 23.4902 187.094 23.4902V23.9902ZM198.459 52.5V53C198.625 53 198.78 52.9178 198.873 52.7806C198.966 52.6433 198.985 52.4689 198.924 52.3148L198.459 52.5ZM166.62 52.5L166.151 52.3248C166.094 52.4783 166.115 52.6503 166.209 52.785C166.302 52.9197 166.456 53 166.62 53V52.5ZM176.803 25.2793L177.272 25.105C177.199 24.9094 177.012 24.7795 176.804 24.7793C176.595 24.7791 176.408 24.9086 176.335 25.1041L176.803 25.2793ZM181.014 36.6016L181.489 36.7576C181.525 36.6499 181.522 36.5335 181.483 36.4273L181.014 36.6016ZM175.793 52.5V53C176.009 53 176.201 52.8612 176.268 52.656L175.793 52.5ZM189.322 52.3199L188.119 49.2046L187.186 49.5649L188.39 52.6801L189.322 52.3199ZM187.653 48.8848H178.329V49.8848H187.653V48.8848ZM178.801 49.5499L180.777 43.8995L179.833 43.5693L177.857 49.2197L178.801 49.5499ZM180.305 44.2344H185.461V43.2344H180.305V44.2344ZM185.928 43.5542L178.301 23.8101L177.368 24.1704L184.995 43.9145L185.928 43.5542ZM177.834 24.4902H187.094V23.4902H177.834V24.4902ZM186.63 24.1754L197.995 52.6852L198.924 52.3148L187.559 23.8051L186.63 24.1754ZM198.459 52H188.856V53H198.459V52ZM167.088 52.6752L177.272 25.4545L176.335 25.1041L166.151 52.3248L167.088 52.6752ZM176.335 25.4536L180.546 36.7759L181.483 36.4273L177.272 25.105L176.335 25.4536ZM180.539 36.4456L175.318 52.344L176.268 52.656L181.489 36.7576L180.539 36.4456ZM175.793 52H166.62V53H175.793V52ZM220.028 52.5L219.6 52.7591C219.691 52.9086 219.853 53 220.028 53V52.5ZM202.755 23.9902V23.4902C202.574 23.4902 202.408 23.5875 202.319 23.7448C202.23 23.9021 202.233 24.0949 202.327 24.2493L202.755 23.9902ZM212.788 23.9902L213.215 23.7304C213.124 23.5813 212.962 23.4902 212.788 23.4902V23.9902ZM230.126 52.5V53C230.306 53 230.473 52.9025 230.562 52.7451C230.65 52.5876 230.647 52.3946 230.553 52.2402L230.126 52.5ZM230.126 49.793L229.698 50.0525C229.815 50.2442 230.045 50.3349 230.26 50.2745C230.476 50.214 230.626 50.0172 230.626 49.793H230.126ZM221.854 36.1719H221.354C221.354 36.2634 221.379 36.3532 221.427 36.4314L221.854 36.1719ZM221.854 23.9902V23.4902C221.578 23.4902 221.354 23.7141 221.354 23.9902H221.854ZM230.126 23.9902H230.626C230.626 23.7141 230.402 23.4902 230.126 23.4902V23.9902ZM202.755 52.5H202.255C202.255 52.7761 202.478 53 202.755 53V52.5ZM202.755 26.6973L203.181 26.4368C203.065 26.2456 202.835 26.1553 202.619 26.2159C202.404 26.2765 202.255 26.4732 202.255 26.6973H202.755ZM211.026 40.2539H211.526C211.526 40.162 211.501 40.0719 211.453 39.9935L211.026 40.2539ZM211.026 52.5V53C211.302 53 211.526 52.7761 211.526 52.5H211.026ZM220.456 52.2409L203.182 23.7311L202.327 24.2493L219.6 52.7591L220.456 52.2409ZM202.755 24.4902H212.788V23.4902H202.755V24.4902ZM212.361 24.25L229.698 52.7598L230.553 52.2402L213.215 23.7304L212.361 24.25ZM230.126 52H220.028V53H230.126V52ZM230.553 49.5334L222.282 35.9124L221.427 36.4314L229.698 50.0525L230.553 49.5334ZM222.354 36.1719V23.9902H221.354V36.1719H222.354ZM221.854 24.4902H230.126V23.4902H221.854V24.4902ZM229.626 23.9902V49.793H230.626V23.9902H229.626ZM203.255 52.5V26.6973H202.255V52.5H203.255ZM202.328 26.9577L210.599 40.5143L211.453 39.9935L203.181 26.4368L202.328 26.9577ZM210.526 40.2539V52.5H211.526V40.2539H210.526ZM211.026 52H202.755V53H211.026V52ZM256.655 52.5H256.155C256.155 52.7761 256.379 53 256.655 53V52.5ZM256.655 43.4336H257.155C257.155 43.3563 257.138 43.2801 257.103 43.211L256.655 43.4336ZM246.988 23.9902V23.4902C246.814 23.4902 246.654 23.5798 246.562 23.7269C246.471 23.874 246.463 24.0579 246.54 24.2129L246.988 23.9902ZM256.312 23.9902L256.761 23.7701C256.677 23.5988 256.503 23.4902 256.312 23.4902V23.9902ZM266.173 44.0996H266.673C266.673 44.0233 266.656 43.948 266.622 43.8795L266.173 44.0996ZM266.173 52.5V53C266.449 53 266.673 52.7761 266.673 52.5H266.173ZM266.775 42.1016L266.326 42.3227C266.41 42.4925 266.582 42.6004 266.772 42.6016C266.961 42.6027 267.135 42.4967 267.22 42.3279L266.775 42.1016ZM262.155 32.7344L261.715 32.4983C261.639 32.6405 261.636 32.8108 261.707 32.9555L262.155 32.7344ZM266.839 23.9902V23.4902C266.655 23.4902 266.485 23.5917 266.398 23.7542L266.839 23.9902ZM275.97 23.9902L276.416 24.2166C276.494 24.0616 276.487 23.8768 276.396 23.7287C276.305 23.5805 276.144 23.4902 275.97 23.4902V23.9902ZM257.155 52.5V43.4336H256.155V52.5H257.155ZM257.103 43.211L247.435 23.7676L246.54 24.2129L256.208 43.6562L257.103 43.211ZM246.988 24.4902H256.312V23.4902H246.988V24.4902ZM255.863 24.2104L265.724 44.3198L266.622 43.8795L256.761 23.7701L255.863 24.2104ZM265.673 44.0996V52.5H266.673V44.0996H265.673ZM266.173 52H256.655V53H266.173V52ZM267.223 41.8804L262.604 32.5132L261.707 32.9555L266.326 42.3227L267.223 41.8804ZM262.596 32.9705L267.28 24.2263L266.398 23.7542L261.715 32.4983L262.596 32.9705ZM266.839 24.4902H275.97V23.4902H266.839V24.4902ZM275.524 23.7639L266.329 41.8752L267.22 42.3279L276.416 24.2166L275.524 23.7639ZM295.841 52.5L295.375 52.6801C295.449 52.8729 295.635 53 295.841 53V52.5ZM294.638 49.3848L295.105 49.2046C295.03 49.0119 294.845 48.8848 294.638 48.8848V49.3848ZM285.314 49.3848L284.842 49.2197C284.788 49.3726 284.812 49.542 284.906 49.6741C285 49.8063 285.152 49.8848 285.314 49.8848V49.3848ZM287.29 43.7344V43.2344C287.078 43.2344 286.889 43.3687 286.819 43.5693L287.29 43.7344ZM292.447 43.7344V44.2344C292.612 44.2344 292.766 44.1531 292.859 44.0171C292.952 43.8812 292.973 43.708 292.913 43.5542L292.447 43.7344ZM284.82 23.9902V23.4902C284.655 23.4902 284.501 23.5715 284.407 23.7075C284.314 23.8434 284.294 24.0166 284.353 24.1704L284.82 23.9902ZM294.08 23.9902L294.544 23.8051C294.468 23.615 294.284 23.4902 294.08 23.4902V23.9902ZM305.445 52.5V53C305.611 53 305.766 52.9178 305.859 52.7806C305.952 52.6433 305.971 52.4689 305.909 52.3148L305.445 52.5ZM273.605 52.5L273.137 52.3248C273.079 52.4783 273.101 52.6503 273.194 52.785C273.287 52.9197 273.441 53 273.605 53V52.5ZM283.789 25.2793L284.257 25.105C284.184 24.9094 283.998 24.7795 283.789 24.7793C283.58 24.7791 283.393 24.9086 283.32 25.1041L283.789 25.2793ZM287.999 36.6016L288.474 36.7576C288.51 36.6499 288.508 36.5335 288.468 36.4273L287.999 36.6016ZM282.779 52.5V53C282.995 53 283.186 52.8612 283.254 52.656L282.779 52.5ZM296.308 52.3199L295.105 49.2046L294.172 49.5649L295.375 52.6801L296.308 52.3199ZM294.638 48.8848H285.314V49.8848H294.638V48.8848ZM285.786 49.5499L287.762 43.8995L286.819 43.5693L284.842 49.2197L285.786 49.5499ZM287.29 44.2344H292.447V43.2344H287.29V44.2344ZM292.913 43.5542L285.286 23.8101L284.353 24.1704L291.98 43.9145L292.913 43.5542ZM284.82 24.4902H294.08V23.4902H284.82V24.4902ZM293.615 24.1754L304.98 52.6852L305.909 52.3148L294.544 23.8051L293.615 24.1754ZM305.445 52H295.841V53H305.445V52ZM274.073 52.6752L284.257 25.4545L283.32 25.1041L273.137 52.3248L274.073 52.6752ZM283.32 25.4536L287.531 36.7759L288.468 36.4273L284.257 25.105L283.32 25.4536ZM287.524 36.4456L282.304 52.344L283.254 52.656L288.474 36.7576L287.524 36.4456ZM282.779 52H273.605V53H282.779V52ZM327.013 52.5L326.586 52.7591C326.676 52.9086 326.839 53 327.013 53V52.5ZM309.74 23.9902V23.4902C309.559 23.4902 309.393 23.5875 309.304 23.7448C309.216 23.9021 309.219 24.0949 309.312 24.2493L309.74 23.9902ZM319.773 23.9902L320.2 23.7304C320.11 23.5813 319.948 23.4902 319.773 23.4902V23.9902ZM337.111 52.5V53C337.292 53 337.458 52.9025 337.547 52.7451C337.635 52.5876 337.632 52.3946 337.538 52.2402L337.111 52.5ZM337.111 49.793L336.684 50.0525C336.8 50.2442 337.03 50.3349 337.246 50.2745C337.462 50.214 337.611 50.0172 337.611 49.793H337.111ZM328.84 36.1719H328.34C328.34 36.2634 328.365 36.3532 328.412 36.4314L328.84 36.1719ZM328.84 23.9902V23.4902C328.563 23.4902 328.34 23.7141 328.34 23.9902H328.84ZM337.111 23.9902H337.611C337.611 23.7141 337.387 23.4902 337.111 23.4902V23.9902ZM309.74 52.5H309.24C309.24 52.7761 309.464 53 309.74 53V52.5ZM309.74 26.6973L310.167 26.4368C310.05 26.2456 309.82 26.1553 309.605 26.2159C309.389 26.2765 309.24 26.4732 309.24 26.6973H309.74ZM318.011 40.2539H318.511C318.511 40.162 318.486 40.0719 318.438 39.9935L318.011 40.2539ZM318.011 52.5V53C318.288 53 318.511 52.7761 318.511 52.5H318.011ZM327.441 52.2409L310.168 23.7311L309.312 24.2493L326.586 52.7591L327.441 52.2409ZM309.74 24.4902H319.773V23.4902H309.74V24.4902ZM319.346 24.25L336.684 52.7598L337.538 52.2402L320.2 23.7304L319.346 24.25ZM337.111 52H327.013V53H337.111V52ZM337.538 49.5334L329.267 35.9124L328.412 36.4314L336.684 50.0525L337.538 49.5334ZM329.34 36.1719V23.9902H328.34V36.1719H329.34ZM328.84 24.4902H337.111V23.4902H328.84V24.4902ZM336.611 23.9902V49.793H337.611V23.9902H336.611ZM310.24 52.5V26.6973H309.24V52.5H310.24ZM309.313 26.9577L317.585 40.5143L318.438 39.9935L310.167 26.4368L309.313 26.9577ZM317.511 40.2539V52.5H318.511V40.2539H317.511ZM318.011 52H309.74V53H318.011V52ZM349.119 52.5L348.766 52.8536C348.859 52.9473 348.986 53 349.119 53V52.5ZM343.426 46.8066H342.926C342.926 46.9392 342.978 47.0664 343.072 47.1602L343.426 46.8066ZM343.426 29.6836L343.072 29.33C342.978 29.4238 342.926 29.551 342.926 29.6836H343.426ZM349.119 23.9902V23.4902C348.986 23.4902 348.859 23.5429 348.766 23.6367L349.119 23.9902ZM352.922 23.9902H353.422C353.422 23.7141 353.198 23.4902 352.922 23.4902V23.9902ZM352.922 46.8066H352.422C352.422 47.0828 352.646 47.3066 352.922 47.3066V46.8066ZM361.064 46.8066H361.564C361.564 46.5305 361.341 46.3066 361.064 46.3066V46.8066ZM361.064 52.5V53C361.341 53 361.564 52.7761 361.564 52.5H361.064ZM361.494 32.541H360.994C360.994 32.8172 361.218 33.041 361.494 33.041V32.541ZM361.494 29.6836H361.994C361.994 29.4075 361.77 29.1836 361.494 29.1836V29.6836ZM354.426 29.6836H353.926C353.926 29.9597 354.15 30.1836 354.426 30.1836V29.6836ZM354.426 23.9902V23.4902C354.15 23.4902 353.926 23.7141 353.926 23.9902H354.426ZM366.006 23.9902L366.382 23.6609C366.287 23.5524 366.15 23.4902 366.006 23.4902V23.9902ZM370.99 29.6836H371.49C371.49 29.5624 371.446 29.4454 371.366 29.3542L370.99 29.6836ZM370.99 32.541V33.041C371.266 33.041 371.49 32.8172 371.49 32.541H370.99ZM362.568 52.5H362.068C362.068 52.7761 362.292 53 362.568 53V52.5ZM362.568 42.3379H363.068C363.068 42.0617 362.844 41.8379 362.568 41.8379V42.3379ZM357.949 42.3379H357.449C357.449 42.614 357.673 42.8379 357.949 42.8379V42.3379ZM357.949 36.6875V36.1875C357.673 36.1875 357.449 36.4114 357.449 36.6875H357.949ZM370.99 36.6875H371.49C371.49 36.4114 371.266 36.1875 370.99 36.1875V36.6875ZM370.99 52.5V53C371.266 53 371.49 52.7761 371.49 52.5H370.99ZM349.473 52.1464L343.779 46.4531L343.072 47.1602L348.766 52.8536L349.473 52.1464ZM343.926 46.8066V29.6836H342.926V46.8066H343.926ZM343.779 30.0371L349.473 24.3438L348.766 23.6367L343.072 29.33L343.779 30.0371ZM349.119 24.4902H352.922V23.4902H349.119V24.4902ZM352.422 23.9902V46.8066H353.422V23.9902H352.422ZM352.922 47.3066H361.064V46.3066H352.922V47.3066ZM360.564 46.8066V52.5H361.564V46.8066H360.564ZM361.064 52H349.119V53H361.064V52ZM361.994 32.541V29.6836H360.994V32.541H361.994ZM361.494 29.1836H354.426V30.1836H361.494V29.1836ZM354.926 29.6836V23.9902H353.926V29.6836H354.926ZM354.426 24.4902H366.006V23.4902H354.426V24.4902ZM365.63 24.3196L370.614 30.0129L371.366 29.3542L366.382 23.6609L365.63 24.3196ZM370.49 29.6836V32.541H371.49V29.6836H370.49ZM370.99 32.041H361.494V33.041H370.99V32.041ZM363.068 52.5V42.3379H362.068V52.5H363.068ZM362.568 41.8379H357.949V42.8379H362.568V41.8379ZM358.449 42.3379V36.6875H357.449V42.3379H358.449ZM357.949 37.1875H370.99V36.1875H357.949V37.1875ZM370.49 36.6875V52.5H371.49V36.6875H370.49ZM370.99 52H362.568V53H370.99V52Z" fill="white"/>
</g>
</g>
<defs>
<filter id="filter0_d_101_1821" x="102.91" y="22.9902" width="271.08" height="32.5098" filterUnits="userSpaceOnUse" color-interpolation-filters="sRGB">
<feFlood flood-opacity="0" result="BackgroundImageFix"/>
<feColorMatrix in="SourceAlpha" type="matrix" values="0 0 0 0 0 0 0 0 0 0 0 0 0 0 0 0 0 0 127 0" result="hardAlpha"/>
<feOffset dx="1" dy="1"/>
<feGaussianBlur stdDeviation="1"/>
<feComposite in2="hardAlpha" operator="out"/>
<feColorMatrix type="matrix" values="0 0 0 0 0 0 0 0 0 0 0 0 0 0 0 0 0 0 0.6 0"/>
<feBlend mode="normal" in2="BackgroundImageFix" result="effect1_dropShadow_101_1821"/>
<feBlend mode="normal" in="SourceGraphic" in2="effect1_dropShadow_101_1821" result="shape"/>
</filter>
<linearGradient id="paint0_linear_101_1821" x1="16.9697" y1="66.7987" x2="70.577" y2="13.1915" gradientUnits="userSpaceOnUse">
<stop stop-color="#D8D4CE"/>
<stop offset="0.07" stop-color="#C9C5C0"/>
<stop offset="0.15" stop-color="#B6B1AD"/>
<stop offset="0.52" stop-color="#EAEAEA"/>
<stop offset="0.63" stop-color="#DDDCDB"/>
<stop offset="0.84" stop-color="#BCB7B4"/>
<stop offset="0.88" stop-color="#B6B1AD"/>
<stop offset="1" stop-color="#B6B6B6"/>
</linearGradient>
<linearGradient id="paint1_linear_101_1821" x1="3.77808" y1="40" x2="83.7682" y2="40" gradientUnits="userSpaceOnUse">
<stop stop-color="#26344E"/>
<stop offset="0.5" stop-color="#003A93"/>
<stop offset="1" stop-color="#131D3D"/>
</linearGradient>
<linearGradient id="paint2_linear_101_1821" x1="16.8244" y1="41.0904" x2="51.5052" y2="41.0904" gradientUnits="userSpaceOnUse">
<stop stop-color="#4A5567"/>
<stop offset="1" stop-color="#003A93"/>
</linearGradient>
<linearGradient id="paint3_linear_101_1821" x1="40.0834" y1="42.0283" x2="70.2284" y2="42.0283" gradientUnits="userSpaceOnUse">
<stop stop-color="#E94961"/>
<stop offset="1" stop-color="#B61D22"/>
</linearGradient>
<linearGradient id="paint4_linear_101_1821" x1="238.293" y1="30.65" x2="238.293" y2="53.2" gradientUnits="userSpaceOnUse">
<stop stop-color="#032D69"/>
<stop offset="1" stop-color="#98999D"/>
</linearGradient>
<clipPath id="clip0_101_1821">
<rect width="378" height="80" fill="white"/>
</clipPath>
<clipPath id="clip1_101_1821">
<rect width="79.9901" height="80" fill="white" transform="translate(3.77832)"/>
</clipPath>
</defs>
</svg>
