<svg width="258" height="84" viewBox="0 0 258 84" fill="none" xmlns="http://www.w3.org/2000/svg">
<path fill-rule="evenodd" clip-rule="evenodd" d="M30.5849 1.47522C27.6927 2.24418 25.2818 2.91727 25.2268 2.97107C25.1338 3.06249 28.3953 14.4719 32.5795 28.6906C33.5944 32.139 34.4253 35.2497 34.4261 35.6032C34.4277 36.1877 32.8982 37.1852 32.0015 37.1852C31.5893 37.1852 30.3046 34.9002 25.6338 25.8591C19.336 13.6686 16.5571 8.46545 16.3447 8.46545C16.0175 8.46545 9.75293 14.177 9.75374 14.4748C9.75415 14.618 13.8514 20.2624 18.8591 27.018L27.9641 39.3008L26.0637 40.9734C25.0185 41.8933 24.0412 42.646 23.8924 42.646C23.7431 42.646 22.7165 41.8269 21.6106 40.8258C15.0216 34.861 5.1517 26.0581 4.30548 25.3927L3.31444 24.6132L2.05441 28.7756C1.3615 31.0651 0.625705 33.4658 0.419812 34.1106C0.213515 34.7558 0.0448378 35.4175 0.0448378 35.581C0.0448378 35.8407 8.22715 40.6057 16.225 45.0035C20.6555 47.4398 20.5103 47.2448 19.5338 49.4526C19.0739 50.4922 18.5622 51.3429 18.3964 51.3429C18.2309 51.3429 14.1127 50.0578 9.24447 48.4871C4.37667 46.916 0.255179 45.6875 0.0852878 45.7567C-0.472119 45.9836 1.86106 55.5805 2.49735 55.6767C3.2566 55.7916 16.5591 57.0059 17.0567 57.0059C17.2666 57.0059 17.4385 57.986 17.4385 59.1842V61.3624L15.3149 61.6031C14.1467 61.7358 11.4163 61.9639 9.2473 62.11C7.07835 62.256 5.30339 62.4967 5.30339 62.6455C5.30339 62.9356 8.0884 66.943 9.76183 69.0602L10.7816 70.3509L14.3441 69.139C16.3031 68.4728 18.1403 67.9275 18.4263 67.9275C18.8607 67.9275 20.27 70.7805 20.27 71.6599C20.27 71.8071 19.2681 72.5263 18.0432 73.2589C16.8188 73.9915 15.863 74.7171 15.9196 74.8717C16.0543 75.2385 22.2181 79.2536 22.6469 79.2536C22.8281 79.2536 23.3058 78.8896 23.7083 78.4446C24.1108 77.9997 24.5857 77.6356 24.7629 77.6356C24.94 77.6356 26.249 78.4491 27.6716 79.4434C30.9732 81.7514 33.232 82.7093 37.3336 83.5402C44.188 84.9292 51.2971 83.1389 56.9246 78.6068L58.5895 77.2659L59.5231 78.2598C60.0368 78.8063 60.6529 79.2504 60.8919 79.2464C61.7123 79.233 67.6557 75.1823 67.5076 74.7378C67.4263 74.4938 66.4167 73.8171 65.2646 73.2342C64.1126 72.6517 63.1649 71.9402 63.1588 71.653C63.1499 71.242 64.5503 68.0962 64.9544 67.6201C65.0033 67.5623 66.8204 68.0618 68.9917 68.7301C71.1635 69.3987 73.0898 69.853 73.2726 69.7401C73.7766 69.4286 78.1141 63.152 78.1141 62.7341C78.1141 62.5331 76.4306 62.2495 74.3724 62.1035C72.3143 61.9575 69.6749 61.7309 68.5071 61.6003L66.3835 61.3624V59.2473V57.1325L73.9861 56.4073L81.5892 55.6816L82.6518 50.7843C83.2359 48.0907 83.6449 45.8173 83.5599 45.7324C83.475 45.6475 79.2876 46.9815 74.2547 48.697C69.2219 50.4125 65.0515 51.7551 64.9871 51.6806C64.9228 51.6062 64.4916 50.6771 64.0285 49.6164L63.1867 47.6878L64.6838 46.7497C66.608 45.5443 72.7471 41.994 77.9118 39.1002C84.1821 35.587 83.7165 36.6072 81.9363 30.2803C81.0953 27.2923 80.3563 24.7815 80.2936 24.7006C80.1014 24.4531 78.172 26.1443 69.0476 34.556C64.221 39.0055 60.1452 42.6909 59.9907 42.7459C59.8358 42.801 58.9406 42.1639 58.0014 41.3302L56.2935 39.8145L62.5585 31.3199C66.0041 26.6479 70.0928 21.0961 71.6441 18.9826L74.4651 15.1398L71.0486 11.8026C69.1693 9.96697 67.4809 8.46545 67.2965 8.46545C67.112 8.46545 63.702 15.0245 59.7193 23.0413C53.9794 34.594 52.3464 37.5643 51.846 37.36C51.4986 37.2184 50.7138 36.9211 50.1022 36.6998C49.4906 36.4782 48.9898 36.066 48.9898 35.7832C48.9898 35.5005 49.9157 32.1051 51.0475 28.2384C52.1793 24.3714 54.1719 17.5668 55.4756 13.1172C56.7794 8.6677 57.9581 4.55835 58.0956 3.98516C58.3432 2.95449 58.2898 2.9286 53.1623 1.59616C50.3113 0.855113 47.7585 0.169883 47.4899 0.0732068C46.848 -0.157765 46.6635 0.798077 46.1769 6.87656C45.274 18.1545 44.1265 31.4304 43.8979 33.2413L43.6552 35.1627H41.7314H39.8072L39.3193 28.3873C37.1791 -1.34782 37.3082 -0.0384362 36.5169 0.0238574C36.1464 0.0529817 33.4771 0.706255 30.5849 1.47522Z" fill="#DA1515"/>
<path fill-rule="evenodd" clip-rule="evenodd" d="M28.3602 53.9722V57.4104H32.203H36.0458V53.9722V50.5339H38.2705H40.4953V60.4442V70.3546H38.2705H36.0458V66.1073V61.86H32.203H28.3602V66.1073V70.3546H26.1354H23.9106V60.4442V50.5339H26.1354H28.3602V53.9722ZM52.5641 55.7924L55.8871 50.5339H61.0001L54.6529 61.0821V65.9592V70.3546H52.4282H50.2034V65.7185V61.0821L44.0001 50.5L49.3248 50.5339L52.5641 55.7924Z" fill="white"/>
<path d="M105.584 21.2644H108.549V43.0821H105.584V21.2644ZM114.515 21.2644H117.34V41.67H114.515V21.2644ZM109.855 14.4861H113.174V38.2808H109.855V14.4861ZM125.671 28.5723H129.378V47.1773H125.671V28.5723ZM107.031 36.5156H115.822V39.8695H107.031V36.5156ZM119.634 31.1495H135.733V34.2915H119.634V31.1495ZM118.187 40.0813H137.074V43.2939H118.187V40.0813ZM120.023 35.5624H135.239V38.5632H120.023V35.5624ZM131.355 16.6043H132.061L132.732 16.4631L135.239 17.6634C132.344 24.4771 126.024 28.5723 119.105 30.6905C118.646 29.7726 117.693 28.3605 117.022 27.6191C123.235 26.0657 129.202 22.2882 131.355 17.2045V16.6043ZM124.365 14.0272L127.79 14.9098C126.024 18.6519 123.024 22.0058 119.952 24.0887C119.387 23.4886 118.046 22.2882 117.269 21.7234C120.27 19.9582 122.953 17.1339 124.365 14.0272ZM124.859 18.9697C127.295 22.9943 132.308 26.0657 138.381 27.266C137.569 28.078 136.474 29.5608 135.945 30.5846C129.625 28.89 124.648 25.1125 121.788 19.9935L124.859 18.9697ZM124.542 16.6043H132.591V19.7111H122.388L124.542 16.6043ZM144.559 42.3407H176.897V46.0829H144.559V42.3407ZM145.124 21.335H176.403V25.0772H145.124V21.335ZM149.29 32.8793H172.308V44.2824H168.354V36.445H165.812V44.2824H161.928V36.445H159.422V44.2824H155.538V36.445H153.032V44.2824H149.29V32.8793ZM150.137 15.8983L153.773 14.3096C155.327 16.216 156.95 18.7226 157.727 20.4171L153.914 22.3588C153.208 20.5937 151.584 17.8753 150.137 15.8983ZM167.365 13.9919L171.884 15.3334C170.401 17.7694 168.707 20.2406 167.365 21.8646L163.623 20.5937C164.964 18.8285 166.553 16.0748 167.365 13.9919ZM154.55 22.2176L158.786 23.4886C156.138 29.0665 151.69 33.9738 147.101 37.0099C146.43 36.1273 144.806 34.5033 143.817 33.7266C148.372 31.2201 152.396 27.0189 154.55 22.2176ZM166.235 22.2176C168.459 26.6659 172.978 31.0435 177.709 33.303C176.756 34.0797 175.45 35.6683 174.779 36.7274C169.801 33.9738 165.282 29.0312 162.493 23.5592L166.235 22.2176ZM186.182 17.6987H214.495V22.1117H186.182V17.6987ZM184.205 40.4696H216.508V44.7414H184.205V40.4696ZM197.726 20.0994H202.563V42.1642H197.726V20.0994ZM233.242 23.5945V25.7127H246.41V23.5945H233.242ZM233.242 28.6782V30.8317H246.41V28.6782H233.242ZM233.242 18.5107V20.5937H246.41V18.5107H233.242ZM229.076 15.2981H250.788V34.0091H229.076V15.2981ZM224.098 35.6683H255.624V39.587H224.098V35.6683ZM241.679 42.5525L244.927 39.7283C248.881 41.1051 253.471 43.0115 256.154 44.3177L251.811 47.1773C249.517 45.8358 245.492 43.9294 241.679 42.5525ZM234.336 39.5164L238.008 42.376C234.866 44.1765 230.206 46.0829 226.569 47.1773C225.899 46.2594 224.628 44.812 223.674 43.8941C227.311 42.9409 231.936 41.0345 234.336 39.5164Z" fill="#0B090A"/>
<path d="M104.982 70V57.1623H106.919V62.7412H113.319V57.1623H115.262V70H113.319V64.4023H106.919V70H104.982ZM129.411 63.5811C129.411 64.9518 129.16 66.1303 128.658 67.1165C128.157 68.0986 127.47 68.855 126.596 69.3857C125.727 69.9122 124.739 70.1755 123.631 70.1755C122.52 70.1755 121.527 69.9122 120.654 69.3857C119.784 68.855 119.099 68.0965 118.598 67.1103C118.096 66.124 117.845 64.9477 117.845 63.5811C117.845 62.2105 118.096 61.0341 118.598 60.052C119.099 59.0658 119.784 58.3094 120.654 57.7829C121.527 57.2521 122.52 56.9868 123.631 56.9868C124.739 56.9868 125.727 57.2521 126.596 57.7829C127.47 58.3094 128.157 59.0658 128.658 60.052C129.16 61.0341 129.411 62.2105 129.411 63.5811ZM127.493 63.5811C127.493 62.5364 127.323 61.6567 126.985 60.9421C126.65 60.2234 126.191 59.6801 125.606 59.3124C125.025 58.9404 124.367 58.7545 123.631 58.7545C122.892 58.7545 122.231 58.9404 121.65 59.3124C121.07 59.6801 120.61 60.2234 120.271 60.9421C119.937 61.6567 119.77 62.5364 119.77 63.5811C119.77 64.6259 119.937 65.5076 120.271 66.2264C120.61 66.941 121.07 67.4843 121.65 67.8562C122.231 68.224 122.892 68.4078 123.631 68.4078C124.367 68.4078 125.025 68.224 125.606 67.8562C126.191 67.4843 126.65 66.941 126.985 66.2264C127.323 65.5076 127.493 64.6259 127.493 63.5811ZM142.364 57.1623V70H140.584L134.058 60.5848H133.939V70H132.002V57.1623H133.795L140.327 66.59H140.446V57.1623H142.364ZM154.054 61.218C153.933 60.8377 153.77 60.4971 153.565 60.1962C153.364 59.8911 153.124 59.632 152.844 59.4189C152.564 59.2016 152.244 59.0365 151.885 58.9237C151.53 58.8109 151.139 58.7545 150.713 58.7545C149.99 58.7545 149.338 58.9404 148.757 59.3124C148.176 59.6843 147.716 60.2296 147.378 60.9484C147.044 61.663 146.876 62.5385 146.876 63.5749C146.876 64.6154 147.046 65.4951 147.384 66.2139C147.723 66.9327 148.187 67.478 148.776 67.8499C149.365 68.2219 150.036 68.4078 150.788 68.4078C151.486 68.4078 152.094 68.2657 152.612 67.9816C153.134 67.6974 153.538 67.2962 153.822 66.778C154.11 66.2557 154.254 65.6414 154.254 64.9351L154.756 65.0291H151.083V63.4307H156.129V64.8912C156.129 65.9694 155.899 66.9055 155.439 67.6995C154.984 68.4893 154.353 69.0994 153.546 69.5299C152.744 69.9603 151.824 70.1755 150.788 70.1755C149.626 70.1755 148.607 69.9081 147.729 69.3732C146.856 68.8383 146.174 68.0798 145.685 67.0977C145.197 66.1115 144.952 64.9414 144.952 63.5874C144.952 62.5636 145.094 61.6442 145.378 60.8293C145.662 60.0144 146.062 59.3228 146.576 58.7545C147.094 58.182 147.702 57.7453 148.4 57.4444C149.102 57.1393 149.869 56.9868 150.7 56.9868C151.394 56.9868 152.04 57.0892 152.637 57.2939C153.239 57.4987 153.774 57.7891 154.242 58.1652C154.714 58.5413 155.105 58.9885 155.414 59.5067C155.723 60.0207 155.932 60.5911 156.041 61.218H154.054ZM162.622 57.1623H164.822L168.175 62.9982H168.313L171.667 57.1623H173.867L169.21 64.9602V70H167.279V64.9602L162.622 57.1623ZM177.809 57.1623V70H175.872V57.1623H177.809ZM180.807 70V57.1623H182.744V62.7412H189.144V57.1623H191.087V70H189.144V64.4023H182.744V70H180.807ZM194.084 70V57.1623H202.133V58.8297H196.021V62.7412H201.713V64.4023H196.021V68.3326H202.208V70H194.084ZM209.112 58.8297V57.1623H219.047V58.8297H215.042V70H213.111V58.8297H209.112ZM232.019 63.5811C232.019 64.9518 231.768 66.1303 231.267 67.1165C230.765 68.0986 230.078 68.855 229.204 69.3857C228.335 69.9122 227.347 70.1755 226.239 70.1755C225.128 70.1755 224.135 69.9122 223.262 69.3857C222.393 68.855 221.707 68.0965 221.206 67.1103C220.704 66.124 220.454 64.9477 220.454 63.5811C220.454 62.2105 220.704 61.0341 221.206 60.052C221.707 59.0658 222.393 58.3094 223.262 57.7829C224.135 57.2521 225.128 56.9868 226.239 56.9868C227.347 56.9868 228.335 57.2521 229.204 57.7829C230.078 58.3094 230.765 59.0658 231.267 60.052C231.768 61.0341 232.019 62.2105 232.019 63.5811ZM230.101 63.5811C230.101 62.5364 229.932 61.6567 229.593 60.9421C229.259 60.2234 228.799 59.6801 228.214 59.3124C227.633 58.9404 226.975 58.7545 226.239 58.7545C225.5 58.7545 224.84 58.9404 224.259 59.3124C223.678 59.6801 223.218 60.2234 222.88 60.9421C222.545 61.6567 222.378 62.5364 222.378 63.5811C222.378 64.6259 222.545 65.5076 222.88 66.2264C223.218 66.941 223.678 67.4843 224.259 67.8562C224.84 68.224 225.5 68.4078 226.239 68.4078C226.975 68.4078 227.633 68.224 228.214 67.8562C228.799 67.4843 229.259 66.941 229.593 66.2264C229.932 65.5076 230.101 64.6259 230.101 63.5811ZM245.762 63.5811C245.762 64.9518 245.511 66.1303 245.01 67.1165C244.508 68.0986 243.821 68.855 242.947 69.3857C242.078 69.9122 241.09 70.1755 239.982 70.1755C238.871 70.1755 237.878 69.9122 237.005 69.3857C236.136 68.855 235.45 68.0965 234.949 67.1103C234.447 66.124 234.197 64.9477 234.197 63.5811C234.197 62.2105 234.447 61.0341 234.949 60.052C235.45 59.0658 236.136 58.3094 237.005 57.7829C237.878 57.2521 238.871 56.9868 239.982 56.9868C241.09 56.9868 242.078 57.2521 242.947 57.7829C243.821 58.3094 244.508 59.0658 245.01 60.052C245.511 61.0341 245.762 62.2105 245.762 63.5811ZM243.844 63.5811C243.844 62.5364 243.674 61.6567 243.336 60.9421C243.002 60.2234 242.542 59.6801 241.957 59.3124C241.376 58.9404 240.718 58.7545 239.982 58.7545C239.243 58.7545 238.582 58.9404 238.002 59.3124C237.421 59.6801 236.961 60.2234 236.623 60.9421C236.288 61.6567 236.121 62.5364 236.121 63.5811C236.121 64.6259 236.288 65.5076 236.623 66.2264C236.961 66.941 237.421 67.4843 238.002 67.8562C238.582 68.224 239.243 68.4078 239.982 68.4078C240.718 68.4078 241.376 68.224 241.957 67.8562C242.542 67.4843 243.002 66.941 243.336 66.2264C243.674 65.5076 243.844 64.6259 243.844 63.5811ZM248.353 70V57.1623H250.29V68.3326H256.107V70H248.353Z" fill="#0B090A"/>
</svg>
