<svg width="192" height="64" viewBox="0 0 192 64" fill="none" xmlns="http://www.w3.org/2000/svg">
<path fill-rule="evenodd" clip-rule="evenodd" d="M23.3028 1.12398C21.0992 1.70985 19.2624 2.22269 19.2204 2.26367C19.1496 2.33333 21.6345 11.0262 24.8225 21.8595C25.5957 24.4869 26.2288 26.8569 26.2294 27.1263C26.2306 27.5716 25.0653 28.3316 24.3821 28.3316C24.068 28.3316 23.0892 26.5906 19.5305 19.7022C14.7322 10.4142 12.6149 6.44987 12.4531 6.44987C12.2038 6.44987 7.43081 10.8016 7.43142 11.0284C7.43173 11.1375 10.5534 15.438 14.3689 20.5852L21.306 29.9435L19.8581 31.2178C19.0617 31.9187 18.3171 32.4922 18.2037 32.4922C18.09 32.4922 17.3078 31.8681 16.4652 31.1053C11.445 26.5607 3.92511 19.8538 3.28036 19.3468L2.52529 18.753L1.56527 21.9243C1.03733 23.6686 0.476728 25.4978 0.319857 25.989C0.162678 26.4806 0.0341622 26.9848 0.0341622 27.1093C0.0341622 27.3072 6.2683 30.9377 12.3619 34.2884C15.7375 36.1446 15.6269 35.9961 14.8829 37.6782C14.5325 38.4702 14.1426 39.1184 14.0163 39.1184C13.8902 39.1184 10.7525 38.1393 7.04341 36.9425C3.33461 35.7455 0.194422 34.8095 0.0649812 34.8622C-0.359709 35.0351 1.41795 42.347 1.90274 42.4204C2.48122 42.5079 12.6165 43.4331 12.9955 43.4331C13.1555 43.4331 13.2865 44.1798 13.2865 45.0927V46.7523L11.6685 46.9357C10.7784 47.0368 8.6981 47.2106 7.04556 47.3219C5.39303 47.4331 4.04068 47.6165 4.04068 47.7299C4.04068 47.9509 6.16259 51.0042 7.43759 52.6173L8.21454 53.6007L10.9288 52.6774C12.4214 52.1698 13.8212 51.7543 14.0391 51.7543C14.3701 51.7543 15.4438 53.928 15.4438 54.598C15.4438 54.7102 14.6804 55.2582 13.7472 55.8163C12.8143 56.3744 12.0861 56.9273 12.1292 57.0451C12.2318 57.3246 16.9281 60.3837 17.2548 60.3837C17.3929 60.3837 17.7568 60.1064 18.0635 59.7673C18.3701 59.4283 18.732 59.151 18.8669 59.151C19.0019 59.151 19.9992 59.7707 21.0832 60.5283C23.5986 62.2868 25.3196 63.0166 28.4447 63.6497C33.667 64.708 39.0835 63.3439 43.3711 59.8909L44.6396 58.8693L45.3509 59.6265C45.7423 60.0429 46.2117 60.3813 46.3939 60.3782C47.0189 60.368 51.5472 57.2818 51.4344 56.9431C51.3724 56.7572 50.6032 56.2416 49.7254 55.7975C48.8477 55.3537 48.1256 54.8116 48.121 54.5928C48.1142 54.2797 49.1812 51.8828 49.489 51.5201C49.5263 51.476 50.9107 51.8566 52.5651 52.3658C54.2198 52.8752 55.6874 53.2213 55.8267 53.1353C56.2107 52.898 59.5155 48.1158 59.5155 47.7974C59.5155 47.6442 58.2328 47.4282 56.6647 47.3169C55.0966 47.2057 53.0857 47.0331 52.1959 46.9336L50.5779 46.7523V45.1408V43.5296L56.3704 42.977L62.1632 42.4241L62.9728 38.6928C63.4179 36.6405 63.7294 34.9085 63.6647 34.8437C63.6 34.779 60.4096 35.7954 56.575 37.1025C52.7405 38.4095 49.563 39.4324 49.514 39.3757C49.465 39.319 49.1365 38.6111 48.7836 37.803L48.1422 36.3335L49.2829 35.6188C50.7489 34.7004 55.4264 31.9954 59.3614 29.7906C64.1387 27.1139 63.784 27.8912 62.4276 23.0707C61.7869 20.7941 61.2238 18.8812 61.1761 18.8195C61.0297 18.6309 59.5596 19.9195 52.6077 26.3284C48.9303 29.7185 45.8249 32.5264 45.7072 32.5683C45.5892 32.6103 44.9071 32.1249 44.1915 31.4897L42.8903 30.3349L47.6636 23.8628C50.2888 20.3032 53.404 16.0732 54.586 14.4629L56.7353 11.5351L54.1323 8.99246C52.7004 7.59388 51.414 6.44987 51.2735 6.44987C51.1329 6.44987 48.5349 11.4472 45.5004 17.5553C41.1271 26.3573 39.883 28.6204 39.5017 28.4647C39.237 28.3569 38.6391 28.1304 38.1731 27.9618C37.7071 27.7929 37.3256 27.4788 37.3256 27.2634C37.3256 27.048 38.031 24.461 38.8934 21.515C39.7557 18.5687 41.2738 13.3842 42.2671 9.99409C43.2605 6.60396 44.1585 3.47303 44.2633 3.03632C44.4519 2.25104 44.4113 2.23131 40.5046 1.21613C38.3324 0.651514 36.3874 0.129435 36.1828 0.0557766C35.6937 -0.120202 35.5532 0.608059 35.1824 5.23928C34.4945 13.832 33.6202 23.9469 33.446 25.3267L33.2611 26.7906H31.7954H30.3293L29.9576 21.6284C28.3269 -1.02691 28.4253 -0.0292847 27.8224 0.0181771C27.5401 0.040367 25.5064 0.538099 23.3028 1.12398ZM21.6077 41.1216V43.7413H24.5355H27.4634V41.1216V38.502H29.1584H30.8535V46.0527V53.6035H29.1584H27.4634V50.3674V47.1314H24.5355H21.6077V50.3674V53.6035H19.9126H18.2176V46.0527V38.502H19.9126H21.6077V41.1216ZM38.701 40.5052C39.3171 41.607 39.9236 42.5085 40.0488 42.5085C40.1739 42.5085 40.7946 41.607 41.4282 40.5052L42.5806 38.502H44.4547C46.6848 38.502 46.7375 38.1254 43.7998 43.1856L41.6403 46.9058V50.2546V53.6035H39.9452H38.2502V50.0713V46.5388L36.0928 42.7732C34.9063 40.7022 33.9354 38.894 33.9354 38.7547C33.9354 38.6157 34.7556 38.502 35.7581 38.502H37.5808L38.701 40.5052Z" fill="#DA1515"/>
<path fill-rule="evenodd" clip-rule="evenodd" d="M21.6077 41.1216V43.7412H24.5356H27.4634V41.1216V38.5019H29.1585H30.8535V46.0527V53.6034H29.1585H27.4634V50.3674V47.1313H24.5356H21.6077V50.3674V53.6034H19.9127H18.2176V46.0527V38.5019H19.9127H21.6077V41.1216ZM38.7011 40.5052C39.3171 41.607 39.9237 42.5084 40.0488 42.5084C40.1739 42.5084 40.7946 41.607 41.4283 40.5052L42.5806 38.5019H44.4547C46.6848 38.5019 46.7375 38.1253 43.7998 43.1855L41.6403 46.9058V50.2546V53.6034H39.9452H38.2502V50.0712V46.5387L36.0928 42.7732C34.9063 40.7021 33.9355 38.894 33.9355 38.7546C33.9355 38.6157 34.7556 38.5019 35.7581 38.5019H37.5808L38.7011 40.5052Z" fill="white"/>
<path d="M79.8136 16.2816H81.3026V32.2947H79.8136V16.2816ZM86.1614 16.2816H87.5981V31.2759H86.1614V16.2816ZM82.8961 11.3445H84.5157V28.8988H82.8961V11.3445ZM94.6773 21.5322H96.4275V35.0898H94.6773V21.5322ZM80.545 28.0367H86.8406V29.6563H80.545V28.0367ZM89.7663 23.7265H101.495V25.2678H89.7663V23.7265ZM88.5646 30.3094H102.645V31.8767H88.5646V30.3094ZM90.0275 26.9135H101.182V28.4286H90.0275V26.9135ZM99.0136 13.1731H99.3532L99.6928 13.0947L100.868 13.6955C98.674 18.6065 93.7108 21.6629 88.7997 23.1518C88.5908 22.7078 88.1206 22.0286 87.8071 21.6629C92.3785 20.4873 97.2112 17.5616 99.0136 13.4865V13.1731ZM93.4495 11.0571L95.0953 11.5012C93.763 14.218 91.5687 16.7257 89.3744 18.3192C89.0871 18.0318 88.434 17.4571 88.0422 17.1959C90.2626 15.7331 92.274 13.4865 93.4495 11.0571ZM92.9793 14.4269C94.834 17.7184 98.8046 20.3306 103.376 21.3233C102.984 21.689 102.462 22.3943 102.201 22.8906C97.5508 21.6629 93.5801 18.711 91.5426 14.9233L92.9793 14.4269ZM92.9532 13.1731H99.6406V14.7143H91.9344L92.9532 13.1731ZM108.392 32.5559H132.163V34.3061H108.392V32.5559ZM109.045 16.5429H131.51V18.3192H109.045V16.5429ZM112.023 25.111H128.663V33.4441H126.808V26.809H123.673V33.4441H121.845V26.809H118.736V33.4441H116.907V26.809H113.799V33.4441H112.023V25.111ZM112.78 11.9192L114.452 11.1878C115.654 12.6767 116.934 14.6359 117.508 15.942L115.758 16.8563C115.21 15.498 113.956 13.4082 112.78 11.9192ZM126.129 11.031L128.166 11.6841C127.069 13.4082 125.711 15.3935 124.587 16.6735L122.916 16.0465C124.013 14.7143 125.397 12.5722 126.129 11.031ZM116.254 17.0653L118.187 17.6661C116.228 21.8196 112.911 25.32 109.41 27.5665C109.097 27.1747 108.339 26.4433 107.869 26.1037C111.396 24.0922 114.504 20.8531 116.254 17.0653ZM123.961 17.0914C125.685 20.5657 129.159 24.0139 132.581 25.6596C132.137 26.0253 131.51 26.7567 131.196 27.2531C127.696 25.3461 124.222 21.6367 122.263 17.7445L123.961 17.0914ZM139.19 14.009H159.983V16.0465H139.19V14.009ZM137.805 31.1453H161.29V33.1045H137.805V31.1453ZM148.359 15.0278H150.553V31.9551H148.359V15.0278ZM172.888 17.6922V20.1739H184.852V17.6922H172.888ZM172.888 21.6629V24.1706H184.852V21.6629H172.888ZM172.888 13.7216V16.2033H184.852V13.7216H172.888ZM170.955 12.1543H186.863V25.738H170.955V12.1543ZM167.193 27.5404H190.39V29.369H167.193V27.5404ZM180.96 31.511L182.37 30.2049C185.374 31.2759 188.666 32.6865 190.677 33.7576L188.796 35.0898C186.968 34.0188 183.912 32.6082 180.96 31.511ZM174.899 30.0743L176.676 31.3282C174.455 32.7388 171.085 34.2016 168.421 35.0898C168.107 34.6718 167.507 33.9927 167.063 33.5747C169.753 32.7649 173.149 31.302 174.899 30.0743Z" fill="white"/>
<path d="M79.0025 53V43.5009H80.4357V47.6289H85.1713V43.5009H86.6092V53H85.1713V48.8581H80.4357V53H79.0025ZM97.0784 48.2505C97.0784 49.2647 96.8928 50.1367 96.5218 50.8664C96.1507 51.5931 95.6421 52.1528 94.9958 52.5455C94.3526 52.9351 93.6214 53.1299 92.8019 53.1299C91.9794 53.1299 91.245 52.9351 90.5988 52.5455C89.9556 52.1528 89.4485 51.5915 89.0774 50.8618C88.7064 50.132 88.5209 49.2616 88.5209 48.2505C88.5209 47.2362 88.7064 46.3658 89.0774 45.6391C89.4485 44.9094 89.9556 44.3497 90.5988 43.9601C91.245 43.5674 91.9794 43.3711 92.8019 43.3711C93.6214 43.3711 94.3526 43.5674 94.9958 43.9601C95.6421 44.3497 96.1507 44.9094 96.5218 45.6391C96.8928 46.3658 97.0784 47.2362 97.0784 48.2505ZM95.6591 48.2505C95.6591 47.4774 95.5338 46.8265 95.2834 46.2978C95.036 45.7659 94.6959 45.3639 94.263 45.0918C93.8332 44.8166 93.3462 44.679 92.8019 44.679C92.2546 44.679 91.7661 44.8166 91.3363 45.0918C90.9065 45.3639 90.5663 45.7659 90.3159 46.2978C90.0685 46.8265 89.9448 47.4774 89.9448 48.2505C89.9448 49.0235 90.0685 49.6759 90.3159 50.2078C90.5663 50.7365 90.9065 51.1385 91.3363 51.4137C91.7661 51.6858 92.2546 51.8219 92.8019 51.8219C93.3462 51.8219 93.8332 51.6858 94.263 51.4137C94.6959 51.1385 95.036 50.7365 95.2834 50.2078C95.5338 49.6759 95.6591 49.0235 95.6591 48.2505ZM106.663 43.5009V53H105.346L100.517 46.0334H100.429V53H98.9959V43.5009H100.322L105.155 50.4768H105.244V43.5009H106.663ZM115.313 46.5019C115.223 46.2205 115.102 45.9685 114.951 45.7458C114.802 45.5201 114.625 45.3284 114.418 45.1707C114.21 45.0099 113.974 44.8878 113.708 44.8043C113.445 44.7208 113.156 44.679 112.841 44.679C112.306 44.679 111.823 44.8166 111.393 45.0918C110.964 45.367 110.623 45.7706 110.373 46.3024C110.126 46.8312 110.002 47.479 110.002 48.2458C110.002 49.0158 110.127 49.6667 110.378 50.1985C110.628 50.7304 110.971 51.1339 111.407 51.4091C111.843 51.6843 112.34 51.8219 112.896 51.8219C113.413 51.8219 113.862 51.7168 114.246 51.5065C114.632 51.2962 114.931 50.9994 115.141 50.616C115.354 50.2294 115.461 49.7749 115.461 49.2523L115.832 49.3219H113.114V48.1391H116.848V49.2199C116.848 50.0176 116.678 50.7103 116.338 51.2978C116.001 51.8822 115.534 52.3336 114.937 52.6521C114.343 52.9706 113.663 53.1299 112.896 53.1299C112.037 53.1299 111.282 52.932 110.633 52.5362C109.986 52.1404 109.482 51.5792 109.121 50.8525C108.759 50.1228 108.578 49.257 108.578 48.2551C108.578 47.4975 108.683 46.8173 108.893 46.2143C109.104 45.6113 109.399 45.0996 109.779 44.679C110.163 44.2554 110.613 43.9323 111.129 43.7096C111.649 43.4839 112.216 43.3711 112.831 43.3711C113.345 43.3711 113.822 43.4468 114.264 43.5983C114.71 43.7498 115.106 43.9647 115.452 44.243C115.801 44.5213 116.09 44.8522 116.319 45.2356C116.548 45.616 116.703 46.038 116.783 46.5019H115.313ZM121.652 43.5009H123.28L125.762 47.8191H125.864L128.345 43.5009H129.973L126.527 49.2709V53H125.099V49.2709L121.652 43.5009ZM132.89 43.5009V53H131.457V43.5009H132.89ZM135.108 53V43.5009H136.541V47.6289H141.277V43.5009H142.715V53H141.277V48.8581H136.541V53H135.108ZM144.933 53V43.5009H150.888V44.7347H146.366V47.6289H150.577V48.8581H146.366V51.7662H150.944V53H144.933ZM156.052 44.7347V43.5009H163.403V44.7347H160.44V53H159.011V44.7347H156.052ZM173.002 48.2505C173.002 49.2647 172.816 50.1367 172.445 50.8664C172.074 51.5931 171.566 52.1528 170.919 52.5455C170.276 52.9351 169.545 53.1299 168.725 53.1299C167.903 53.1299 167.169 52.9351 166.522 52.5455C165.879 52.1528 165.372 51.5915 165.001 50.8618C164.63 50.132 164.444 49.2616 164.444 48.2505C164.444 47.2362 164.63 46.3658 165.001 45.6391C165.372 44.9094 165.879 44.3497 166.522 43.9601C167.169 43.5674 167.903 43.3711 168.725 43.3711C169.545 43.3711 170.276 43.5674 170.919 43.9601C171.566 44.3497 172.074 44.9094 172.445 45.6391C172.816 46.3658 173.002 47.2362 173.002 48.2505ZM171.583 48.2505C171.583 47.4774 171.457 46.8265 171.207 46.2978C170.959 45.7659 170.619 45.3639 170.186 45.0918C169.757 44.8166 169.27 44.679 168.725 44.679C168.178 44.679 167.69 44.8166 167.26 45.0918C166.83 45.3639 166.49 45.7659 166.239 46.2978C165.992 46.8265 165.868 47.4774 165.868 48.2505C165.868 49.0235 165.992 49.6759 166.239 50.2078C166.49 50.7365 166.83 51.1385 167.26 51.4137C167.69 51.6858 168.178 51.8219 168.725 51.8219C169.27 51.8219 169.757 51.6858 170.186 51.4137C170.619 51.1385 170.959 50.7365 171.207 50.2078C171.457 49.6759 171.583 49.0235 171.583 48.2505ZM183.171 48.2505C183.171 49.2647 182.985 50.1367 182.614 50.8664C182.243 51.5931 181.734 52.1528 181.088 52.5455C180.445 52.9351 179.714 53.1299 178.894 53.1299C178.072 53.1299 177.337 52.9351 176.691 52.5455C176.048 52.1528 175.541 51.5915 175.17 50.8618C174.799 50.132 174.613 49.2616 174.613 48.2505C174.613 47.2362 174.799 46.3658 175.17 45.6391C175.541 44.9094 176.048 44.3497 176.691 43.9601C177.337 43.5674 178.072 43.3711 178.894 43.3711C179.714 43.3711 180.445 43.5674 181.088 43.9601C181.734 44.3497 182.243 44.9094 182.614 45.6391C182.985 46.3658 183.171 47.2362 183.171 48.2505ZM181.751 48.2505C181.751 47.4774 181.626 46.8265 181.376 46.2978C181.128 45.7659 180.788 45.3639 180.355 45.0918C179.926 44.8166 179.439 44.679 178.894 44.679C178.347 44.679 177.858 44.8166 177.429 45.0918C176.999 45.3639 176.659 45.7659 176.408 46.2978C176.161 46.8265 176.037 47.4774 176.037 48.2505C176.037 49.0235 176.161 49.6759 176.408 50.2078C176.659 50.7365 176.999 51.1385 177.429 51.4137C177.858 51.6858 178.347 51.8219 178.894 51.8219C179.439 51.8219 179.926 51.6858 180.355 51.4137C180.788 51.1385 181.128 50.7365 181.376 50.2078C181.626 49.6759 181.751 49.0235 181.751 48.2505ZM185.088 53V43.5009H186.521V51.7662H190.826V53H185.088Z" fill="white"/>
</svg>
